<svg xmlns="http://www.w3.org/2000/svg" width="334.643" height="334.645" viewBox="0 0 334.643 334.645"><g fill="#fff"><path d="M182.501 35.73h-30.094c-13.83 0-25.084 11.254-25.084 25.084a5.02 5.02 0 0 0 5.015 5.019 5.02 5.02 0 0 0 5.018-5.019c0-8.298 6.753-15.047 15.052-15.047h30.094c8.298 0 15.056 6.75 15.056 15.047a5.016 5.016 0 1 0 10.03 0c-.003-13.829-11.253-25.084-25.087-25.084z"/><path d="M112.273 65.832a5.02 5.02 0 0 0 5.019-5.019c0-18.045 17.067-35.112 35.117-35.112h30.094c18.385 0 35.117 16.731 35.117 35.112a5.02 5.02 0 0 0 5.014 5.019 5.018 5.018 0 0 0 5.019-5.019c0-24.049-21.101-45.148-45.148-45.148h-30.094c-23.626 0-45.149 21.522-45.149 45.148a5.01 5.01 0 0 0 5.011 5.019zM312.931 231.374a5.023 5.023 0 0 0-5.019 5.015v55.182c0 8.298-6.749 15.047-15.048 15.047H42.044c-8.298 0-15.047-6.749-15.047-15.047v-55.182a5.023 5.023 0 0 0-5.02-5.015 5.023 5.023 0 0 0-5.018 5.019v55.178c0 13.834 11.254 25.084 25.084 25.084h250.822c13.834 0 25.084-11.25 25.084-25.084v-55.182a5.02 5.02 0 0 0-5.018-5.015zM292.865 75.865H42.044c-13.83 0-25.084 11.25-25.084 25.08v100.327c0 13.83 11.254 25.084 25.084 25.084h110.364a5.015 5.015 0 0 0 5.014-5.01v-45.153h20.065v45.153a5.015 5.015 0 0 0 5.015 5.01h110.363c13.83 0 25.084-11.254 25.084-25.084V100.945c0-13.83-11.25-25.08-25.084-25.08zm15.047 125.407c0 8.304-6.749 15.053-15.048 15.053H187.52v-40.132c0-5.531-4.496-10.032-10.032-10.032h-20.065c-5.532 0-10.033 4.501-10.033 10.032v40.132H42.044c-8.298 0-15.047-6.749-15.047-15.053V100.945c0-8.298 6.75-15.047 15.047-15.047h25.083v115.374a5.016 5.016 0 1 0 10.029 0V85.898h180.598v115.374a5.015 5.015 0 1 0 10.03 0V85.898h25.084c8.298 0 15.047 6.75 15.047 15.047l-.003 100.327z"/><path d="M172.622 246.421a5.021 5.021 0 0 0-5.02-5.02h-.05c-2.766 0-4.993 2.253-4.993 5.02 0 2.773 2.277 5.019 5.043 5.019a5.015 5.015 0 0 0 5.02-5.019z"/><path d="M152.407 236.393a5.017 5.017 0 0 0-5.02 5.01v15.057c0 5.532 4.501 10.027 10.037 10.027h20.062c5.536 0 10.032-4.495 10.032-10.027v-15.057a5.013 5.013 0 0 0-5.019-5.01 5.015 5.015 0 0 0-5.015 5.01v15.057h-20.062v-15.057a5.015 5.015 0 0 0-5.015-5.01z"/></g></svg>