<svg xmlns="http://www.w3.org/2000/svg" width="334.643" height="334.645" viewBox="0 0 334.643 334.645"><g fill="#565656"><path d="M182.501 35.73h-30.094c-13.83 0-25.084 11.254-25.084 25.084a5.02 5.02 0 0 0 5.015 5.018 5.02 5.02 0 0 0 5.018-5.018c0-8.298 6.753-15.047 15.051-15.047h30.094c8.298 0 15.056 6.75 15.056 15.047a5.015 5.015 0 1 0 10.029 0c-.001-13.829-11.251-25.084-25.085-25.084zm0 0"/><path d="M112.273 65.832a5.02 5.02 0 0 0 5.018-5.018c0-18.045 17.068-35.113 35.117-35.113h30.094c18.385 0 35.117 16.732 35.117 35.113a5.019 5.019 0 0 0 5.014 5.018 5.018 5.018 0 0 0 5.019-5.018c0-24.049-21.101-45.149-45.149-45.149h-30.094c-23.626 0-45.149 21.523-45.149 45.149a5.014 5.014 0 0 0 5.013 5.018zm0 0M312.931 231.374a5.023 5.023 0 0 0-5.019 5.015v55.182c0 8.298-6.749 15.047-15.047 15.047H42.044c-8.298 0-15.047-6.749-15.047-15.047v-55.182a5.023 5.023 0 0 0-5.019-5.015 5.023 5.023 0 0 0-5.018 5.019v55.178c0 13.834 11.254 25.084 25.084 25.084h250.822c13.834 0 25.084-11.25 25.084-25.084v-55.182a5.021 5.021 0 0 0-5.019-5.015zm0 0M292.865 75.865H42.044c-13.83 0-25.084 11.25-25.084 25.08v100.327c0 13.83 11.254 25.084 25.084 25.084h110.364a5.015 5.015 0 0 0 5.014-5.01v-45.153h20.066v45.153a5.015 5.015 0 0 0 5.014 5.01h110.364c13.83 0 25.084-11.254 25.084-25.084V100.945c-.001-13.83-11.251-25.08-25.085-25.08zm15.047 125.407c0 8.303-6.749 15.052-15.047 15.052H187.52v-40.131c0-5.532-4.496-10.033-10.032-10.033h-20.066c-5.532 0-10.033 4.501-10.033 10.033v40.131H42.044c-8.298 0-15.047-6.749-15.047-15.052V100.945c0-8.298 6.75-15.047 15.047-15.047h25.083v115.374a5.015 5.015 0 1 0 10.029 0V85.898h180.597v115.374a5.014 5.014 0 1 0 10.029 0V85.898h25.084c8.298 0 15.047 6.75 15.047 15.047v100.327zm0 0"/><path d="M172.622 246.421a5.02 5.02 0 0 0-5.019-5.019h-.05c-2.766 0-4.993 2.253-4.993 5.019 0 2.774 2.277 5.019 5.043 5.019a5.015 5.015 0 0 0 5.019-5.019zm0 0"/><path d="M152.407 236.393a5.016 5.016 0 0 0-5.019 5.01v15.056c0 5.532 4.501 10.028 10.037 10.028h20.062c5.536 0 10.032-4.496 10.032-10.028v-15.056a5.013 5.013 0 0 0-5.019-5.01 5.015 5.015 0 0 0-5.014 5.01v15.056h-20.062v-15.056a5.018 5.018 0 0 0-5.017-5.01zm0 0"/></g></svg>