<svg xmlns="http://www.w3.org/2000/svg" width="334.643" height="334.645" viewBox="0 0 334.643 334.645"><path fill="#565656" d="M167.713 313.165h-.07a6.288 6.288 0 0 1-5.203-2.862L80.595 183.959c-.511-.851-.912-1.424-1.247-1.905l-.556-.809c-9.333-16.115-13.959-33.767-13.959-52.809-.245-28.948 10.082-53.97 30.687-74.325 20.318-20.317 45.237-30.632 74.038-30.632 28.715 0 53.702 10.306 74.272 30.632 20.369 20.372 30.685 45.369 30.685 74.325 0 19.614-4.875 37.684-14.495 53.716l-87.112 128.265a6.294 6.294 0 0 1-5.195 2.748zm1.844-277.13c-25.349 0-47.282 9.079-65.184 26.985-18.125 17.905-27.197 39.888-26.985 65.36 0 17.095 3.952 32.203 12.069 46.239.675.949 1.232 1.75 1.795 2.7l76.583 118.211 81.603-120.142c8.241-13.751 12.521-29.652 12.521-46.951 0-25.505-9.08-47.516-26.986-65.417-18.109-17.898-40.124-26.985-65.416-26.985z"/><path fill="#565656" d="M168.638 185.203c-14.733 0-27.476-5.268-37.874-15.673-10.416-10.683-15.667-23.476-15.667-38.1 0-14.724 5.271-27.467 15.667-37.868 10.134-10.387 22.577-15.68 36.928-15.68l1.054.008.835-.008c14.249 0 26.752 5.271 37.155 15.676 10.397 10.405 15.669 23.148 15.669 37.872 0 14.625-5.251 27.417-15.615 38.051-10.728 10.47-23.524 15.722-38.152 15.722zm-.144-94.757c-11.812 0-20.958 3.91-28.793 11.938-8.122 8.131-12.049 17.61-12.049 29.046 0 11.385 3.942 20.972 12.049 29.283 8.013 8.007 17.497 11.925 28.937 11.925 11.393 0 20.968-3.942 29.273-12.04 7.996-8.196 11.938-17.783 11.938-29.168 0-11.436-3.927-20.915-11.996-28.993-8.073-8.073-17.323-12-28.272-12-.073.004-.973.021-1.055.008l-.032.001z"/></svg>