<svg xmlns="http://www.w3.org/2000/svg" width="334.643" height="334.645" viewBox="0 0 334.643 334.645"><path fill="#565656" d="M308.669 200.236c-.173 0-.345-.009-.521-.017a6.605 6.605 0 0 1-6.067-6.121c-.22-3.085-.666-6.171-1.299-8.913-1.813-6.422-5.402-12.456-10.594-17.648-7.668-7.668-16.681-11.398-27.555-11.398-8.571 0-15.985 2.235-22.669 6.844-.428.282-.653.558-1.031.927a5.98 5.98 0 0 1-.807.688c-1.367.98-2.555 1.951-3.525 2.931-6.593 6.593-10.508 13.985-11.988 22.634a6.597 6.597 0 0 1-6.502 5.483h-.053a6.596 6.596 0 0 1-6.467-5.587c-1.496-9.636-5.847-18.103-12.924-25.187-7.574-7.367-16.639-11.552-26.881-12.387-1.624-.248-2.708-.214-3.589-.214-9.997 0-18.106 2.459-25.268 7.513a8.777 8.777 0 0 1-.833.499c-.507.258-.621.361-.741.481a6.573 6.573 0 0 1-.837.706c-1.407.997-2.803 2.208-4.006 3.403-7.049 7.273-11.51 15.654-13.182 24.86-.577 3.138-3.12 5.398-6.516 5.416a6.604 6.604 0 0 1-6.478-5.467c-1.479-8.434-5.265-15.697-11.575-22.221-7.59-7.591-16.684-11.322-27.722-11.322-11.196 0-20.372 3.73-28.041 11.398-6.266 6.481-9.962 13.848-11.222 22.461-.499 3.431-3.593 5.871-7.006 5.631a6.61 6.61 0 0 1-6.121-6.585v-1.22c-.258-4.677-.485-9-.485-13.565 0-41.277 14.829-77.163 44.072-106.651 29.527-29.282 65.413-44.111 106.686-44.111 41.368 0 77.178 14.832 106.431 44.09 29.417 29.415 44.331 65.307 44.331 106.672 0 3.319-.246 6.636-.504 9.955-.554 4.004-1.319 7.581-2.088 10.898a6.598 6.598 0 0 1-6.423 5.124zm-142.952-61.169c2.012 0 3.847.035 5.681.326 12.839 1.023 24.643 6.457 34.536 16.084 4.28 4.271 7.778 8.939 10.494 13.968 2.396-3.997 5.339-7.753 8.829-11.243 1.328-1.333 2.913-2.683 4.748-4.023.887-.859 1.578-1.47 2.525-2.115 8.783-6.043 18.928-9.129 30.103-9.129 14.351 0 26.764 5.141 36.89 15.267a59.801 59.801 0 0 1 4.599 5.174c-2.312-33.473-15.49-61.853-40.101-86.454-26.687-26.695-59.355-40.229-97.096-40.229-38.2 0-70.045 13.165-97.355 40.247-23.6 23.801-36.632 51.089-39.568 83.049a52.334 52.334 0 0 1 1.586-1.71c10.208-10.203 22.783-15.344 37.453-15.344 14.51 0 27.005 5.141 37.135 15.267 3.434 3.549 6.293 7.272 8.601 11.191 2.716-4.883 6.171-9.49 10.34-13.789 1.745-1.736 3.567-3.3 5.36-4.607.954-.877 1.977-1.599 3.218-2.268 9.25-6.412 20.022-9.662 32.022-9.662z"/><path fill="#565656" d="M129.373 310.971c-12.108 0-22.402-4.161-30.593-12.361-8.355-8.354-12.589-18.645-12.589-30.584a6.598 6.598 0 0 1 13.194 0c0 8.312 2.941 15.464 8.73 21.266 5.704 5.709 12.657 8.477 21.258 8.477 8.317 0 15.387-2.855 21.018-8.484 4.745-4.753 7.546-10.222 8.561-16.703.193-1.341.167-2.938.167-4.555 0-2.09.223-4.179.481-6.035V150.276a6.6 6.6 0 0 1 6.598-6.602 6.6 6.6 0 0 1 6.599 6.602v112.178c0 .311-.023.619-.064.929-.203 1.41-.417 3.026-.417 4.643 0 2.268-.026 4.537-.311 6.515-1.452 9.293-5.578 17.365-12.279 24.069-8.197 8.2-18.409 12.361-30.353 12.361z"/></svg>