<svg xmlns="http://www.w3.org/2000/svg" width="334.643" height="334.645" viewBox="0 0 334.643 334.645"><path fill="#FFF" d="M245.134 288.148H122.897c-15.865 0-24.606-8.742-24.606-24.606v-112.57a5.265 5.265 0 0 1 5.27-5.263 5.266 5.266 0 0 1 5.27 5.263v112.569c0 9.991 4.076 14.073 14.067 14.073h122.237c9.991 0 14.066-4.082 14.066-14.073V150.972a5.266 5.266 0 0 1 5.27-5.263 5.266 5.266 0 0 1 5.271 5.263v112.569c-.001 15.865-8.744 24.607-24.608 24.607zM201.039 131.286a5.24 5.24 0 0 1-4.151-2.018c-14.053-17.937-14.053-36.903 0-54.847a5.257 5.257 0 0 1 7.391-.899 5.264 5.264 0 0 1 .898 7.397c-11.026 14.084-11.026 27.773 0 41.857a5.265 5.265 0 0 1-.898 7.397 5.218 5.218 0 0 1-3.24 1.113zM153.459 81.585a5.273 5.273 0 0 1-4.179-2.048c-13.168-17.058-13.223-35.939-.144-54.593a5.27 5.27 0 0 1 8.633 6.045c-10.458 14.917-10.505 28.693-.144 42.111a5.264 5.264 0 0 1-.954 7.387 5.245 5.245 0 0 1-3.212 1.098z"/><path fill="#FFF" d="M100.651 259.327h-2.704c-13.264 0-24.668-4.68-33.897-13.922-9.236-9.229-13.923-20.634-13.923-33.891 0-13.258 4.687-24.661 13.923-33.896 9.202-9.21 20.482-13.752 33.465-13.738 1.407-.221 2.731-.18 4.186.109a5.268 5.268 0 0 1 4.11 6.215 5.265 5.265 0 0 1-6.21 4.118c-.274-.055-.329-.055-.604 0a4.789 4.789 0 0 1-1.139.096c-10.066-.247-19.021 3.309-26.356 10.636-7.294 7.301-10.835 15.954-10.835 26.46s3.541 19.158 10.835 26.445c7.288 7.287 15.934 10.835 26.446 10.835h2.704a5.265 5.265 0 1 1-.001 10.533zM154.606 131.491a5.197 5.197 0 0 1-2.972-.933 5.262 5.262 0 0 1-1.365-7.321c9.792-14.263 9.792-28.13 0-42.393a5.266 5.266 0 0 1 1.365-7.325 5.264 5.264 0 0 1 7.321 1.363c12.194 17.769 12.194 36.55 0 54.318a5.28 5.28 0 0 1-4.349 2.291zM264.47 152.379H103.945a5.272 5.272 0 0 1-5.271-5.27c0-2.91 2.361-5.27 5.271-5.27H264.47c2.91 0 5.271 2.36 5.271 5.27a5.272 5.272 0 0 1-5.271 5.27zM270.276 310.971H99.498a5.272 5.272 0 0 1-5.27-5.271 5.264 5.264 0 0 1 5.27-5.261h170.778a5.265 5.265 0 1 1 0 10.532z"/></svg>