<svg xmlns="http://www.w3.org/2000/svg" width="334.643" height="334.645" viewBox="0 0 334.643 334.645"><path fill="#FFF" d="M166.867 306.656a6.65 6.65 0 0 1-4.705-11.357l2.227-2.227c43.707-43.706 87.413-87.412 131.371-130.876 3.882-4.497 7.589-10.111 10.689-16.313 4.211-9.087 6.386-19.397 6.386-30.477 0-20.168-6.869-36.841-21.009-50.975-14.13-14.134-30.807-21.008-50.966-21.008-20.169 0-36.846 6.875-50.975 21.008-7.503 7.502-13.082 15.854-16.581 24.816a6.651 6.651 0 0 1-6.056 4.232c-2.808-.017-5.146-1.516-6.229-3.976-4.159-9.473-9.772-17.673-17.171-25.072-14.13-14.134-30.802-21.008-50.971-21.008-20.164 0-36.836 6.875-50.97 21.008-14.299 14.295-21.251 30.972-21.251 50.975 0 11.21 2.239 21.476 6.653 30.529a70.232 70.232 0 0 0 10.764 16.633 6.642 6.642 0 0 1-.658 9.374 6.635 6.635 0 0 1-9.383-.659c-5.202-5.986-9.486-12.596-12.739-19.648-5.246-10.751-7.936-22.983-7.936-36.229 0-23.382 8.46-43.698 25.141-60.383 16.525-16.521 36.84-24.898 60.378-24.898 23.547 0 43.858 8.378 60.379 24.898a95.853 95.853 0 0 1 13.662 17.201c3.673-6.09 8.203-11.842 13.559-17.201 16.521-16.521 36.835-24.898 60.383-24.898 23.538 0 43.854 8.378 60.375 24.898 16.521 16.521 24.906 36.836 24.906 60.383 0 13.029-2.6 25.228-7.711 36.238-3.672 7.39-8.013 13.939-12.978 19.639-44.277 43.819-87.966 87.509-131.664 131.197l-2.219 2.227a6.67 6.67 0 0 1-4.701 1.949z"/><path fill="#FFF" d="M166.867 306.656a6.582 6.582 0 0 1-4.688-1.94l-44.047-43.854c-29.91-29.803-59.777-59.561-89.756-89.206a6.656 6.656 0 0 1-.052-9.409 6.66 6.66 0 0 1 9.409-.051c29.988 29.654 59.868 59.43 89.786 89.24l44.036 43.854c2.607 2.582 2.616 6.792.026 9.408a6.664 6.664 0 0 1-4.714 1.958z"/></svg>