<svg xmlns="http://www.w3.org/2000/svg" width="334.643" height="334.645" viewBox="0 0 334.643 334.645"><g fill="#565656"><path d="M44.769 211.636h89.069c6.14 0 11.135-4.989 11.135-11.131v-22.271c0-6.138-4.995-11.135-11.135-11.135H72.602a5.569 5.569 0 0 0-5.564 5.57 5.568 5.568 0 0 0 5.564 5.564h61.236v22.271H44.769v-22.271h5.567a5.569 5.569 0 0 0 5.564-5.564V83.601a5.573 5.573 0 0 0-5.564-5.57 5.57 5.57 0 0 0-5.567 5.57v83.5c-6.14 0-11.135 4.998-11.135 11.135v22.271c0 6.14 4.996 11.129 11.135 11.129zM111.737 226.987l-5.564 22.267a5.574 5.574 0 0 0 4.047 6.753c.457.111.907.162 1.358.162a5.567 5.567 0 0 0 5.395-4.216l5.567-22.258a5.572 5.572 0 0 0-4.05-6.757c-2.979-.748-6.001 1.067-6.753 4.049z"/><path d="M44.769 66.901h61.236a5.566 5.566 0 0 0 0-11.131H44.769V33.5h89.069v22.27h-5.565a5.57 5.57 0 0 0-5.569 5.563v89.07a5.568 5.568 0 0 0 11.134 0V66.901c6.14 0 11.135-4.995 11.135-11.133v-22.27c0-6.139-4.995-11.134-11.135-11.134H44.769c-6.14 0-11.135 4.995-11.135 11.134v22.27c0 6.139 4.996 11.133 11.135 11.133zM150.539 100.301h133.604a5.568 5.568 0 0 0 5.564-5.567 5.568 5.568 0 0 0-5.564-5.564H150.539a5.569 5.569 0 0 0-5.565 5.564 5.568 5.568 0 0 0 5.565 5.567zM168.87 224.399l-22.267 22.271a5.553 5.553 0 0 0 0 7.867 5.528 5.528 0 0 0 3.935 1.632 5.535 5.535 0 0 0 3.936-1.632l22.267-22.262a5.564 5.564 0 0 0 0-7.876 5.556 5.556 0 0 0-7.871 0zM60.115 222.938c-2.979.743-4.79 3.768-4.048 6.757l5.565 22.258a5.576 5.576 0 0 0 5.396 4.216c.451 0 .901-.051 1.356-.162a5.574 5.574 0 0 0 4.049-6.753l-5.566-22.267a5.564 5.564 0 0 0-6.752-4.049z"/><path d="M323.11 78.031h-11.131c-6.142 0-11.135 4.996-11.135 11.138v27.833a5.564 5.564 0 0 0 5.565 5.564 5.569 5.569 0 0 0 5.568-5.564V89.168h11.131v55.668h-11.131v-5.569a5.571 5.571 0 0 0-5.568-5.564h-155.87a5.567 5.567 0 0 0 0 11.133h150.305c0 6.142 4.993 11.131 11.135 11.131h11.131c6.143 0 11.136-4.989 11.136-11.131V89.168c-.002-6.141-4.995-11.137-11.136-11.137z"/><g><path d="M161.672 267.307H16.934c-9.207 0-16.7 7.491-16.7 16.7v22.266a5.572 5.572 0 0 0 5.567 5.569h167.006a5.572 5.572 0 0 0 5.565-5.569v-22.266c0-9.209-7.492-16.7-16.7-16.7zm5.567 33.399H11.371v-16.699c0-3.067 2.497-5.57 5.563-5.57h144.738c3.065 0 5.566 2.503 5.566 5.57v16.699h.001zM24.135 254.535a5.528 5.528 0 0 0 3.932 1.632c1.43 0 2.852-.542 3.938-1.632a5.57 5.57 0 0 0 0-7.876l-22.268-22.26a5.556 5.556 0 0 0-7.871 0 5.565 5.565 0 0 0 0 7.876l22.269 22.26z"/></g></g></svg>