<svg xmlns="http://www.w3.org/2000/svg" width="334.643" height="334.645" viewBox="0 0 334.643 334.645"><g fill="#fff"><path d="M98.702 314.252H36.015c-8.638 0-15.672-7.029-15.672-15.678V37.388c0-8.642 7.034-15.674 15.672-15.674h62.688a5.222 5.222 0 0 0 5.223-5.227 5.221 5.221 0 0 0-5.223-5.221H36.015c-14.403 0-26.121 11.718-26.121 26.121v261.187c0 14.405 11.718 26.128 26.121 26.128h62.688a5.227 5.227 0 0 0 5.223-5.226 5.22 5.22 0 0 0-5.224-5.224zM208.403 288.134a5.216 5.216 0 0 0 5.222 5.216h73.138a5.22 5.22 0 0 0 5.226-5.216V47.835a5.225 5.225 0 0 0-5.226-5.227h-73.134a5.22 5.22 0 0 0-5.226 5.227 5.22 5.22 0 0 0 5.226 5.223h67.908V282.91h-67.908a5.216 5.216 0 0 0-5.226 5.224z"/><path d="M218.849 262.016h36.568a5.225 5.225 0 0 0 5.221-5.229 5.22 5.22 0 0 0-5.221-5.222h-36.568a5.221 5.221 0 0 0-5.222 5.222 5.225 5.225 0 0 0 5.222 5.229zM218.849 199.329h36.568a5.225 5.225 0 0 0 5.221-5.227 5.221 5.221 0 0 0-5.221-5.226h-36.568a5.222 5.222 0 0 0-5.222 5.226 5.225 5.225 0 0 0 5.222 5.227zM218.849 241.115h36.568c2.889 0 5.221-2.338 5.221-5.222s-2.332-5.226-5.221-5.226h-36.568c-2.889 0-5.222 2.342-5.222 5.226s2.333 5.222 5.222 5.222zM218.849 220.222h36.568a5.218 5.218 0 0 0 5.221-5.226 5.221 5.221 0 0 0-5.221-5.222h-36.568a5.222 5.222 0 0 0-5.222 5.222 5.22 5.22 0 0 0 5.222 5.226zM83.031 162.76a5.225 5.225 0 0 0 0 10.448h.216c.433 5.763 1.572 11.119 3.271 15.868l-1.328 1.326a5.228 5.228 0 0 0 3.69 8.929c.836 0 1.64-.276 2.396-.674 3.449 5.133 7.78 8.782 12.648 10.307v.809a5.22 5.22 0 0 0 5.225 5.227 5.222 5.222 0 0 0 5.222-5.227v-.809c4.902-1.533 9.261-5.221 12.727-10.414.797.454 1.659.781 2.56.781a5.223 5.223 0 0 0 3.689-1.528 5.23 5.23 0 0 0 0-7.39l-1.503-1.516c1.664-4.702 2.781-10.002 3.207-15.689h.215a5.224 5.224 0 0 0 0-10.448h-.215c-.425-5.653-1.521-10.914-3.169-15.595l1.465-1.469a5.233 5.233 0 0 0 0-7.392c-1.683-1.692-4.207-1.896-6.195-.797-3.468-5.242-7.848-8.962-12.78-10.509v-.812a5.225 5.225 0 0 0-10.448 0V127c-4.898 1.538-9.252 5.218-12.718 10.403-1.958-.995-4.382-.74-6.022.902a5.217 5.217 0 0 0 0 7.385l1.297 1.295c-1.688 4.73-2.812 10.055-3.241 15.771h-.21l.001.004zm14.374-15.078c.013-.014.013-.028.021-.042 3.087-6.894 7.539-11 11.725-11 7.413 0 15.669 12.872 15.669 31.346 0 18.473-8.256 31.345-15.669 31.345-7.415 0-15.674-12.872-15.674-31.345 0-8.028 1.563-14.988 3.928-20.304zM177.059 298.574V37.388c0-2.886-2.332-5.226-5.221-5.226s-5.227 2.339-5.227 5.226v261.187c0 2.89 2.338 5.227 5.227 5.227s5.221-2.338 5.221-5.228z"/><path d="M297.207 11.268h-83.58a5.22 5.22 0 0 0-5.226 5.221 5.221 5.221 0 0 0 5.226 5.227h83.58c8.642 0 15.672 7.032 15.672 15.674v261.187c0 8.647-7.03 15.678-15.672 15.678h-83.58c-2.894 0-5.226 2.337-5.226 5.221s2.332 5.226 5.226 5.226h83.58c14.399 0 26.123-11.718 26.123-26.123V37.388c0-14.405-11.722-26.12-26.123-26.12zM109.151 178.432a5.227 5.227 0 0 0 5.224-5.226V162.76a5.225 5.225 0 1 0-10.449 0v10.446a5.225 5.225 0 0 0 5.225 5.226z"/><path d="M195.063 22.261l-20.888-10.444a5.235 5.235 0 0 0-3.608-.393L45.197 42.766a5.223 5.223 0 0 0-3.957 5.069v26.118h-5.225a5.221 5.221 0 0 0-5.221 5.226v41.79a5.22 5.22 0 0 0 5.221 5.221H56.91a5.22 5.22 0 0 0 5.223-5.221v-41.79a5.223 5.223 0 0 0-5.223-5.226h-5.226V51.915L171.23 22.028l16.275 8.143v275.628l-16.275 8.137-119.545-29.887v-6.366c0-2.879-2.333-5.226-5.221-5.226s-5.223 2.347-5.223 5.226v10.451c0 .141.069.253.081.393.028.364.105.692.211 1.042.091.313.177.612.328.902.152.299.35.562.553.822.21.271.408.515.661.733.245.216.517.379.807.542.304.184.601.342.949.453.133.047.222.142.369.179l125.376 31.344c.411.103.837.153 1.263.153a5.34 5.34 0 0 0 2.337-.547l20.888-10.451a5.23 5.23 0 0 0 2.895-4.674V26.94a5.244 5.244 0 0 0-2.896-4.679zM51.685 115.745H41.24V84.399h10.443l.002 31.346z"/><path d="M46.464 136.64a5.221 5.221 0 0 0-5.223 5.223v67.913h-5.226a5.217 5.217 0 0 0-5.221 5.222v41.789a5.224 5.224 0 0 0 5.221 5.229H56.91a5.226 5.226 0 0 0 5.223-5.229v-41.789a5.22 5.22 0 0 0-5.223-5.222h-5.226v-67.913a5.218 5.218 0 0 0-5.22-5.223zm5.221 114.925H41.24v-31.343h10.443l.002 31.343z"/></g></svg>