<svg xmlns="http://www.w3.org/2000/svg" width="334.643" height="334.645" viewBox="0 0 334.643 334.645"><path d="M332.337 66.379c.031-.122.085-.262.085-.394.021-.405 0-.813-.054-1.24v-.293a5.358 5.358 0 0 0-.564-1.58c-.054-.113-.104-.189-.162-.28v-.045s-.026 0-.026-.027c-.051-.055-.081-.136-.109-.193a5.48 5.48 0 0 0-1.232-1.261c-.075-.081-.212-.107-.319-.188a5.847 5.847 0 0 0-1.291-.642c-.217-.054-.43-.081-.618-.135a5.88 5.88 0 0 0-1.236-.107c-.218 0-.43.021-.646.054-.137.027-.268 0-.43.027L6.382 126.073a5.527 5.527 0 0 0-4.329 4.623c-.32 2.285.835 4.542 2.875 5.645l91.494 48.254 16.066 89.051c-.031.081 0 .149 0 .199a5.487 5.487 0 0 0 0 1.331c.027.212.055.42.108.628.108.528.325 1.012.591 1.453.05.122.05.227.108.298.032.022.049.056.077.082.081.09.163.186.238.267.275.339.547.633.845.862.045.067.1.112.152.148.086.063.163.063.244.116.349.24.705.411 1.043.564.167.067.298.117.461.176.483.122.988.239 1.509.239h.026c.022 0 .045-.026.077-.026.082.026.19.026.262.026 1.535 0 2.908-.713 3.933-1.742l60.948-40.625 63.803 41.479a5.559 5.559 0 0 0 3.012.889 5.72 5.72 0 0 0 1.742-.298 5.379 5.379 0 0 0 3.413-3.311l77.017-208.988c.059-.199.107-.406.166-.597.023-.081.023-.167.05-.244a.518.518 0 0 0 .024-.193zm-63.717 35.118l-131.979 97.051c-.217.162-.402.361-.591.532a.557.557 0 0 1-.189.188c-.136.136-.212.285-.32.407-.113.145-.186.271-.271.415-.208.324-.38.659-.506 1.034-.027.065-.081.121-.081.192-.032.022-.054.022-.054.046l-15.124 49.176-11.981-66.512 161.096-82.529zM128.041 261.122l14.992-49.537 23.339 15.183 6.69 4.338-22.699 15.143-22.322 14.873zM288.339 79.038L101.42 174.78l-77.792-41.021 264.711-54.721zm-41.185 187.1l-84.749-55.103-12.843-8.325L315.448 80.731l-68.294 185.407z" fill="#565656"/></svg>