<svg xmlns="http://www.w3.org/2000/svg" width="334.643" height="334.645" viewBox="0 0 334.643 334.645"><path d="M315.042 96.709L185.253 41.082c-11.409-4.891-24.503-4.882-35.927.008L19.568 96.7c-7.515 3.224-12.187 10.305-12.187 18.485 0 8.168 4.667 15.246 12.182 18.47l15.337 6.573a4.541 4.541 0 0 0-.024.483v72.58c-5.931 2.004-10.212 7.613-10.212 14.213a14.93 14.93 0 0 0 3.805 9.968c-2.616 2.563-4.353 6.036-4.709 9.98l-3.674 40.418a9.905 9.905 0 0 0 2.545 7.567 9.925 9.925 0 0 0 7.306 3.225h19.449a9.916 9.916 0 0 0 7.304-3.225 9.91 9.91 0 0 0 2.547-7.567l-3.676-40.418a15.895 15.895 0 0 0-4.711-9.98 14.927 14.927 0 0 0 3.811-9.968c0-6.6-4.286-12.209-10.213-14.213v-68.97l26.188 11.219a4.56 4.56 0 0 0-.021.482v36.548c0 15.25 10.438 29.358 29.406 39.728 18.049 9.872 41.938 15.309 67.277 15.309 25.335 0 49.231-5.437 67.277-15.309 18.966-10.368 29.411-24.478 29.411-39.728v-36.548c0-.158-.017-.325-.027-.482l51.072-21.887c7.516-3.22 12.185-10.305 12.185-18.478.002-8.173-4.663-15.251-12.174-18.466zM49.626 288.985c-.099.108-.202.108-.239.108H29.938c-.042 0-.142 0-.236-.108-.097-.104-.085-.208-.083-.24l3.674-40.428a6.368 6.368 0 0 1 6.373-5.814c3.326 0 6.064 2.5 6.367 5.814l3.676 40.428c.001.032.009.135-.083.24zm-9.962-56.056c-2.993 0-5.429-2.437-5.429-5.423a5.433 5.433 0 0 1 5.429-5.424 5.432 5.432 0 0 1 5.424 5.424 5.434 5.434 0 0 1-5.424 5.423zm214.749-60.778c0 12.375-10.186 24.459-27.946 33.153a4.795 4.795 0 0 0-2.199 6.406 4.801 4.801 0 0 0 6.408 2.192c9.854-4.819 17.745-10.696 23.368-17.229-1.786 10.098-10.172 19.637-24.057 27.234-16.666 9.109-38.927 14.13-62.687 14.13-23.758 0-46.02-5.021-62.685-14.13-13.835-7.564-22.207-17.07-24.043-27.127 4.837 5.578 11.366 10.682 19.449 15.104 18.049 9.864 41.943 15.304 67.277 15.304 7.09 0 14.158-.433 21.011-1.287 2.624-.323 4.482-2.716 4.166-5.336-.334-2.624-2.716-4.489-5.341-4.161-6.465.805-13.138 1.204-19.836 1.204-23.758 0-46.02-5.016-62.686-14.13-15.752-8.613-24.427-19.735-24.427-31.328v-12.509l69.16 29.637a45.616 45.616 0 0 0 17.947 3.666 45.766 45.766 0 0 0 17.979-3.674l69.14-29.629.002 12.51zm56.847-47.292l-129.756 55.61c-9.026 3.865-19.374 3.874-28.386.008l-99.17-42.5 90.864-15.8c4.09 4.832 12.415 8.002 22.487 8.002 14.371 0 25.21-6.448 25.21-14.992 0-8.556-10.839-15.004-25.21-15.004-13.053 0-23.189 5.323-24.938 12.7L38.844 130.886a4.855 4.855 0 0 0-.873.242l-14.637-6.273c-3.995-1.712-6.377-5.328-6.377-9.668 0-4.349 2.385-7.973 6.383-9.688l129.756-55.61a36.16 36.16 0 0 1 14.211-2.899c4.842 0 9.674.963 14.177 2.892l129.785 55.626c3.99 1.712 6.377 5.324 6.377 9.672s-2.387 7.963-6.386 9.679zm-159.597-9.672c0-1.398 5.377-5.428 15.637-5.428s15.638 4.028 15.638 5.428c0 1.392-5.378 5.423-15.638 5.423s-15.637-4.032-15.637-5.423z" fill="#565656"/><path d="M203.031 223.244c.358 0 .727-.037 1.083-.125a138.908 138.908 0 0 0 10.581-2.884 4.786 4.786 0 1 0-2.892-9.126 129.49 129.49 0 0 1-9.843 2.684 4.794 4.794 0 0 0-3.587 5.74 4.793 4.793 0 0 0 4.658 3.711z" fill="#565656"/></svg>