<svg xmlns="http://www.w3.org/2000/svg" width="334.643" height="334.645" viewBox="0 0 334.643 334.645"><g fill="#fff"><path d="M248.581 172.69c-20.15 0-36.794 15.124-39.234 34.617h-54.764v-30.29c5.148-1.282 9.591-4.546 12.396-9.277l63.915-108.1c3.745-6.309 3.793-13.871.172-20.25-3.626-6.366-10.168-10.159-17.516-10.159h-11.235c-2.797-5.856-8.691-9.911-15.576-9.911-7.9 0-27.226 6.061-27.226 17.325 0 11.226 19.326 17.32 27.226 17.32 8.695 0 15.843-6.476 17.053-14.862h9.759c3.721 0 7.052 1.935 8.91 5.194 1.839 3.235 1.82 7.109-.096 10.311l-63.917 108.113a10.18 10.18 0 0 1-8.815 5.018c-3.671 0-6.959-1.882-8.867-5.065L75.061 54.609c-1.908-3.202-1.935-7.076-.1-10.311 1.863-3.259 5.196-5.194 8.917-5.194h11.571c1.229 8.386 8.381 14.862 17.077 14.862 7.9 0 27.2-6.094 27.2-17.32 0-11.264-19.3-17.325-27.2-17.325-6.883 0-12.803 4.055-15.581 9.911H83.878c-7.321 0-13.868 3.793-17.513 10.159-3.624 6.38-3.552 13.942.214 20.298l65.707 108.076c2.804 4.708 7.247 7.971 12.396 9.253v30.29h-44.525c-30.001 0-54.423 24.424-54.423 54.428s24.422 54.424 54.423 54.424c30.004 0 54.426-24.42 54.426-54.424v-44.522h54.764c2.44 19.493 19.084 34.636 39.234 34.636 21.809 0 39.566-17.754 39.566-39.591.001-21.815-17.757-39.569-39.566-39.569zM186.739 44.054c-6.123 0-16.624-4.903-17.32-7.409.696-2.535 11.197-7.414 17.32-7.414 4.083 0 7.419 3.307 7.419 7.414-.001 4.079-3.336 7.409-7.419 7.409zm-74.212-14.823c6.113 0 16.62 4.879 17.299 7.414-.679 2.506-11.186 7.409-17.299 7.409a7.416 7.416 0 0 1-7.417-7.409 7.402 7.402 0 0 1 7.417-7.414zm32.155 232.504c0 24.563-19.979 44.518-44.525 44.518-24.543 0-44.518-19.955-44.518-44.518 0-24.543 19.974-44.522 44.518-44.522h44.525v44.522zm103.899-19.788c-16.382 0-29.694-13.308-29.694-29.689 0-16.353 13.313-29.685 29.694-29.685 16.353 0 29.685 13.332 29.685 29.685 0 16.381-13.332 29.689-29.685 29.689zm0 0"/><path d="M248.581 192.474c-10.922 0-19.784 8.862-19.784 19.783s8.862 19.788 19.784 19.788c10.921 0 19.783-8.867 19.783-19.788s-8.862-19.783-19.783-19.783zm0 29.689c-5.461 0-9.906-4.446-9.906-9.906 0-5.456 4.445-9.878 9.906-9.878 5.46 0 9.882 4.422 9.882 9.878 0 5.46-4.422 9.906-9.882 9.906zm0 0"/></g></svg>