<svg xmlns="http://www.w3.org/2000/svg" width="334.643" height="334.645" viewBox="0 0 334.643 334.645"><g fill="#565656"><path d="M642.501 60.814h-30.094c-13.83 0-25.084 11.254-25.084 25.084a5.02 5.02 0 0 0 5.015 5.018 5.02 5.02 0 0 0 5.019-5.018c0-8.298 6.753-15.047 15.051-15.047h30.094c8.298 0 15.056 6.75 15.056 15.047a5.015 5.015 0 1 0 10.029 0c-.002-13.829-11.252-25.084-25.086-25.084zm0 0"/><path d="M572.273 90.916a5.02 5.02 0 0 0 5.018-5.018c0-18.045 17.068-35.113 35.117-35.113h30.094c18.385 0 35.117 16.732 35.117 35.113a5.019 5.019 0 0 0 5.014 5.018 5.018 5.018 0 0 0 5.019-5.018c0-24.049-21.101-45.149-45.149-45.149h-30.094c-23.627 0-45.149 21.523-45.149 45.149a5.014 5.014 0 0 0 5.013 5.018zm0 0M772.931 256.458a5.023 5.023 0 0 0-5.019 5.015v55.182c0 8.298-6.749 15.047-15.047 15.047H502.044c-8.299 0-15.048-6.749-15.048-15.047v-55.182c0-2.766-2.253-5.015-5.019-5.015s-5.018 2.249-5.018 5.019v55.178c0 13.834 11.254 25.084 25.084 25.084h250.821c13.834 0 25.084-11.25 25.084-25.084v-55.182a5.018 5.018 0 0 0-5.017-5.015zm0 0M752.865 100.949H502.044c-13.83 0-25.084 11.25-25.084 25.08v100.327c0 13.83 11.254 25.084 25.084 25.084h110.363a5.015 5.015 0 0 0 5.014-5.01v-45.153h20.066v45.153a5.015 5.015 0 0 0 5.014 5.01h110.364c13.83 0 25.084-11.254 25.084-25.084V126.029c0-13.83-11.25-25.08-25.084-25.08zm15.047 125.407c0 8.303-6.749 15.052-15.047 15.052H647.52v-40.131c0-5.532-4.496-10.033-10.032-10.033h-20.066c-5.531 0-10.032 4.501-10.032 10.033v40.131H502.044c-8.299 0-15.048-6.749-15.048-15.052V126.029c0-8.298 6.749-15.047 15.048-15.047h25.083v115.374a5.015 5.015 0 1 0 10.029 0V110.982h180.598v115.374a5.014 5.014 0 1 0 10.029 0V110.982h25.084c8.298 0 15.047 6.75 15.047 15.047v100.327zm0 0"/><path d="M632.622 271.505a5.02 5.02 0 0 0-5.019-5.019h-.05c-2.766 0-4.993 2.253-4.993 5.019 0 2.774 2.277 5.019 5.043 5.019a5.015 5.015 0 0 0 5.019-5.019zm0 0"/><path d="M612.407 261.477a5.016 5.016 0 0 0-5.019 5.01v15.056c0 5.532 4.501 10.028 10.037 10.028h20.062c5.536 0 10.032-4.496 10.032-10.028v-15.056a5.013 5.013 0 0 0-5.019-5.01 5.015 5.015 0 0 0-5.014 5.01v15.056h-20.062v-15.056a5.02 5.02 0 0 0-5.017-5.01zm0 0"/></g><g fill="#565656"><path d="M248.581 172.69c-20.15 0-36.794 15.124-39.234 34.617h-54.764v-30.29c5.148-1.282 9.591-4.546 12.396-9.277l63.915-108.1c3.745-6.309 3.793-13.871.172-20.25-3.626-6.366-10.168-10.159-17.516-10.159h-11.235c-2.797-5.856-8.691-9.911-15.576-9.911-7.9 0-27.226 6.061-27.226 17.325 0 11.226 19.326 17.32 27.226 17.32 8.695 0 15.843-6.476 17.053-14.862h9.759c3.721 0 7.052 1.935 8.91 5.194 1.839 3.235 1.82 7.109-.096 10.311l-63.917 108.113a10.18 10.18 0 0 1-8.815 5.018c-3.671 0-6.959-1.882-8.867-5.065L75.061 54.609c-1.908-3.202-1.935-7.076-.1-10.311 1.863-3.259 5.196-5.194 8.917-5.194h11.571c1.229 8.386 8.381 14.862 17.077 14.862 7.9 0 27.2-6.094 27.2-17.32 0-11.264-19.3-17.325-27.2-17.325-6.883 0-12.803 4.055-15.581 9.911H83.878c-7.321 0-13.868 3.793-17.513 10.159-3.624 6.38-3.552 13.942.214 20.298l65.707 108.076c2.804 4.708 7.247 7.971 12.396 9.253v30.29h-44.525c-30.001 0-54.423 24.424-54.423 54.428s24.422 54.424 54.423 54.424c30.004 0 54.426-24.42 54.426-54.424v-44.522h54.764c2.44 19.493 19.084 34.636 39.234 34.636 21.809 0 39.566-17.754 39.566-39.591.001-21.815-17.757-39.569-39.566-39.569zM186.739 44.054c-6.123 0-16.624-4.903-17.32-7.409.696-2.535 11.197-7.414 17.32-7.414 4.083 0 7.419 3.307 7.419 7.414-.001 4.079-3.336 7.409-7.419 7.409zm-74.212-14.823c6.113 0 16.62 4.879 17.299 7.414-.679 2.506-11.186 7.409-17.299 7.409a7.416 7.416 0 0 1-7.417-7.409 7.402 7.402 0 0 1 7.417-7.414zm32.155 232.504c0 24.563-19.979 44.518-44.525 44.518-24.543 0-44.518-19.955-44.518-44.518 0-24.543 19.974-44.522 44.518-44.522h44.525v44.522zm103.899-19.788c-16.382 0-29.694-13.308-29.694-29.689 0-16.353 13.313-29.685 29.694-29.685 16.353 0 29.685 13.332 29.685 29.685 0 16.381-13.332 29.689-29.685 29.689zm0 0"/><path d="M248.581 192.474c-10.922 0-19.784 8.862-19.784 19.783s8.862 19.788 19.784 19.788c10.921 0 19.783-8.867 19.783-19.788s-8.862-19.783-19.783-19.783zm0 29.689c-5.461 0-9.906-4.446-9.906-9.906 0-5.456 4.445-9.878 9.906-9.878 5.46 0 9.882 4.422 9.882 9.878 0 5.46-4.422 9.906-9.882 9.906zm0 0"/></g></svg>