<svg xmlns="http://www.w3.org/2000/svg" width="83" height="23" viewBox="0 0 83 23"><path fill-rule="evenodd" clip-rule="evenodd" fill="#FED302" d="M8 0h75l-4 23-79-5L8 0z"/><g fill="#3CBCD4"><path d="M12.954 13.683l1.059-.205V6.334l-1.059-.205V4.926h7.922v2.728h-1.531l-.088-1.189h-3.248v2.741h3.486v1.538h-3.486v2.734l1.066.205v1.196h-4.121v-1.196zM30.426 9.978c0 1.458-.417 2.664-1.251 3.616s-1.926 1.429-3.274 1.429c-1.345 0-2.431-.476-3.257-1.429-.828-.953-1.241-2.158-1.241-3.616v-.15c0-1.449.412-2.652 1.237-3.609s1.909-1.436 3.254-1.436c1.349 0 2.441.479 3.277 1.436.837.957 1.255 2.16 1.255 3.609v.15zm-1.989-.165c0-1.03-.214-1.866-.643-2.509s-1.062-.964-1.9-.964-1.464.32-1.877.958c-.412.638-.618 1.477-.618 2.516v.164c0 1.048.208 1.893.626 2.533.416.64 1.042.96 1.876.96.843 0 1.477-.32 1.9-.96s.636-1.484.636-2.533v-.165zM35.696 4.926c1.13 0 2.017.259 2.659.776s.964 1.231.964 2.143c0 .501-.135.937-.403 1.306s-.663.667-1.183.896c.588.173 1.011.461 1.268.865.258.403.387.903.387 1.5v.506c0 .219.043.389.13.509s.23.192.431.215l.246.034v1.203h-1.032c-.651 0-1.109-.175-1.374-.526s-.396-.804-.396-1.36v-.567c0-.483-.129-.862-.387-1.138-.257-.276-.62-.42-1.09-.434h-1.634v2.625l1.066.205v1.196h-4.122v-1.196l1.06-.205V6.334l-1.06-.205V4.926H35.696zm-1.415 4.388h1.381c.556 0 .973-.119 1.251-.355s.417-.579.417-1.025-.138-.803-.413-1.07c-.276-.267-.683-.4-1.221-.4h-1.415v2.85zM44.282 14.879v-1.196l1.06-.205V6.334l-1.06-.205V4.926h4.122v1.203l-1.066.205v7.014h2.81l.096-1.251h1.524v2.782h-7.486zM52.479 6.129V4.926h4.122v1.203l-1.066.205v7.144l1.066.205v1.196h-4.122v-1.196l1.066-.205V6.334l-1.066-.205zM57.36 13.683l1.06-.205V6.334l-1.06-.205V4.926h7.923v2.728h-1.531l-.089-1.189h-3.247v2.741h3.486v1.538h-3.486v2.734l1.066.205v1.196H57.36v-1.196zM72.433 10.504h-3.37v2.844h3.213l.089-1.189h1.518v2.721h-7.875v-1.196l1.06-.205V6.334l-1.06-.205V4.926h7.862v2.728h-1.531l-.089-1.189h-3.186v2.502h3.37v1.537z"/></g></svg>