<?xml version="1.0" encoding="utf-8"?>
<!-- Generator: Adobe Illustrator 16.0.0, SVG Export Plug-In . SVG Version: 6.00 Build 0)  -->
<!DOCTYPE svg PUBLIC "-//W3C//DTD SVG 1.1//EN" "http://www.w3.org/Graphics/SVG/1.1/DTD/svg11.dtd">
<svg version="1.1" id="Слой_1" xmlns="http://www.w3.org/2000/svg" xmlns:xlink="http://www.w3.org/1999/xlink" x="0px" y="0px"
	 width="83px" height="23px" viewBox="0 0 83 23" enable-background="new 0 0 83 23" xml:space="preserve">
<path fill-rule="evenodd" clip-rule="evenodd" fill="#FED302" d="M8,0h75l-4,23L0,18L8,0z"/>
<g>
	<path fill="#3CBCD4" d="M12.954,13.683l1.059-0.205V6.334l-1.059-0.205V4.926h7.922v2.728h-1.531l-0.088-1.189h-3.248v2.741h3.486
		v1.538h-3.486v2.734l1.066,0.205v1.196h-4.121V13.683z"/>
	<path fill="#3CBCD4" d="M30.426,9.978c0,1.458-0.417,2.664-1.251,3.616s-1.926,1.429-3.274,1.429c-1.345,0-2.431-0.476-3.257-1.429
		c-0.828-0.953-1.241-2.158-1.241-3.616v-0.15c0-1.449,0.412-2.652,1.237-3.609s1.909-1.436,3.254-1.436
		c1.349,0,2.441,0.479,3.277,1.436c0.837,0.957,1.255,2.16,1.255,3.609V9.978z M28.437,9.813c0-1.03-0.214-1.866-0.643-2.509
		s-1.062-0.964-1.9-0.964S24.43,6.66,24.017,7.298c-0.412,0.638-0.618,1.477-0.618,2.516v0.164c0,1.048,0.208,1.893,0.626,2.533
		c0.416,0.64,1.042,0.96,1.876,0.96c0.843,0,1.477-0.32,1.9-0.96s0.636-1.484,0.636-2.533V9.813z"/>
	<path fill="#3CBCD4" d="M35.696,4.926c1.13,0,2.017,0.259,2.659,0.776s0.964,1.231,0.964,2.143c0,0.501-0.135,0.937-0.403,1.306
		s-0.663,0.667-1.183,0.896c0.588,0.173,1.011,0.461,1.268,0.865c0.258,0.403,0.387,0.903,0.387,1.5v0.506
		c0,0.219,0.043,0.389,0.13,0.509s0.23,0.192,0.431,0.215l0.246,0.034v1.203h-1.032c-0.651,0-1.109-0.175-1.374-0.526
		s-0.396-0.804-0.396-1.36v-0.567c0-0.483-0.129-0.862-0.387-1.138c-0.257-0.276-0.62-0.42-1.09-0.434h-1.634v2.625l1.066,0.205
		v1.196h-4.122v-1.196l1.06-0.205V6.334l-1.06-0.205V4.926h1.06H35.696z M34.281,9.314h1.381c0.556,0,0.973-0.119,1.251-0.355
		S37.33,8.38,37.33,7.934s-0.138-0.803-0.413-1.07c-0.276-0.267-0.683-0.4-1.221-0.4h-1.415V9.314z"/>
	<path fill="#3CBCD4" d="M44.282,14.879v-1.196l1.06-0.205V6.334l-1.06-0.205V4.926h1.06h1.996h1.066v1.203l-1.066,0.205v7.014h2.81
		l0.096-1.251h1.524v2.782H44.282z"/>
	<path fill="#3CBCD4" d="M52.479,6.129V4.926h4.122v1.203l-1.066,0.205v7.144l1.066,0.205v1.196h-4.122v-1.196l1.066-0.205V6.334
		L52.479,6.129z"/>
	<path fill="#3CBCD4" d="M57.36,13.683l1.06-0.205V6.334l-1.06-0.205V4.926h7.923v2.728h-1.531l-0.089-1.189h-3.247v2.741h3.486
		v1.538h-3.486v2.734l1.066,0.205v1.196H57.36V13.683z"/>
	<path fill="#3CBCD4" d="M72.433,10.504h-3.37v2.844h3.213l0.089-1.189h1.518v2.721h-7.875v-1.196l1.06-0.205V6.334l-1.06-0.205
		V4.926h1.06h6.802v2.728h-1.531l-0.089-1.189h-3.186v2.502h3.37V10.504z"/>
</g>
</svg>
