<svg xmlns="http://www.w3.org/2000/svg" width="143.693" height="143.723" viewBox="0 0 143.693 143.723"><g fill="#fff"><path d="M71.918 0c39.633.102 70.27 31.604 71.711 68.484.821 21.028-6.091 39.215-20.923 54.143-13.971 14.06-31.099 21.115-50.899 21.096-20.047-.021-37.231-7.337-51.335-21.611C9.206 110.708 2.381 96.919.562 81.064-2.14 57.532 4.904 37.096 21.817 20.313 34.956 7.274 53.146-.022 71.918 0zm19.603 9.336c-26.388-8.71-60.517.732-77.247 31.104-15.844 28.763-7.967 66.031 20.588 85.68 27.627 19.011 65.217 13.912 87.225-12.004 20.586-24.242 18.646-57.547 5.232-77.023-.088.228-.203.411-.229.607-.358 2.899-1.638 5.43-3.512 7.563-2.612 2.975-5.385 5.816-8.204 8.597-2.159 2.129-4.896 3.225-7.881 3.684-3.88.599-7.762 1.174-11.639 1.785-.582.092-1.143.32-2.04.58 3.259 1.578 4.295 4.146 4.521 7.154.087 1.15.677 1.556 1.75 1.535 1.45-.026 2.906-.082 4.353-.001 2.599.146 5.195 2.021 5.819 3.957 1.242 3.854-.022 7.133-2.357 10.101-1.178 1.497-2.612 2.791-3.931 4.179-1.822 1.917-3.662 3.818-5.456 5.763-.789.854-.753 1.673.148 2.551 2.991 2.912 2.649 7.313-.758 9.749-.929.664-1.979 1.174-3.021 1.66-4.572 2.135-3.878 1.06-4.803 6.117-1.047 5.725-4.267 9.457-9.729 11.298-1.208.406-2.459.702-3.707.97-4.958 1.058-8.81-.646-11.269-5.004-1.67-2.961-3.035-6.107-4.342-9.252-.452-1.09-.451-2.429-.422-3.647.066-2.714 1.205-5.138 2.421-7.49.627-1.215.494-1.984-.63-2.783-1.646-1.171-2.975-2.628-3.866-4.515-1.105-2.337-2.438-4.564-3.605-6.875-.633-1.252-1.518-1.391-2.748-1.024-1.634.483-3.287.938-4.962 1.235-3.865.686-7.539.41-10.359-2.782-1.591-1.802-2.987-3.779-3.396-6.2-.35-2.082-.538-4.204-.622-6.316-.183-4.601 1.028-8.939 2.597-13.221 2.021-5.513 5.775-9.313 11.177-11.448 2.17-.856 4.438-1.556 6.727-1.997 4.056-.783 7.9-.259 11.213 2.536.875.738 1.89 1.317 2.871 1.919 3.104 1.904 6.507 2.214 10.014 1.72 1.823-.258 3.253-1.276 4.253-2.814 1.832-2.821 1.904-5.758.451-8.763-.699-1.445-1.842-2.181-3.45-2.236-1.49-.053-2.989-.074-4.472-.236-2.87-.313-4.888-2.089-5.589-4.885-.866-3.452-.32-6.648 2.098-9.335a28.872 28.872 0 0 1 3.937-3.64c3.76-2.869 8.021-4.854 12.348-6.697 1.403-.604 2.821-1.166 4.503-1.856zm2.87 90.477c-.178-.242-.263-.386-.373-.506-2.837-3.085-3.11-6.583-.759-10.026.456-.668.948-1.322 1.499-1.912 2.385-2.551 4.804-5.069 7.196-7.612.574-.61 1.254-1.197 1.604-1.93.396-.827.479-1.806.695-2.718-1.017-.135-2.061-.492-3.041-.363-3.203.421-6.888-1.126-8.348-3.868-.479-.9-.62-2.02-.754-3.061-.15-1.18-.557-1.953-1.69-2.592-1.533-.864-3.018-1.961-3.343-3.955-.471-2.868.667-5.297 3.268-6.607 1.018-.514 2.123-.954 3.238-1.158 3.271-.598 6.551-1.229 9.855-1.532 4.211-.391 7.719-1.978 10.504-5.154 1.688-1.924 3.397-3.826 5.055-5.775 1.28-1.508 1.961-3.297 2.111-5.264.156-2.041.281-4.086.351-6.133.014-.408-.19-.916-.465-1.229-5.571-6.313-12.119-11.378-19.647-15.154-.438-.221-1.094-.275-1.561-.128-6.114 1.931-12.139 4.127-17.688 7.37-2.261 1.321-4.353 2.993-6.306 4.745-.746.67-1.016 1.982-1.269 3.058-.208.88.304 1.438 1.325 1.376.723-.043 1.451.002 2.176.026 5.7.195 9.121 2.851 10.715 8.338.214.735.36 1.494.477 2.252 1.089 7.177-3.419 14.188-10.297 15.464-2.666.493-5.53.326-8.254.015-4.021-.46-7.318-2.709-10.472-5.092-1.121-.848-2.322-1.215-3.694-1.156-3.852.164-7.408 1.33-10.552 3.502-1.292.892-2.538 2.121-3.283 3.482-2.71 4.946-4.127 10.241-3.452 15.955.226 1.903.418 3.8 1.61 5.438 1.057 1.452 2.595 2.138 4.332 1.787 2.873-.578 5.746-1.157 8.626-1.701 1.926-.363 4.177.735 5.138 2.4.339.587.797 1.104 1.162 1.678 1.087 1.71 2.428 3.324 3.157 5.177.895 2.265 2.151 4.03 4.029 5.578 2.777 2.29 3.24 4.803 1.879 8.152-.546 1.343-1.275 2.62-1.72 3.993-.359 1.109-.849 2.459-.526 3.459 1.071 3.319 2.29 6.65 4.634 9.332.589.673 1.747 1.187 2.645 1.186 2.378-.002 4.601-.795 6.635-2.071 1.245-.78 2.167-1.805 2.536-3.243.412-1.61.87-3.219 1.138-4.854.558-3.41 2.535-5.589 5.627-6.9a84.723 84.723 0 0 0 2.923-1.304c.45-.213.869-.489 1.354-.765z"/><path d="M91.521 9.336c-1.683.69-3.101 1.252-4.502 1.851-4.327 1.843-8.588 3.828-12.348 6.696a28.933 28.933 0 0 0-3.937 3.641c-2.418 2.687-2.964 5.883-2.098 9.335.701 2.796 2.719 4.57 5.589 4.885 1.481.162 2.98.185 4.472.236 1.608.057 2.752.791 3.45 2.235 1.453 3.006 1.381 5.941-.451 8.764-1 1.538-2.43 2.558-4.253 2.814-3.507.494-6.908.186-10.014-1.72-.98-.602-1.996-1.181-2.871-1.919-3.313-2.795-7.157-3.319-11.213-2.536-2.287.441-4.557 1.14-6.727 1.997-5.4 2.135-9.155 5.936-11.177 11.448-1.567 4.28-2.778 8.62-2.597 13.221.084 2.112.272 4.234.622 6.316.407 2.421 1.805 4.398 3.396 6.199 2.82 3.193 6.494 3.469 10.359 2.783 1.675-.297 3.328-.752 4.962-1.235 1.23-.365 2.115-.228 2.748 1.024 1.167 2.311 2.5 4.538 3.605 6.875.893 1.886 2.22 3.343 3.866 4.515 1.124.799 1.257 1.568.63 2.783-1.216 2.354-2.354 4.776-2.421 7.49-.029 1.22-.03 2.558.422 3.647 1.307 3.145 2.672 6.291 4.342 9.252 2.459 4.358 6.311 6.062 11.269 5.004 1.248-.268 2.499-.563 3.707-.971 5.463-1.84 8.683-5.572 9.729-11.297.925-5.059.229-3.982 4.803-6.117 1.04-.486 2.092-.996 3.021-1.66 3.407-2.437 3.749-6.837.758-9.749-.901-.878-.938-1.696-.148-2.552 1.794-1.942 3.634-3.845 5.456-5.762 1.317-1.388 2.753-2.682 3.931-4.179 2.335-2.968 3.601-6.245 2.357-10.102-.624-1.937-3.222-3.811-5.819-3.956-1.445-.081-2.901-.025-4.353.001-1.073.021-1.663-.385-1.75-1.535-.228-3.011-1.264-5.576-4.521-7.154.897-.26 1.458-.488 2.04-.58 3.877-.611 7.76-1.188 11.639-1.785 2.984-.459 5.722-1.555 7.881-3.684 2.819-2.779 5.592-5.622 8.204-8.598 1.874-2.134 3.152-4.663 3.512-7.563.024-.196.141-.381.229-.607 13.412 19.478 15.354 52.781-5.232 77.023-22.008 25.916-59.597 31.015-87.225 12.004C6.307 106.47-1.57 69.202 14.274 40.438 31.005 10.068 65.134.626 91.521 9.336zm-80.7 64.851c-.037 1.587.74 2.467 3.146 2.681 1.153.104 2.346-1.019 2.419-2.163.201-3.128.24-6.286.719-9.375 1.729-11.169 6.02-21.229 13.607-29.712 1.979-2.214 4.313-4.117 6.532-6.11 1.423-1.277 1.748-2.785.732-4.031-1.021-1.255-2.632-1.371-4.063-.201-1.453 1.188-2.917 2.376-4.247 3.695-12.317 12.216-18.018 27.255-18.845 45.216zM53.329 18.38c.001-1.8-1.671-3.094-3.524-2.386-1.9.728-3.729 1.679-5.5 2.688-1.374.782-1.622 2.311-.818 3.676.811 1.376 2.136 1.705 3.628.929 1.551-.806 3.097-1.622 4.677-2.364 1.069-.503 1.487-1.336 1.537-2.543z"/><path d="M94.391 99.813c-.483.275-.903.553-1.354.764-.966.453-1.939.888-2.922 1.304-3.093 1.313-5.07 3.49-5.628 6.9-.268 1.636-.726 3.243-1.138 4.854-.369 1.438-1.291 2.463-2.536 3.243-2.034 1.276-4.257 2.069-6.635 2.071-.896.001-2.056-.513-2.645-1.186-2.344-2.682-3.563-6.013-4.634-9.332-.321-1 .167-2.35.526-3.459.443-1.373 1.174-2.65 1.72-3.993 1.361-3.351.898-5.862-1.879-8.152-1.878-1.548-3.136-3.313-4.029-5.578-.729-1.853-2.07-3.467-3.157-5.177-.365-.574-.823-1.091-1.162-1.678-.961-1.665-3.212-2.765-5.137-2.4-2.881.544-5.754 1.123-8.627 1.701-1.737.351-3.275-.335-4.331-1.787-1.193-1.64-1.387-3.535-1.611-5.438-.675-5.714.742-11.009 3.452-15.955.745-1.361 1.992-2.592 3.284-3.482 3.143-2.172 6.699-3.338 10.551-3.502 1.372-.059 2.574.31 3.694 1.156 3.152 2.383 6.451 4.632 10.472 5.092 2.724.313 5.588.479 8.254-.015 6.878-1.275 11.386-8.287 10.297-15.464a17.567 17.567 0 0 0-.476-2.252c-1.595-5.487-5.016-8.143-10.716-8.338-.725-.024-1.453-.069-2.176-.026-1.021.062-1.533-.496-1.325-1.376.253-1.074.521-2.388 1.269-3.058 1.953-1.752 4.045-3.424 6.306-4.745 5.55-3.243 11.573-5.439 17.688-7.371.467-.146 1.123-.092 1.561.129 7.528 3.776 14.076 8.841 19.647 15.154.273.313.479.819.465 1.229a139.48 139.48 0 0 1-.351 6.133c-.15 1.967-.831 3.756-2.111 5.264-1.656 1.949-3.367 3.853-5.055 5.775-2.785 3.178-6.293 4.765-10.504 5.154-3.306.305-6.586.936-9.855 1.532-1.115.204-2.222.646-3.238 1.158-2.601 1.312-3.737 3.739-3.268 6.607.325 1.994 1.81 3.091 3.343 3.955 1.135.639 1.54 1.412 1.69 2.592.134 1.041.273 2.159.755 3.061 1.459 2.742 5.144 4.289 8.347 3.868.98-.129 2.024.229 3.041.363-.218.912-.299 1.891-.695 2.718-.351.731-1.029 1.318-1.604 1.93-2.394 2.543-4.813 5.063-7.196 7.612a16.034 16.034 0 0 0-1.499 1.912c-2.353 3.443-2.078 6.941.759 10.026.11.121.195.264.373.507zM10.821 74.187c.827-17.961 6.527-33 18.846-45.218 1.33-1.319 2.794-2.509 4.247-3.695 1.433-1.17 3.042-1.054 4.063.201 1.016 1.246.689 2.754-.732 4.031-2.22 1.993-4.553 3.896-6.532 6.11-7.589 8.481-11.879 18.543-13.607 29.712-.479 3.089-.518 6.247-.719 9.375-.073 1.146-1.266 2.267-2.419 2.163-2.406-.213-3.185-1.093-3.147-2.679zM53.329 18.38c-.051 1.207-.469 2.04-1.539 2.542-1.58.742-3.126 1.56-4.677 2.364-1.492.776-2.817.447-3.628-.929-.804-1.365-.556-2.894.818-3.676 1.771-1.01 3.6-1.961 5.5-2.688 1.855-.707 3.527.587 3.526 2.387z"/></g></svg>