<svg xmlns="http://www.w3.org/2000/svg" width="143.694" height="143.722" viewBox="0 0 143.694 143.722"><g clip-rule="evenodd"><path d="M71.918 0c39.633.101 70.27 31.604 71.711 68.484.821 21.028-6.091 39.215-20.923 54.143-13.97 14.059-31.098 21.115-50.899 21.095-20.047-.021-37.232-7.337-51.335-21.611C9.206 110.708 2.381 96.919.562 81.064-2.14 57.532 4.904 37.096 21.817 20.313 34.956 7.274 53.146-.022 71.918 0zm19.603 9.336c-26.388-8.71-60.517.732-77.247 31.103-15.844 28.763-7.967 66.031 20.588 85.68 27.627 19.011 65.216 13.912 87.224-12.004 20.586-24.242 18.646-57.547 5.233-77.023-.088.227-.204.411-.229.607-.358 2.899-1.638 5.43-3.512 7.563-2.612 2.975-5.384 5.817-8.204 8.597-2.159 2.129-4.896 3.225-7.881 3.684-3.879.598-7.761 1.174-11.638 1.785-.582.092-1.143.32-2.04.58 3.258 1.578 4.295 4.145 4.521 7.154.087 1.151.677 1.556 1.75 1.535 1.45-.026 2.906-.082 4.353-.001 2.598.146 5.195 2.021 5.819 3.957 1.242 3.855-.022 7.133-2.357 10.101-1.178 1.497-2.613 2.791-3.931 4.179-1.822 1.917-3.662 3.818-5.456 5.762-.789.854-.753 1.673.148 2.551 2.992 2.912 2.65 7.313-.757 9.749-.929.664-1.98 1.174-3.021 1.66-4.572 2.135-3.878 1.06-4.803 6.118-1.047 5.724-4.266 9.457-9.729 11.297-1.208.407-2.459.703-3.707.97-4.958 1.058-8.81-.645-11.269-5.004-1.67-2.961-3.035-6.107-4.342-9.252-.452-1.09-.451-2.428-.421-3.647.066-2.714 1.205-5.138 2.42-7.49.627-1.215.495-1.985-.629-2.784-1.647-1.171-2.975-2.628-3.867-4.514-1.105-2.337-2.438-4.565-3.605-6.875-.633-1.252-1.518-1.391-2.748-1.025-1.634.484-3.287.939-4.962 1.236-3.865.685-7.539.41-10.359-2.783-1.591-1.801-2.988-3.779-3.396-6.2-.35-2.082-.538-4.204-.622-6.316-.183-4.601 1.028-8.94 2.597-13.221 2.021-5.513 5.775-9.313 11.176-11.448 2.17-.857 4.439-1.556 6.727-1.997 4.056-.783 7.9-.259 11.213 2.536.875.738 1.89 1.317 2.871 1.919 3.104 1.904 6.507 2.214 10.014 1.72 1.823-.258 3.253-1.277 4.253-2.815 1.832-2.821 1.904-5.758.451-8.763-.699-1.445-1.842-2.18-3.45-2.236-1.491-.053-2.99-.074-4.472-.236-2.87-.314-4.888-2.089-5.589-4.885-.866-3.452-.32-6.648 2.098-9.335a28.928 28.928 0 0 1 3.936-3.64c3.76-2.869 8.021-4.854 12.348-6.697 1.403-.6 2.821-1.162 4.503-1.852zm2.87 90.477c-.178-.242-.263-.386-.373-.506-2.837-3.085-3.111-6.583-.759-10.026.456-.668.948-1.322 1.499-1.912 2.385-2.551 4.804-5.069 7.196-7.612.575-.611 1.254-1.198 1.604-1.93.396-.827.478-1.806.695-2.718-1.016-.135-2.06-.492-3.041-.363-3.203.421-6.888-1.126-8.347-3.868-.48-.901-.621-2.02-.754-3.061-.151-1.18-.557-1.953-1.691-2.592-1.533-.864-3.017-1.961-3.343-3.955-.47-2.868.667-5.297 3.268-6.607 1.018-.514 2.123-.954 3.238-1.158 3.271-.598 6.551-1.229 9.856-1.533 4.211-.39 7.718-1.977 10.504-5.154 1.687-1.924 3.397-3.826 5.054-5.775 1.281-1.508 1.961-3.297 2.112-5.264.156-2.041.281-4.086.35-6.133.014-.408-.19-.916-.465-1.228-5.571-6.314-12.119-11.378-19.647-15.155-.438-.22-1.094-.275-1.561-.128-6.114 1.931-12.138 4.127-17.688 7.371-2.261 1.321-4.353 2.993-6.306 4.745-.746.67-1.015 1.982-1.268 3.057-.208.88.303 1.438 1.325 1.376.723-.043 1.451.002 2.176.027 5.7.195 9.121 2.85 10.715 8.338.213.735.36 1.494.476 2.252 1.089 7.176-3.419 14.188-10.297 15.463-2.666.494-5.53.327-8.254.015-4.02-.46-7.318-2.709-10.471-5.092-1.121-.847-2.323-1.215-3.695-1.156-3.851.164-7.408 1.33-10.551 3.502-1.292.892-2.539 2.121-3.284 3.482-2.71 4.947-4.127 10.242-3.452 15.955.226 1.904.418 3.8 1.611 5.439 1.056 1.452 2.594 2.138 4.332 1.787 2.873-.578 5.746-1.157 8.626-1.701 1.925-.363 4.176.735 5.137 2.4.339.587.797 1.104 1.162 1.678 1.087 1.71 2.428 3.324 3.158 5.177.894 2.264 2.151 4.03 4.029 5.578 2.777 2.29 3.24 4.803 1.879 8.152-.546 1.343-1.276 2.62-1.72 3.993-.359 1.11-.849 2.459-.526 3.459 1.071 3.32 2.29 6.651 4.633 9.332.589.673 1.748 1.187 2.645 1.186 2.378-.002 4.601-.795 6.635-2.071 1.245-.781 2.167-1.805 2.536-3.244.412-1.61.87-3.218 1.138-4.854.557-3.41 2.535-5.589 5.627-6.9a83.828 83.828 0 0 0 2.922-1.304c.451-.212.87-.488 1.355-.764z" fill-rule="evenodd"/><path d="M91.521 9.336c-1.683.69-3.101 1.252-4.502 1.85-4.327 1.843-8.588 3.828-12.348 6.697a28.923 28.923 0 0 0-3.936 3.64c-2.418 2.687-2.964 5.883-2.098 9.335.701 2.796 2.719 4.57 5.589 4.885 1.481.162 2.98.184 4.472.236 1.608.057 2.751.791 3.45 2.236 1.453 3.005 1.381 5.941-.451 8.763-1 1.538-2.43 2.558-4.253 2.815-3.507.494-6.909.185-10.014-1.72-.981-.602-1.996-1.181-2.871-1.919-3.313-2.795-7.157-3.319-11.213-2.536-2.287.441-4.557 1.14-6.727 1.997-5.4 2.135-9.155 5.936-11.176 11.448-1.568 4.28-2.779 8.62-2.597 13.221.084 2.112.272 4.234.622 6.316.407 2.421 1.805 4.399 3.396 6.2 2.82 3.193 6.494 3.468 10.359 2.783 1.675-.297 3.328-.752 4.962-1.236 1.23-.365 2.115-.227 2.748 1.025 1.167 2.31 2.5 4.538 3.605 6.875.893 1.886 2.22 3.343 3.867 4.514 1.124.799 1.256 1.569.629 2.784-1.215 2.353-2.354 4.776-2.42 7.49-.03 1.22-.031 2.558.421 3.647 1.307 3.145 2.672 6.291 4.342 9.252 2.459 4.359 6.311 6.062 11.269 5.004 1.248-.267 2.499-.563 3.707-.97 5.463-1.84 8.682-5.573 9.729-11.297.925-5.059.23-3.983 4.803-6.118 1.04-.486 2.092-.996 3.021-1.66 3.407-2.436 3.749-6.837.757-9.749-.901-.878-.938-1.696-.148-2.551 1.794-1.943 3.634-3.845 5.456-5.762 1.317-1.388 2.753-2.682 3.931-4.179 2.335-2.968 3.6-6.245 2.357-10.101-.624-1.937-3.222-3.811-5.819-3.957-1.446-.081-2.902-.025-4.353.001-1.073.021-1.663-.384-1.75-1.535-.227-3.01-1.264-5.576-4.521-7.154.897-.26 1.458-.488 2.04-.58 3.877-.611 7.759-1.188 11.638-1.785 2.985-.459 5.722-1.555 7.881-3.684 2.82-2.779 5.592-5.622 8.204-8.597 1.874-2.134 3.153-4.664 3.512-7.563.024-.196.141-.381.229-.607 13.412 19.477 15.353 52.781-5.233 77.023-22.008 25.916-59.597 31.015-87.224 12.004C6.307 106.47-1.57 69.202 14.274 40.438 31.005 10.068 65.134.626 91.521 9.336zm-80.7 64.851c-.038 1.587.74 2.467 3.146 2.681 1.153.103 2.346-1.019 2.419-2.163.201-3.128.24-6.286.719-9.375 1.729-11.169 6.019-21.23 13.607-29.712 1.98-2.214 4.313-4.117 6.532-6.11 1.423-1.278 1.748-2.786.733-4.032-1.022-1.255-2.632-1.371-4.064-.201-1.453 1.188-2.917 2.376-4.247 3.695-12.317 12.217-18.018 27.256-18.845 45.217zM53.329 18.38c.001-1.8-1.671-3.094-3.524-2.386-1.9.727-3.729 1.679-5.5 2.688-1.374.783-1.622 2.311-.818 3.676.81 1.376 2.135 1.705 3.628.929 1.55-.806 3.096-1.622 4.676-2.364 1.07-.503 1.488-1.336 1.538-2.543z" fill="none"/><path d="M94.391 99.813c-.484.276-.903.553-1.354.764-.965.453-1.939.888-2.922 1.304-3.092 1.312-5.07 3.49-5.627 6.9-.268 1.636-.726 3.243-1.138 4.854-.369 1.439-1.291 2.463-2.536 3.244-2.034 1.276-4.257 2.069-6.635 2.071-.896.001-2.056-.513-2.645-1.186-2.343-2.681-3.562-6.012-4.633-9.332-.322-1 .167-2.349.526-3.459.443-1.373 1.174-2.65 1.72-3.993 1.361-3.35.898-5.862-1.879-8.152-1.878-1.548-3.136-3.314-4.029-5.578-.73-1.853-2.071-3.467-3.158-5.177-.365-.574-.823-1.091-1.162-1.678-.961-1.665-3.212-2.764-5.137-2.4-2.88.544-5.753 1.123-8.626 1.701-1.738.351-3.276-.335-4.332-1.787-1.193-1.64-1.386-3.535-1.611-5.439-.675-5.713.742-11.008 3.452-15.955.745-1.361 1.992-2.591 3.284-3.482 3.143-2.172 6.7-3.338 10.551-3.502 1.372-.059 2.574.31 3.695 1.156 3.152 2.383 6.451 4.632 10.471 5.092 2.724.313 5.588.479 8.254-.015 6.878-1.275 11.386-8.287 10.297-15.463a17.567 17.567 0 0 0-.476-2.252c-1.594-5.488-5.015-8.143-10.715-8.338-.725-.025-1.453-.07-2.176-.027-1.022.062-1.533-.496-1.325-1.376.253-1.074.521-2.387 1.268-3.057 1.953-1.752 4.045-3.424 6.306-4.745 5.55-3.244 11.573-5.44 17.688-7.371.467-.147 1.123-.092 1.561.128 7.528 3.777 14.076 8.841 19.647 15.155.274.312.479.819.465 1.228a141.038 141.038 0 0 1-.35 6.133c-.151 1.967-.831 3.756-2.112 5.264-1.656 1.949-3.367 3.852-5.054 5.775-2.786 3.178-6.293 4.765-10.504 5.154-3.306.305-6.586.936-9.856 1.533-1.115.204-2.221.645-3.238 1.158-2.601 1.311-3.737 3.739-3.268 6.607.326 1.994 1.81 3.091 3.343 3.955 1.135.639 1.54 1.412 1.691 2.592.133 1.041.273 2.159.754 3.061 1.459 2.742 5.144 4.289 8.347 3.868.981-.129 2.025.229 3.041.363-.218.912-.299 1.891-.695 2.718-.351.731-1.029 1.318-1.604 1.93-2.393 2.543-4.812 5.062-7.196 7.612a16.034 16.034 0 0 0-1.499 1.912c-2.353 3.443-2.078 6.941.759 10.026.109.12.194.263.372.506z" fill="none"/><path d="M10.821 74.187c.827-17.961 6.527-33 18.845-45.218 1.33-1.319 2.794-2.508 4.247-3.695 1.433-1.17 3.042-1.054 4.064.201 1.015 1.246.689 2.754-.733 4.032-2.219 1.993-4.552 3.896-6.532 6.11-7.589 8.481-11.879 18.543-13.607 29.712-.479 3.089-.518 6.247-.719 9.375-.073 1.145-1.266 2.266-2.419 2.163-2.405-.214-3.184-1.094-3.146-2.68zM53.329 18.38c-.05 1.207-.468 2.04-1.539 2.542-1.58.742-3.126 1.559-4.676 2.364-1.493.776-2.818.447-3.628-.929-.804-1.365-.556-2.893.818-3.676 1.771-1.009 3.6-1.961 5.5-2.688 1.854-.707 3.526.587 3.525 2.387z" fill-rule="evenodd"/></g></svg>