<svg xmlns="http://www.w3.org/2000/svg" width="67.113" height="143.723" viewBox="0 0 67.113 143.723"><path d="M56.854 102.182v10.466c0 12.877-10.437 23.307-23.308 23.307-12.873 0-23.307-10.43-23.307-23.307v-10.465C5.406 98.759 2.47 94.266 2.47 89.341v23.307c0 17.162 13.911 31.076 31.075 31.076 17.162 0 31.076-13.914 31.076-31.076V89.342c.002 4.924-2.936 9.417-7.767 12.84z"/><path d="M33.547 34.96c-17.164 0-31.075 13.914-31.075 31.08v23.304c0-1.849.546-3.603 1.317-5.295 1.27 3.34 3.509 6.365 6.451 8.917V66.04c0-12.875 10.434-23.311 23.307-23.311 12.871 0 23.308 10.437 23.308 23.311v26.924c2.94-2.552 5.181-5.577 6.449-8.916.773 1.692 1.319 3.446 1.319 5.294V66.04c0-17.166-13.915-31.08-31.076-31.08z"/><path d="M56.854 92.964v9.219c4.831-3.424 7.769-7.916 7.769-12.841 0-1.848-.546-3.602-1.319-5.294-1.27 3.338-3.509 6.364-6.45 8.916zM10.24 102.183v-9.219c-2.942-2.552-5.182-5.577-6.451-8.917-.771 1.692-1.317 3.446-1.317 5.294-.001 4.925 2.936 9.419 7.768 12.842z"/><path d="M33.547 108.765c9.284 0 17.612-2.549 23.308-6.583v-9.219c-5.658 4.908-13.963 8.032-23.308 8.032-9.344 0-17.648-3.124-23.307-8.03v9.219c5.695 4.033 14.022 6.581 23.307 6.581zM29.662 34.96s-1.054-6.515 9.063-13.109C48.845 15.255 52.241 6.794 52.32 0c2.875.312 8.417 0 8.417 0S58.92 14.707 45.2 23.311c-10.928 8.103-7.769 11.648-7.769 11.648h-7.769zM29.662 38.844h7.77V66.04h-7.77V38.844z"/></svg>