<svg xmlns="http://www.w3.org/2000/svg" width="67.113" height="143.722" viewBox="0 0 67.113 143.722"><path d="M56.854 102.182v10.466c0 12.877-10.436 23.307-23.307 23.307-12.873 0-23.307-10.43-23.307-23.307v-10.465c-4.833-3.423-7.769-7.917-7.769-12.841v23.306c0 17.162 13.912 31.076 31.076 31.076 17.162 0 31.076-13.914 31.076-31.076V89.342c0 4.924-2.938 9.417-7.769 12.84z"/><path d="M33.547 34.96c-17.164 0-31.076 13.914-31.076 31.08v23.303c0-1.848.546-3.602 1.318-5.294 1.269 3.339 3.509 6.365 6.451 8.917V66.04c0-12.875 10.434-23.311 23.307-23.311 12.871 0 23.307 10.437 23.307 23.311v26.924c2.941-2.552 5.181-5.578 6.449-8.916.774 1.692 1.32 3.446 1.32 5.294V66.04c0-17.166-13.915-31.08-31.076-31.08z"/><path d="M56.854 92.964v9.218c4.831-3.423 7.769-7.916 7.769-12.84 0-1.848-.546-3.602-1.32-5.294-1.269 3.338-3.508 6.364-6.449 8.916zM10.24 102.183v-9.218c-2.942-2.552-5.182-5.578-6.451-8.917-.771 1.692-1.318 3.446-1.318 5.294 0 4.924 2.937 9.418 7.769 12.841z"/><path d="M33.547 108.765c9.284 0 17.612-2.548 23.307-6.583v-9.218c-5.658 4.908-13.963 8.032-23.307 8.032s-17.649-3.124-23.307-8.03v9.218c5.695 4.033 14.022 6.581 23.307 6.581z"/><path d="M29.662 34.96s-1.054-6.515 9.063-13.11C48.845 15.255 52.241 6.794 52.32 0c2.875.311 8.417 0 8.417 0S58.92 14.707 45.2 23.311c-10.928 8.103-7.769 11.649-7.769 11.649h-7.769zM29.662 38.844h7.769V66.04h-7.769V38.844z" fill-rule="evenodd" clip-rule="evenodd"/></svg>