<svg xmlns="http://www.w3.org/2000/svg" width="334.643" height="334.645" viewBox="0 0 334.643 334.645"><path d="M330.596 218.062l-25.038-6.435 6.159-3.616a5.389 5.389 0 0 0 2.61-5.41c-.095-.707-.375-1.352-.724-1.941.603-1.021.896-2.225.724-3.459a5.383 5.383 0 0 0-3.997-4.472l-1.45-.375 7.853-4.604a5.402 5.402 0 0 0 2.615-5.41c-.101-.718-.38-1.351-.729-1.945.602-1.028.896-2.227.729-3.454a5.41 5.41 0 0 0-4.003-4.482l-3.766-.96 10.426-6.122a5.394 5.394 0 0 0 2.616-5.411c-.096-.712-.38-1.35-.723-1.942.601-1.026.896-2.227.723-3.457a5.39 5.39 0 0 0-4.003-4.479l-5.047-1.3 6.274-3.684a5.389 5.389 0 0 0 2.61-5.41c-.095-.712-.374-1.35-.723-1.943.602-1.027.896-2.226.723-3.457a5.39 5.39 0 0 0-3.997-4.477l-11.201-2.877 11.924-6.995a5.385 5.385 0 0 0 2.61-5.411c-.095-.712-.375-1.35-.723-1.943.602-1.025.896-2.226.723-3.457a5.384 5.384 0 0 0-3.997-4.475l-7.373-1.896 4.693-2.757a5.384 5.384 0 0 0 2.609-5.409c-.095-.713-.374-1.351-.722-1.943.601-1.025.896-2.226.722-3.457a5.384 5.384 0 0 0-3.997-4.477l-18.002-4.629 19.004-11.149a5.401 5.401 0 0 0 2.616-5.411c-.101-.712-.38-1.35-.729-1.943.602-1.025.896-2.225.729-3.457a5.405 5.405 0 0 0-4.003-4.478L114.082 1.934a5.438 5.438 0 0 0-3.683.369L28.666 41.598a5.404 5.404 0 0 0-3.046 5.292c.063.81.361 1.551.752 2.226a5.34 5.34 0 0 0-.746 3.169 5.4 5.4 0 0 0 3.833 4.752l19.765 5.93-20.177 9.698a5.406 5.406 0 0 0-3.045 5.287c.065.814.355 1.551.746 2.23a5.344 5.344 0 0 0-.746 3.17c.153 1.938 1.366 3.569 3.085 4.395L8.463 97.665a5.41 5.41 0 0 0-3.045 5.292c.066.817.356 1.55.746 2.23a5.35 5.35 0 0 0-.746 3.169 5.408 5.408 0 0 0 3.834 4.754l22.304 6.688a5.373 5.373 0 0 0-.817 3.257c.066.813.358 1.55.746 2.229a5.372 5.372 0 0 0-.746 3.169 5.393 5.393 0 0 0 3.834 4.751l5.795 1.74-6.426 3.088a5.406 5.406 0 0 0-3.045 5.292c.063.815.356 1.55.744 2.231a5.352 5.352 0 0 0-.744 3.169 5.398 5.398 0 0 0 3.834 4.754l5.146 1.543-11.211 5.373a5.404 5.404 0 0 0-3.046 5.29c.063.815.356 1.55.744 2.234a5.363 5.363 0 0 0-.744 3.164 5.403 5.403 0 0 0 3.834 4.757l2.608.78-8.414 4.04a5.407 5.407 0 0 0-3.046 5.283c.066.817.356 1.551.746 2.236a5.346 5.346 0 0 0-.746 3.164 5.407 5.407 0 0 0 3.834 4.757l6.001 1.793-27.374 13.17a5.409 5.409 0 0 0-3.046 5.29c.066.821.356 1.55.747 2.234a5.36 5.36 0 0 0-.747 3.164 5.408 5.408 0 0 0 3.834 4.758l31.311 9.387-1.379.665a5.413 5.413 0 0 0-3.045 5.289c.066.816.358 1.55.746 2.229a5.37 5.37 0 0 0-.746 3.169 5.398 5.398 0 0 0 3.834 4.752l5.795 1.74-6.426 3.09a5.398 5.398 0 0 0-3.045 5.289c.063.817.356 1.551.744 2.231a5.354 5.354 0 0 0-.744 3.169 5.4 5.4 0 0 0 3.834 4.751l201.261 60.371a5.358 5.358 0 0 0 4.281-.519l81.732-47.944a5.394 5.394 0 0 0 2.616-5.411c-.096-.712-.38-1.351-.723-1.94.601-1.028.896-2.226.723-3.459a5.395 5.395 0 0 0-4.003-4.478l-5.047-1.304 6.274-3.686a5.392 5.392 0 0 0 2.61-5.411c-.095-.712-.374-1.35-.723-1.945.602-1.022.896-2.226.723-3.454a5.386 5.386 0 0 0-3.997-4.478l-10.094-2.595 21.61-12.678a5.387 5.387 0 0 0 2.61-5.41c-.096-.713-.375-1.351-.723-1.94.601-1.028.896-2.226.723-3.459a5.353 5.353 0 0 0-3.987-4.467zm-14.412 57.872l-3.307 1.936-75.331 44.196-194.35-58.292-3.839-1.15-3.077-.928 11.76-5.653 3.607-1.729 3.312-1.593 3.077.929 3.834 1.139 173.957 52.187a5.618 5.618 0 0 0 1.551.222c.954 0 1.898-.253 2.73-.738l56.053-32.88 3.301-1.936 3.101-1.813 2.689.687 3.713.96 10.314 2.646-3.095 1.81zm-.158-20.272l-3.308 1.941-10.969 6.434-3.302 1.936-3.096 1.818-.211.122-3.102 1.813-3.301 1.936-51.358 30.133-168.29-50.483-3.839-1.149-3.077-.923-.757-.227-3.077-.924-3.833-1.148-11.47-3.438-3.834-1.154-3.08-.924 6.713-3.227 3.612-1.74 3.304-1.588 3.079.923 3.839 1.149 11.464 3.438 3.834 1.149 3.077.929.757.223 3.077.928 3.839 1.148 122.396 36.715a5.635 5.635 0 0 0 1.551.227c.949 0 1.895-.253 2.732-.743l11.416-6.697 3.181-1.866 2.911-1.703 2.558.765 3.533 1.065 12.967 3.892a5.472 5.472 0 0 0 4.287-.515l16.733-9.819 3.306-1.94 3.096-1.813.206-.126 3.096-1.814 3.307-1.939 10.964-6.429 3.308-1.937 3.096-1.813 2.688.686 3.707.96 15.361 3.944-3.091 1.805zM5.402 215.933l32.708-15.727 3.607-1.734 3.304-1.587 3.08.928 3.839 1.149 4.076 1.224-3.304 1.588-3.607 1.733-5.191 2.489a5.417 5.417 0 0 0-3.045 5.295c.066.817.358 1.55.746 2.23a5.258 5.258 0 0 0 2.144 2.072c.309.162.599.349.939.442l19.554 5.864 3.834 1.148 3.08.929.754.222 3.08.928 3.839 1.15 11.464 3.438 3.834 1.15 3.077.928.756.223 3.077.928 3.839 1.148 114.937 34.469-2.91 1.708-3.182 1.866-7.082 4.155L89.94 241.287l-3.842-1.148-3.077-.918-.756-.231-3.077-.924-3.833-1.149-11.465-3.442-3.839-1.149-3.077-.918-.757-.231-3.08-.918-3.833-1.148-36.978-11.101-3.839-1.149-3.085-.928zm20.584-30.397l13.748-6.612 3.607-1.729 3.307-1.592 3.077.928 3.833 1.149 11.67 3.502 3.833 1.148 3.077.918.756.231 3.077.918 3.842 1.148 4.076 1.234 3.834 1.149 3.077.917.757.231 3.077.918 3.839 1.149 18.929 5.679 55.943 16.775 57.354 17.207a5.357 5.357 0 0 0 4.28-.521l1.002-.586 3.308-1.936 7.853-4.608 3.301-1.94 3.097-1.813.211-.127 3.097-1.813 3.307-1.936 5.441-3.19 3.301-1.939 3.097-1.814.211-.126 3.101-1.813 3.307-1.94 10.843-6.36 3.301-1.939 3.097-1.813 2.688.69 3.713.954 6.708 1.725-3.091 1.814-3.307 1.936-10.843 6.364-3.307 1.936-3.102 1.825-.205.121-3.09 1.813-3.308 1.939-5.442 3.191-3.306 1.939-3.096 1.813-.211.121-3.091 1.819-3.307 1.936-7.853 4.604-3.308 1.94-3.09 1.813-.211.128-3.096 1.813-3.307 1.94-10.963 6.428-1.203.702-23.547-7.066-92.973-27.887-3.839-1.149-3.077-.917-.756-.231-3.077-.918-3.839-1.154-18.312-5.49-3.839-1.148-3.08-.929-.754-.222-3.08-.928-3.839-1.15-4.076-1.223-3.839-1.15-3.08-.928-.754-.222-3.08-.929-3.833-1.148-11.67-3.497-3.833-1.149-3.063-.923zm5.018-20.27l16.545-7.955 3.612-1.74 3.304-1.588 3.08.923 3.839 1.15 8.277 2.483 3.839 1.152 3.08.923.757.227 3.077.924 3.839 1.148 30.338 9.104 3.833 1.148 3.077.923.757.228 3.077.923 24.231 7.272 86.424 25.924a5.616 5.616 0 0 0 1.55.222c.949 0 1.895-.253 2.732-.744l2.488-1.46 3.307-1.936 3.096-1.814.206-.121 3.095-1.824 3.307-1.94 10.849-6.359 3.307-1.936 3.097-1.819.211-.116 3.095-1.823 3.308-1.94 12.545-7.356 3.308-1.94 3.095-1.813 2.689.69 3.713.96 9.027 2.32-3.101 1.813-3.307 1.94-12.54 7.355-3.308 1.937-3.101 1.824-.211.127-3.092 1.813-3.307 1.937-10.847 6.364-3.308 1.937-3.101 1.818-.206.127-3.09 1.813-3.307 1.94-5.442 3.186-3.308 1.94-3.096 1.813-.211.126-3.085 1.819-3.306 1.936-7.473 4.389-126.556-37.964-3.839-1.149-3.08-.923-.754-.228-3.08-.923-3.833-1.148-4.077-1.225-3.839-1.154-3.08-.924-.754-.227-3.079-.923-3.834-1.149-11.664-3.503-3.836-1.148-3.077-.924-.757-.227-3.077-.923-3.839-1.15-8.279-2.482-3.839-1.149-3.091-.931zm5.276-22.376l11.76-5.653 3.607-1.732 3.312-1.588 3.077.923 3.834 1.15 10.815 3.246 3.834 1.149 3.08.923.754.227 3.08.925 3.839 1.15 8.276 2.484 3.836 1.148 3.077.923.756.228 3.077.923 45.441 13.632 84.084 25.226a5.434 5.434 0 0 0 4.283-.515l2.367-1.387 3.307-1.937 3.091-1.813.211-.126 3.101-1.825 3.307-1.936 12.546-7.355 3.302-1.941 3.096-1.813.211-.127 3.096-1.813 3.302-1.938 15.118-8.867 3.302-1.938 3.101-1.814 2.689.69 3.713.954 10.314 2.652-3.097 1.814-3.307 1.938-15.113 8.87-3.307 1.935-3.097 1.814-.211.121-3.09 1.819-3.307 1.936-12.545 7.362-3.307 1.939-3.097 1.819-.211.121-3.096 1.813-3.308 1.94-10.847 6.359-3.308 1.939-3.096 1.819-.205.122-3.096 1.813-1.103.654-21.669-6.508-60.771-18.226-4.084-1.229-25.378-7.609-3.834-1.154-30.338-9.1-3.839-1.148-3.077-.924-.757-.227-3.077-.923-3.842-1.15-8.276-2.483-3.839-1.152-3.08-.923-.754-.228-3.08-.923L54 148.217l-10.811-3.251-3.839-1.15-3.07-.926zm-.158-20.266l1.87-.9 3.612-1.732 3.304-1.587 3.08.923 3.839 1.15 11.464 3.439 3.834 1.149 3.077.923.757.227 3.077.924 3.839 1.151 10.815 3.243 3.837 1.152 3.077.923.756.227 3.077.923 3.839 1.15 83.913 25.17 23.319 6.992a5.535 5.535 0 0 0 1.552.227c.627 0 1.232-.142 1.823-.362.306-.111.622-.211.907-.375l5.934-3.485 3.18-1.861 2.699-1.582.211-.124 2.563.769 1.582.475 1.945.583 2.252.676a5.478 5.478 0 0 0 1.551.227c.011 0 .016-.005.025-.005a5.368 5.368 0 0 0 2.705-.738l1.608-.94 3.091-1.814.211-.124 3.096-1.813 3.307-1.938L265.863 147l3.308-1.939 3.095-1.814.207-.124 3.096-1.813 3.307-1.938 10.963-6.431 3.307-1.938 3.097-1.815 2.688.692 3.707.955 16.47 4.235-3.097 1.813-3.306 1.938-10.969 6.431-3.303 1.94-3.096 1.813-.211.124-3.101 1.819-3.301 1.938-15.119 8.867-3.301 1.938-3.097 1.815-.211.121-3.097 1.819-3.301 1.936-12.545 7.356-3.308 1.936-3.101 1.819-.211.127-3.09 1.813-.986.58-19.338-5.802-60.77-18.228-4.082-1.227-46.559-13.964-3.868-1.16-8.276-2.482-3.839-1.149-3.08-.926-.754-.227-3.08-.924-3.834-1.148-10.815-3.246-3.839-1.149-3.077-.923-.757-.227-3.08-.925-3.833-1.149-11.446-3.449-3.834-1.151-3.074-.933zm-25.321-20.092l25.79-12.405 3.607-1.731 3.307-1.588 1.02.309-3.304 1.593-3.609 1.732-4.498 2.165c-1.237.596-2.115 1.643-2.608 2.863-.306.762-.501 1.57-.433 2.423.024.245.114.467.164.704.119.543.313 1.052.583 1.525a5.296 5.296 0 0 0 2.144 2.075c.309.161.599.346.938.443l19.29 5.787 3.834 1.149 3.077.925.757.228 3.077.923 3.841 1.15 11.462 3.438 3.836 1.152 3.077.923.757.227 3.077.923 3.839 1.15 10.815 3.246 3.839 1.15 3.641 1.091.192.061 53.769 16.129 53.67 16.098-.573.335-2.338 1.371-3.18 1.863-1.604.938-101.563-30.462-3.839-1.149-3.077-.923-.757-.227-3.077-.924-3.839-1.149-10.818-3.246-3.839-1.152-3.077-.923-.757-.227-3.077-.923-3.833-1.15-11.464-3.44-3.839-1.149-3.08-.923-.754-.228-3.08-.923-3.833-1.152-26.734-8.017-3.842-1.15-3.077-.928zm20.585-24.998l25.505-12.263 3.607-1.732 3.304-1.587 3.08.923 3.834 1.15 4.751 1.426 3.833 1.15 3.077.923.757.227 1.02.31 2.057.617 1.777.532 2.064.617 1.021.309.754.227 3.08.923 3.839 1.149 18.663 5.601 55.943 16.777 57.354 17.204a5.38 5.38 0 0 0 4.281-.519l1.003-.588 3.307-1.938 3.095-1.814 3.303-1.94 3.096-1.813.211-.124 3.096-1.814 3.301-1.938.513-.298 3.301-1.938 3.097-1.813.211-.124 3.101-1.819 3.307-1.94 9.388-5.508 3.307-1.938 3.095-1.813 2.688.69 3.709.957 23.271 5.978-3.096 1.814-3.307 1.938-9.382 5.503-3.302 1.938-3.101 1.819-.211.126-3.096 1.813-3.302 1.938-.512.298-3.302 1.938-3.096 1.814-.211.124-3.096 1.813-3.307 1.938-3.09 1.816-3.308 1.938-3.097 1.814-.204.124-3.091 1.813-3.308 1.938L245 130.652l-3.301 1.94-3.097 1.814-.205.124-3.102 1.814-2.652 1.556-52.037-15.612-60.809-18.241-1.345-.405-4.184-1.252-3.834-1.149L98.97 97.8l-3.839-1.148-3.08-.923-.751-.234-3.079-.923-3.834-1.149-18.041-5.41-3.839-1.152-3.079-.923-.754-.228-1.021-.309-2.059-.614-1.777-.535-2.057-.613-1.021-.31-.757-.227-3.077-.923-3.834-1.149-4.751-1.427-3.833-1.149-3.101-.92zm283.97 34.166l-3.308 1.938-12.925 7.583-3.688 2.158-3.301 1.938-3.102 1.813-.211.124-3.096 1.814-3.302 1.94-10.969 6.431-3.301 1.949-3.097 1.813-.205.127-3.096 1.813-3.307 1.938-15.114 8.867-3.306 1.938-3.096 1.813-.211.124-.012.005-.222-.063-.755-.228-2.557-.767-.775-.232-.2-.061-2.558-.769-3.533-1.057-54.493-16.345-59.044-17.713-11.525-3.457-3.839-1.149-3.077-.923-.757-.228-3.077-.923-3.834-1.149-11.464-3.44-3.839-1.149-3.08-.924-.754-.227-3.08-.925-3.834-1.15-18.041-5.407-3.839-1.149-3.08-.924 9.835-4.725 3.607-1.735 3.304-1.587 3.077.924 3.842 1.148 18.041 5.413 3.833 1.15 3.077.923.757.227 3.077.923 3.842 1.152 11.464 3.438 3.833 1.149 3.083.923.757.228 3.077.925 3.839 1.15 113.29 33.98c.512.15 1.033.228 1.551.228.948 0 1.897-.254 2.731-.741l4.034-2.365 3.306-1.938 3.103-1.813.205-.124 3.09-1.814 3.307-1.938 10.969-6.435 3.307-1.938 3.092-1.813.211-.124 3.095-1.813 3.308-1.938 3.09-1.816 3.307-1.938 3.096-1.813.211-.124 3.096-1.814 3.302-1.938.512-.298 3.302-1.938 3.096-1.813 2.688.69 3.708.955 12.641 3.246-3.089 1.794zm10.8 113.398l-3.308 1.939-26.304 15.432-3.301 1.939-3.103 1.813-.211.121-3.095 1.813-3.308 1.937-10.963 6.434-3.308 1.939-3.095 1.814-.211.126-3.096 1.814-3.308 1.936-12.05 7.071-8.163-2.457-3.533-1.056-2.558-.771-.971-.284-2.563-.771-3.527-1.061-114.081-34.22-3.842-1.149-3.077-.923-.757-.227-3.077-.928-3.834-1.15-11.464-3.438-3.839-1.149-3.077-.923-.757-.228-3.08-.923-3.834-1.149-18.309-5.488-3.839-1.15-3.08-.928 10.526-5.063 3.607-1.729 3.304-1.588 3.08.923 3.839 1.15 18.31 5.493 3.841 1.15 3.077.922.757.229 3.077.923 3.839 1.148 11.464 3.443 22.415 6.719 60.781 18.235 4.082 1.224 23.445 7.029a5.408 5.408 0 0 0 1.551.227c.627 0 1.244-.146 1.834-.369.091-.03.175-.067.265-.104.211-.095.438-.152.633-.274l2.584-1.513 3.308-1.936 10.963-6.435 3.307-1.939 3.096-1.814.211-.127 3.09-1.813 3.308-1.937 7.853-4.604 3.308-1.94 3.09-1.814.206-.127 3.095-1.813 3.308-1.94 5.441-3.186 3.307-1.94 3.09-1.813 2.689.686 3.713.96 30.302 7.783-3.073 1.819zM314 58.89l-3.101 1.813-3.308 1.938-23.698 13.905-3.307 1.938-3.096 1.819-.211.124-3.096 1.813-3.308 1.94-9.376 5.5-3.307 1.939-3.102 1.819-.206.124-3.095 1.813-3.303 1.938-.512.298-3.301 1.938-3.096 1.813-.211.124-3.096 1.817-3.301 1.938-2.717 1.593-53.362-15.998-64.876-19.462-8.037-2.41-3.839-1.149-3.077-.923-.757-.228-3.077-.923-3.837-1.151-1.021-.306-.754-.227-3.08-.927-3.834-1.148-4.751-1.424-3.833-1.152-3.077-.923-.757-.228-3.08-.923-3.839-1.149-25.434-7.63-3.85-1.168-3.077-.924L112.735 7.16 314 58.89z" fill="#fff"/></svg>