<svg xmlns="http://www.w3.org/2000/svg" width="334.643" height="334.645" viewBox="0 0 334.643 334.645"><g fill="#fff"><path d="M39.653 315.267c-7.308 0-14.616-.003-21.924-.012C7.064 315.243.697 308.862.695 298.189.683 211.04.681 123.894.693 36.746.694 25.054 6.918 18.866 18.69 18.85c6.898-.009 13.799-.012 20.697-.012l30 .007c12.216.002 18.156 5.888 18.16 17.995.009 30.427.008 60.854.006 91.282v73.744c.001 31.674.001 63.349-.003 95.023-.002 12.532-5.858 18.37-18.43 18.371l-29.467.007zm-.266-289.446c-6.895 0-13.792.003-20.688.012-7.931.011-11.022 3.071-11.023 10.914-.013 87.147-.01 174.293.002 261.44.001 6.779 3.292 10.077 10.06 10.085 7.305.009 14.61.012 21.916.012l29.465-.007c8.771-.001 11.446-2.662 11.448-11.39.005-31.673.004-63.348.003-95.021v-73.744c.001-30.427.002-60.854-.006-91.28-.003-8.13-2.928-11.013-11.178-11.014l-29.999-.007zm4.614 252.718h-.105c-13.728-.056-24.861-11.443-24.818-25.385.044-13.966 11.06-24.906 25.078-24.906h.127c6.775.032 13.125 2.699 17.878 7.509 4.688 4.745 7.245 11.004 7.197 17.627-.101 14.105-11.24 25.155-25.357 25.155zm.156-43.308c-10.115 0-18.063 7.882-18.095 17.944-.032 10.095 7.981 18.34 17.863 18.38 10.307.001 18.378-8.004 18.453-18.223.034-4.753-1.806-9.252-5.181-12.668-3.44-3.48-8.037-5.41-12.945-5.434h-.095zm-2.022-30.682c-5.967 0-11.935-.008-17.902-.025-7.828-.023-11.32-3.56-11.322-11.468-.006-14.733-.005-29.468-.004-44.203v-12.374l-.014-3.459-.001-16.748c-.002-14.314-.003-28.629.005-42.942.004-7.883 3.709-11.558 11.663-11.563 13.19-.008 26.378-.01 39.566.001 7.591.006 11.441 3.885 11.443 11.527.006 39.909.002 79.818-.018 119.726-.003 7.825-3.624 11.479-11.393 11.498-7.34.018-14.681.03-22.023.03zm-22.26-75.021l.015 3.492v15.833c-.001 14.733-.002 29.468.004 44.201.001 4.056.409 4.475 4.36 4.486 13.296.04 26.593.03 39.888-.006 3.888-.01 4.426-.558 4.428-4.518.02-39.906.024-79.813.018-119.721-.001-3.82-.711-4.542-4.467-4.545-13.186-.012-26.369-.01-39.555-.001-4.158.003-4.683.517-4.685 4.584-.009 14.313-.007 28.626-.005 42.938l-.001 13.257zM138.007 315.269c-7.23 0-14.457-.005-21.687-.016-10.497-.017-17.019-6.558-17.02-17.07-.014-87.106-.02-174.213-.013-261.321 0-11.775 6.184-18.008 17.882-18.022 17.24-.02 34.478-.006 51.715.007 10.962.01 17.254 6.252 17.261 17.127.021 32.067.017 64.134.014 96.201l-.002 34.98.001 34.639c.002 32.064.004 64.13-.008 96.194-.002 8.871-4.176 14.819-11.751 16.748-1.737.443-3.488.506-4.974.508-10.47.016-20.946.025-31.418.025zM136.11 25.813c-6.309 0-12.622.003-18.931.01-7.85.01-10.908 3.105-10.908 11.04-.006 87.107 0 174.214.013 261.319 0 6.778 3.287 10.078 10.047 10.088 17.695.025 35.39.016 53.085-.01 1.054-.002 2.265-.036 3.257-.291 2.788-.709 6.492-2.516 6.494-9.983.012-32.063.01-64.129.008-96.192l-.001-34.639.002-34.98c.003-32.065.007-64.131-.014-96.195-.005-7.013-3.176-10.143-10.283-10.149-10.923-.009-21.845-.018-32.769-.018zm6.552 252.712h-.146c-13.697-.077-24.832-11.447-24.821-25.346.011-13.973 11.013-24.919 25.048-24.919h.136c13.869.07 25.12 11.325 25.079 25.092-.041 13.88-11.389 25.173-25.296 25.173zm.081-43.281c-10.122 0-18.058 7.88-18.065 17.941-.008 10.238 7.844 18.301 17.877 18.356h.106c10.069.001 18.284-8.168 18.314-18.211.029-9.922-8.104-18.036-18.131-18.087h-.101zm-2.01-30.689c-5.985 0-11.97-.008-17.954-.025-7.69-.02-11.271-3.688-11.271-11.543v-59.69c-.008-20.013-.016-40.028-.004-60.042.005-7.829 3.619-11.479 11.372-11.487a17134.7 17134.7 0 0 1 39.919 0c7.439.009 11.375 3.892 11.378 11.231.011 40.144.005 80.286-.011 120.427-.004 7.241-3.846 11.078-11.108 11.097-7.439.021-14.88.032-22.321.032zm2.26-135.815c-6.703 0-13.405.004-20.109.012-3.859.004-4.394.552-4.396 4.508-.012 20.012-.004 40.024.004 60.036v59.691c0 4.24.596 4.55 4.307 4.56 13.416.04 26.827.03 40.239-.007 3.405-.009 4.141-.739 4.143-4.116.016-40.14.022-80.281.011-120.421-.002-3.492-.784-4.247-4.403-4.251-6.6-.009-13.198-.012-19.796-.012zM264.724 314.76c-8.251 0-14.417-4.963-16.09-12.953-2.588-12.347-5.164-24.695-7.74-37.043-2.544-12.194-5.088-24.39-7.644-36.582-8.515-40.634-17.039-81.265-25.564-121.896l-6.667-31.772c-.723-3.446-1.449-6.892-2.176-10.337-1.42-6.733-2.841-13.465-4.23-20.204-2.032-9.833 2.921-17.538 12.619-19.626 15.711-3.386 32.353-6.885 53.96-11.345a15.68 15.68 0 0 1 3.165-.326c7.329 0 13.582 5.368 15.207 13.055 4.901 23.188 9.8 46.582 14.536 69.205l18.224 87.082c7.012 33.509 14.022 67.018 21.039 100.527 2.37 11.315-2.375 18.569-13.724 20.977a25811.588 25811.588 0 0 1-50.881 10.727c-1.064.222-2.097.332-2.851.412a20.29 20.29 0 0 0-.622.069l-.561.03zm0-4.207v.716l.014-.614-.014-.102zm-.368-290.895c-.576 0-1.167.061-1.752.182-21.588 4.456-38.212 7.951-53.902 11.333-5.93 1.277-8.505 5.321-7.252 11.388a4629.515 4629.515 0 0 0 4.226 20.175c.727 3.448 1.454 6.896 2.178 10.345l6.666 31.772c8.524 40.631 17.05 81.263 25.565 121.896 2.555 12.195 5.1 24.392 7.645 36.589 2.575 12.346 5.151 24.692 7.738 37.036.992 4.736 4.235 7.361 9.139 7.403.169-.021.358-.041.563-.063.642-.068 1.438-.153 2.158-.303 16.954-3.559 33.912-7.129 50.863-10.723 7.579-1.608 9.917-5.173 8.337-12.715-7.017-33.509-14.027-67.019-21.038-100.528l-18.225-87.081a36256.47 36256.47 0 0 0-14.533-69.192c-.95-4.493-4.317-7.514-8.376-7.514zm17.464 253.773h-.137c-13.795-.072-25.017-11.379-25.016-25.205 0-13.813 11.225-25.134 25.021-25.236l.185-.001c13.74 0 24.974 11.237 25.042 25.05.033 6.818-2.581 13.218-7.359 18.019-4.732 4.754-11.031 7.373-17.736 7.373zm.054-43.46l-.132.001c-9.976.074-18.091 8.263-18.091 18.254-.001 9.996 8.105 18.169 18.069 18.222h.002c4.933 0 9.473-1.888 12.885-5.316 3.458-3.475 5.349-8.111 5.325-13.059-.048-9.812-8.317-18.102-18.058-18.102zm-33.153-24.966c-3.664 0-8.36-1.568-9.924-9.04a449711.45 449711.45 0 0 1-24.661-117.976c-1.942-9.298 4.129-12.068 7.921-12.893 10.457-2.273 21.1-4.512 31.392-6.678l9.622-2.026a10.838 10.838 0 0 1 1.647-.198l.542-.029c5.381.022 8.997 3.125 10.186 8.736 2.329 11.016 4.631 22.037 6.932 33.058l8.365 40.069c3.122 14.953 6.242 29.906 9.367 44.858 1.558 7.448-1.423 12.016-8.859 13.571-7.711 1.615-15.423 3.226-23.136 4.836l-15.849 3.311c-1.291.27-2.451.401-3.545.401zm16.646-141.857l-.228.015c-.2.012-.477.029-.63.061l-9.623 2.027c-10.281 2.163-20.913 4.4-31.348 6.668-2.405.522-3.31 1.089-2.568 4.641 8.215 39.325 16.436 78.65 24.661 117.974.729 3.487 1.876 3.487 3.089 3.487.6 0 1.312-.086 2.116-.253l15.849-3.312c7.712-1.61 15.424-3.222 23.134-4.836 3.678-.77 4.228-1.613 3.455-5.308-3.126-14.952-6.246-29.907-9.368-44.86l-8.364-40.068c-2.301-11.016-4.601-22.031-6.928-33.041-.556-2.623-1.536-3.162-3.247-3.195z"/><path d="M22.57 253.165c.038-11.992 9.649-21.483 21.697-21.425 11.985.057 21.686 9.765 21.601 21.618-.087 12.114-9.829 21.736-21.958 21.688-11.828-.046-21.377-9.838-21.34-21.881zm21.424-15.021c-8.471.023-15.098 6.768-15.029 15.296.069 8.505 6.792 15.24 15.206 15.233 8.354-.007 15.257-6.871 15.319-15.235.065-8.542-6.802-15.318-15.496-15.294zM121.187 253.182c.009-11.982 9.626-21.492 21.675-21.43 12.019.061 21.641 9.674 21.605 21.589-.036 12.086-9.816 21.759-21.932 21.692-11.872-.065-21.358-9.773-21.348-21.851zm6.385-.018c-.057 8.535 6.514 15.361 14.931 15.508 8.496.151 15.573-6.793 15.595-15.302.022-8.408-6.745-15.178-15.222-15.225-8.582-.046-15.247 6.495-15.304 15.019zM303.425 248.056c.059 12.139-9.677 21.946-21.723 21.883-11.903-.063-21.543-9.777-21.542-21.713 0-11.905 9.665-21.656 21.556-21.745 11.802-.089 21.65 9.699 21.709 21.575zm-36.886.324c.036 8.398 6.946 15.211 15.323 15.102 8.678-.11 15.269-6.881 15.177-15.588-.086-8.163-6.943-14.964-15.138-15.017-8.467-.056-15.4 6.94-15.362 15.503zM29.235 77.949h30.019v24.017H29.235V77.949zM29.075 157.386v-5.327h30.2v5.327h-30.2zM59.308 164.297v5.604H29.236v-5.604h30.072zM59.333 176.701v5.472H29.154v-5.472h30.179zM127.669 101.891V78.115h30.244v23.776h-30.244zM158.004 152.019v5.398h-30.212v-5.398h30.212zM127.71 169.804v-5.533h30.23v5.533h-30.23zM127.757 182.175v-5.478h30.181v5.478h-30.181zM235.853 103.482l-4.979-23.905 29.878-6.245 5.047 23.832-29.946 6.318zM249.843 169.772c-.482-2.068-.842-3.62-1.328-5.716l29.803-6.303c.462 1.852.869 3.482 1.437 5.75-9.984 2.094-19.858 4.162-29.912 6.269zM280.943 169.831l1.208 5.758c-9.972 2.103-19.814 4.176-29.89 6.299a9342.09 9342.09 0 0 1-1.101-5.834c10.018-2.092 19.69-4.115 29.783-6.223zM275.911 145.686c.415 2.12.742 3.768 1.143 5.807l-29.811 6.264-1.066-5.824 29.734-6.247z" fill-rule="evenodd" clip-rule="evenodd"/></g></svg>