<svg xmlns="http://www.w3.org/2000/svg" width="334.643" height="334.645" viewBox="0 0 334.643 334.645"><g fill-rule="evenodd" clip-rule="evenodd" fill="#fff"><path d="M40.087 166.762c0-49.164-.002-98.328.001-147.492.001-10.057 4.242-14.428 14.237-14.43 75.396-.022 150.792-.022 226.189.004 9.632.004 13.985 4.504 13.987 14.214.006 98.641.006 197.284.002 295.925 0 10.391-4.189 14.644-14.468 14.646-74.926.013-149.85.02-224.775.015-11.211-.002-15.175-4.067-15.175-15.388.002-49.165.002-98.329.002-147.494zm249.271.296c0-48.851.006-97.703-.006-146.556-.001-8.676-1.931-10.629-10.408-10.631-64.722-.007-129.441-.011-194.162-.015-8.714-.001-10.762 2.051-10.763 10.814-.01 54.658-.023 109.316-.024 163.975 0 43.041.014 86.084.024 129.125.003 8.866 1.967 10.854 10.687 10.854l193.691-.006c9.195 0 10.955-1.743 10.955-11.002.006-48.852.004-97.704.006-146.558zM69.863 10.063c.205.098-.061-.137-.329-.139a1578.21 1578.21 0 0 0-15.075-.059c-6.682.015-9.116 2.34-9.2 8.984-.109 8.636-.139 17.271-.136 25.908.03 79.936.075 159.871.114 239.806.006 10.521-.049 21.041.022 31.561.034 5.052 2.223 8.163 6.388 8.371 6.202.309 12.43.081 18.263.081-.313-3.848-.827-7.248-.829-10.65-.024-48.039.046-96.078.046-144.118-.001-49.466-.072-98.932-.05-148.397.003-3.715.502-7.428.786-11.348z"/><path d="M138.129 204.727c-48.16-27.002-60.07-80.759-41.871-121.268 18.969-42.229 65.6-64.266 110.612-52.008 44.722 12.178 73.294 55.133 67.728 102.54-5.133 43.704-45.166 85.39-102.443 81.297l-9.613 35.237c1.778.116 3.238.294 4.698.296 29.995.022 59.993.035 89.988.022 8.452-.004 10.95 2.425 10.952 10.838.002 11.464.025 22.928-.015 34.392-.022 6.447-3.071 9.619-9.459 9.623-51.358.035-102.715.037-154.071.006-5.957-.004-9.14-3.049-9.189-8.897-.106-12.407-.111-24.815.011-37.222.058-5.846 2.943-9.065 8.731-8.581 5.681.474 8.365-1.988 10.914-6.572 7.387-13.279 15.218-26.311 23.027-39.703zm2.744-4.792c2.71-4.608 5.247-8.914 7.774-13.224 5.296-9.026 10.429-18.154 15.944-27.046 3.269-5.274 8.729-6.741 13.875-4.419 5.108 2.305 7.62 7.986 6.084 13.706-.649 2.419-1.222 4.858-1.87 7.277-2.955 11.012-5.924 22.017-8.901 33.072 39.366 5.189 82.262-21.625 93.472-64.968 11.778-45.541-13.146-91.789-57.259-106.508-44.166-14.735-91.845 6.849-109.817 49.781-17.995 42.986.621 91.353 40.698 112.329zm-33.258 56.342c-6.359-.905-7.208-.225-7.213 5.975-.011 10.83.151 21.661-.068 32.486-.088 4.37 1.569 5.688 5.801 5.681 50.535-.101 101.069-.1 151.604-.005 4.149.007 5.562-1.626 5.523-5.575-.102-10.512-.014-21.027.017-31.544.02-6.918-.561-7.521-7.431-7.517-29.976.022-59.95.048-89.926.072h-4.936c-1.142 4.69-2.299 9.052-3.259 13.458-2.632 12.08-12.592 20.416-24.708 20.572-12.521.16-22.796-7.762-25.27-20.223-.851-4.296-.134-8.904-.134-13.38zm3.948 7.88c.683 10.792 8.293 19.203 19.128 20.628 9.398 1.235 19.058-5.572 21.57-15.234.553-2.122.938-4.291 1.512-6.406 8.494-31.293 17.019-62.579 25.511-93.873 1.298-4.786.063-8.279-3.527-9.444-4.207-1.365-6.412 1.46-8.234 4.559-4.118 7.011-8.125 14.087-12.23 21.105-13.309 22.745-26.708 45.436-39.885 68.257-1.824 3.156-2.59 6.923-3.845 10.408zM286.014 313.001c.059 4.532-3.4 8.006-7.944 7.979-4.243-.025-7.745-3.446-7.839-7.658-.098-4.354 3.68-8.186 7.986-8.101 4.249.082 7.743 3.569 7.797 7.78zm-7.999 4.079c1.244-1.843 2.424-2.844 2.476-3.901.041-.843-1.292-1.754-2.014-2.636-.959.803-2.545 1.498-2.701 2.436-.161.949 1.089 2.137 2.239 4.101zM286.002 21.583c-.11 4.373-4.027 8.068-8.282 7.809-4.043-.247-7.647-4.158-7.535-8.176.121-4.398 3.881-7.832 8.373-7.647 4.274.174 7.553 3.702 7.444 8.014zm-7.586-3.989c-1.328 1.784-2.681 2.812-2.609 3.727.074.951 1.399 2.17 2.434 2.521.499.17 2.204-1.346 2.248-2.157.055-1.042-1.014-2.141-2.073-4.091z"/><path d="M278.439 159.641c4.625.259 7.924 3.864 7.558 8.255-.363 4.363-4.063 7.467-8.704 7.302-4.211-.149-7.197-3.774-6.877-8.348.322-4.596 3.515-7.465 8.023-7.209zm-.423 11.615c1.272-1.891 2.443-2.9 2.521-3.988.056-.775-1.36-1.656-2.12-2.488-.865.89-2.18 1.666-2.445 2.709-.201.773.964 1.895 2.044 3.767zM93.281 313.063c.003 4.49-3.55 7.979-8.067 7.92-4.409-.058-7.589-3.284-7.638-7.751-.052-4.559 3.474-8.126 7.948-8.041 4.186.079 7.753 3.698 7.757 7.872zm-8.111 3.823c1.281-1.585 2.711-2.585 2.708-3.577-.004-.933-1.509-2.579-2.379-2.596-.943-.021-2.569 1.396-2.693 2.344-.126.957 1.226 2.109 2.364 3.829zM85.526 29.398c-4.211.132-7.725-3.24-7.912-7.593-.199-4.66 3.04-8.193 7.58-8.271 4.293-.075 7.913 3.27 8.064 7.453.161 4.43-3.373 8.273-7.732 8.411zm.023-11.623c-1.292 1.544-2.743 2.521-2.728 3.474.015.928 1.5 2.51 2.399 2.554.911.042 2.536-1.356 2.667-2.29.129-.926-1.213-2.059-2.338-3.738zM85.361 175.04c-4.444-.017-7.687-3.233-7.777-7.714-.089-4.415 3.257-8.038 7.45-8.068 4.46-.031 8.032 3.651 7.918 8.162-.125 4.935-2.817 7.637-7.591 7.62zm3.422-7.905c-1.588-1.191-2.73-2.67-3.567-2.514-.994.186-2.394 1.791-2.375 2.758.017.902 1.598 2.366 2.61 2.475.838.087 1.849-1.434 3.332-2.719zM278.015 317.08c-1.149-1.964-2.399-3.151-2.239-4.102.156-.938 1.742-1.633 2.701-2.436.722.882 2.055 1.793 2.014 2.636-.053 1.058-1.232 2.059-2.476 3.902zM278.416 17.594c1.059 1.949 2.128 3.049 2.072 4.091-.044.812-1.749 2.327-2.248 2.157-1.034-.352-2.359-1.57-2.434-2.521-.071-.915 1.282-1.942 2.61-3.727z"/><path d="M278.016 171.256c-1.08-1.872-2.244-2.993-2.045-3.768.266-1.043 1.58-1.819 2.445-2.709.76.832 2.176 1.713 2.12 2.488-.077 1.088-1.248 2.098-2.52 3.989zM85.17 316.886c-1.138-1.721-2.49-2.872-2.365-3.829.124-.948 1.75-2.364 2.693-2.344.871.017 2.375 1.663 2.379 2.596.004.993-1.426 1.993-2.707 3.577zM85.549 17.775c1.125 1.679 2.467 2.812 2.338 3.737-.131.934-1.756 2.332-2.667 2.29-.899-.044-2.385-1.626-2.399-2.554-.015-.952 1.436-1.929 2.728-3.473zM88.783 167.135c-1.483 1.285-2.494 2.807-3.332 2.719-1.012-.108-2.593-1.572-2.61-2.475-.019-.967 1.381-2.572 2.375-2.758.837-.156 1.979 1.322 3.567 2.514zM181.686 101.132c11.641-.021 20.559 8.818 20.61 20.424.05 11.506-9.003 20.723-20.424 20.795-11.333.071-20.67-9.189-20.768-20.602-.095-11.364 9.122-20.596 20.582-20.617zm.265 35.976c8.453-.066 15.597-7.375 15.387-15.742-.204-8.191-7.342-15.238-15.501-15.303-8.349-.064-15.563 7.205-15.521 15.641.041 8.572 7.043 15.471 15.635 15.404zM142.879 265.029c-.223 5.86-4.872 10.008-10.926 9.752-5.56-.235-9.966-4.904-9.866-10.457.108-5.978 5.12-10.668 11.039-10.335 5.799.327 9.981 5.061 9.753 11.04zm-9.439-6.587c-.749.029-1.498.061-2.248.091-1.271 1.977-3.33 3.844-3.631 5.959-.472 3.319 2.25 5.649 5.214 5.046 1.965-.401 4.695-3.257 4.754-5.089.065-1.956-2.611-4-4.089-6.007z"/><path d="M181.951 137.108c-8.592.066-15.594-6.832-15.636-15.404-.041-8.436 7.173-15.705 15.521-15.641 8.159.064 15.297 7.111 15.501 15.303.211 8.367-6.933 15.676-15.386 15.742zM133.44 258.442c1.478 2.007 4.153 4.051 4.089 6.007-.059 1.832-2.789 4.688-4.754 5.089-2.963.604-5.686-1.727-5.214-5.046.301-2.115 2.36-3.982 3.631-5.959.75-.03 1.499-.062 2.248-.091z"/></g></svg>