<svg xmlns="http://www.w3.org/2000/svg" width="42.672" height="42.672" viewBox="0 0 42.672 42.672"><path d="M35.336 37.336h-28a1 1 0 0 1-1-1v-6.134a1 1 0 0 1 2 0v5.134h26v-5.134a1 1 0 0 1 2 0v6.134a1 1 0 0 1-1 1z" fill="#fff"/><path d="M21.381 31.202a1 1 0 0 1-.695-.281l-8.037-7.764a1 1 0 1 1 1.39-1.438l7.342 7.093 7.342-7.093a1 1 0 0 1 1.39 1.438l-8.037 7.764a1 1 0 0 1-.695.281zM21.381 6.336v23.866" fill="#fff"/><path d="M21.381 31.202a1 1 0 0 1-1-1V6.336a1 1 0 0 1 2 0v23.866a1 1 0 0 1-1 1z" fill="#fff"/></svg>