<svg xmlns="http://www.w3.org/2000/svg" width="42.672" height="42.672" viewBox="0 0 42.672 42.672"><path d="M9.394 31.544a1.001 1.001 0 0 1-.956-1.294l2.519-8.176a.997.997 0 0 1 .249-.413L27.071 5.795a1.03 1.03 0 0 1 1.414 0l5.657 5.657a.999.999 0 0 1 0 1.414L18.276 28.732a1.002 1.002 0 0 1-.413.249L9.688 31.5a1.027 1.027 0 0 1-.294.044zm3.401-8.644l-1.89 6.132 6.132-1.889L32.02 12.16l-4.243-4.243L12.795 22.9z" fill="#fff"/><path d="M17.57 29.025a1 1 0 0 1-.887-.536l-1.802-3.435-3.434-1.801a1 1 0 1 1 .929-1.771l3.71 1.946a1 1 0 0 1 .421.421l1.947 3.711a1 1 0 0 1-.884 1.465zM30.262 16.332a.997.997 0 0 1-.707-.293l-5.657-5.656a.999.999 0 1 1 1.414-1.414l5.657 5.656a.999.999 0 0 1-.707 1.707zM33.435 37.361H9.167a1 1 0 0 1 0-2h24.268a1 1 0 0 1 0 2z" fill="#fff"/></svg>