<svg xmlns="http://www.w3.org/2000/svg" width="218.544" height="63.238" viewBox="15.192 9.545 218.544 63.238"><g fill="#fff"><path d="M84.125 43.763h-6.909v7.252h-2.983V33.847H85.14v2.404h-7.923v5.105h6.909l-.001 2.407zM103.01 42.878c0 1.683-.291 3.158-.873 4.429-.582 1.27-1.413 2.243-2.494 2.924-1.081.68-2.325 1.02-3.732 1.02-1.391 0-2.631-.34-3.72-1.02-1.089-.681-1.93-1.648-2.523-2.906-.593-1.258-.894-2.708-.901-4.352v-.968c0-1.674.297-3.15.89-4.434.594-1.281 1.431-2.262 2.512-2.941s2.321-1.021 3.721-1.021c1.398 0 2.639.337 3.72 1.009s1.916 1.639 2.505 2.9c.59 1.262.888 2.729.896 4.403l-.001.957zm-2.983-.895c0-1.902-.36-3.36-1.079-4.374-.719-1.016-1.739-1.521-3.06-1.521-1.29 0-2.297.505-3.024 1.517-.728 1.01-1.099 2.438-1.114 4.286v.989c0 1.888.367 3.346 1.104 4.374.734 1.03 1.755 1.545 3.06 1.545 1.321 0 2.336-.503 3.048-1.509.712-1.007 1.067-2.477 1.067-4.41l-.002-.897zM114.1 44.411h-3.325v6.604h-2.983V33.848h6.037c1.981 0 3.511.443 4.587 1.333 1.077.89 1.615 2.176 1.615 3.858 0 1.148-.277 2.11-.831 2.886-.554.774-1.327 1.371-2.316 1.787l3.855 7.149v.153h-3.195l-3.444-6.603zm-3.324-2.406h3.065c1.006 0 1.792-.253 2.357-.76.566-.508.85-1.201.85-2.082 0-.919-.263-1.631-.784-2.134-.523-.503-1.304-.763-2.341-.778h-3.148l.001 5.754zM128.54 33.847l4.952 13.158 4.94-13.158h3.855v17.168h-2.972v-5.66l.295-7.569-5.07 13.229h-2.134l-5.058-13.219.294 7.559v5.66h-2.971V33.847h3.869zM156.599 46.592c0-.755-.266-1.336-.796-1.744s-1.487-.821-2.871-1.238c-1.383-.416-2.483-.88-3.301-1.392-1.564-.981-2.348-2.265-2.348-3.845 0-1.383.563-2.521 1.691-3.419 1.128-.896 2.593-1.345 4.393-1.345 1.195 0 2.261.221 3.195.661.936.438 1.671 1.065 2.205 1.88.534.813.802 1.716.802 2.706h-2.972c0-.89-.28-1.584-.843-2.087s-1.366-.754-2.411-.754c-.976 0-1.731.207-2.271.622-.539.414-.808.993-.808 1.737 0 .626.29 1.148.872 1.567s1.541.826 2.877 1.221c1.337.396 2.409.847 3.219 1.354.811.507 1.403 1.089 1.781 1.745.377.655.564 1.425.564 2.305 0 1.431-.548 2.567-1.645 3.414-1.097.845-2.584 1.267-4.463 1.267-1.242 0-2.384-.229-3.426-.688-1.041-.46-1.852-1.096-2.43-1.904s-.867-1.753-.867-2.83h2.983c0 .976.322 1.729.967 2.265.646.534 1.568.803 2.771.803 1.037 0 1.816-.211 2.341-.632.53-.421.791-.976.791-1.669zM164.435 51.015V33.847h5.07c1.839 0 3.233.38 4.186 1.139s1.427 1.878 1.427 3.355c0 .89-.242 1.662-.726 2.318-.483.657-1.146 1.127-1.986 1.41.998.22 1.802.711 2.411 1.473.609.764.914 1.644.914 2.641 0 1.517-.489 2.7-1.468 3.554-.979.853-2.341 1.278-4.086 1.278h-5.742zm1.451-9.47h3.962c1.21-.022 2.146-.309 2.812-.854.665-.548.997-1.347.997-2.394 0-1.103-.345-1.916-1.032-2.438-.687-.523-1.728-.785-3.117-.785h-3.62l-.002 6.471zm0 1.228v7.016h4.351c1.242 0 2.228-.314 2.954-.947.727-.632 1.091-1.509 1.091-2.631 0-1.06-.349-1.896-1.044-2.514-.695-.615-1.656-.924-2.883-.924h-4.469zM190.312 46.193h-7.794l-1.77 4.822h-1.521l6.497-17.168h1.38l6.497 17.168h-1.51l-1.779-4.822zm-7.344-1.228h6.886l-3.443-9.351-3.443 9.351zM210.719 51.015h-1.45L199.4 36.324v14.691h-1.462V33.847h1.462l9.881 14.702V33.847h1.438v17.168zM220.76 42.49l-2.417 2.382v6.145h-1.45V33.848h1.45v9.256l8.796-9.256h1.828l-7.193 7.641 7.747 9.527h-1.77l-6.991-8.526z"/></g><path d="M63.739 49.838l-3.574-.919.879-.517a.767.767 0 0 0 .373-.772.733.733 0 0 0-.104-.275.766.766 0 0 0 .104-.494.765.765 0 0 0-.57-.638l-.207-.055 1.121-.657a.772.772 0 0 0 .374-.771.808.808 0 0 0-.104-.278.776.776 0 0 0 .104-.493.773.773 0 0 0-.571-.64l-.538-.137 1.489-.874a.77.77 0 0 0 .373-.772.76.76 0 0 0-.104-.276.769.769 0 0 0 .104-.494.773.773 0 0 0-.571-.641l-.72-.185.896-.526a.767.767 0 0 0 .373-.771.735.735 0 0 0-.103-.277.757.757 0 0 0 .103-.493.77.77 0 0 0-.571-.64l-1.599-.411 1.703-.998a.768.768 0 0 0 .373-.771.72.72 0 0 0-.104-.277.766.766 0 0 0 .104-.493.77.77 0 0 0-.571-.64l-1.053-.271.67-.394a.769.769 0 0 0 .373-.771.725.725 0 0 0-.104-.276.761.761 0 0 0-.466-1.134l-2.569-.66 2.713-1.593a.771.771 0 0 0 .374-.771.772.772 0 0 0-.104-.277.766.766 0 0 0 .104-.494.773.773 0 0 0-.571-.639L32.835 18.99a.755.755 0 0 0-.524.052l-11.668 5.61a.773.773 0 0 0-.436.755.78.78 0 0 0 .107.317.775.775 0 0 0 .441 1.132l2.822.846-2.88 1.385a.774.774 0 0 0-.435.755.767.767 0 0 0 .105.318.764.764 0 0 0 .334 1.08l-2.943 1.416a.775.775 0 0 0-.436.756c.01.116.051.221.107.318a.76.76 0 0 0-.107.451.774.774 0 0 0 .547.68l3.186.955a.768.768 0 0 0-.117.465.768.768 0 0 0 .105.317.774.774 0 0 0 .442 1.132l.827.248-.917.44a.775.775 0 0 0-.436.755c.01.116.052.222.106.318a.768.768 0 0 0 .441 1.131l.734.221-1.6.769a.773.773 0 0 0-.436.755.764.764 0 0 0 .106.318.774.774 0 0 0 .441 1.131l.373.111-1.201.573a.775.775 0 0 0-.435.754.768.768 0 0 0 .106.32.773.773 0 0 0 .441 1.13l.857.256-3.908 1.881a.776.776 0 0 0-.436.755c.01.117.051.223.106.319a.773.773 0 0 0 .442 1.131l4.47 1.34-.197.096a.773.773 0 0 0-.435.755.758.758 0 0 0 .105.317.773.773 0 0 0 .442 1.132l.827.249-.917.439a.776.776 0 0 0-.436.756.754.754 0 0 0 .106.318.773.773 0 0 0 .441 1.131l28.732 8.618a.767.767 0 0 0 .612-.074l11.668-6.844a.77.77 0 0 0 .373-.773.769.769 0 0 0-.104-.275.766.766 0 0 0 .104-.494.77.77 0 0 0-.571-.64l-.72-.187.896-.526a.767.767 0 0 0 .373-.771.735.735 0 0 0-.103-.277.757.757 0 0 0 .103-.493.77.77 0 0 0-.571-.64l-1.44-.37 3.085-1.81a.77.77 0 0 0 .373-.772.767.767 0 0 0-.104-.276.773.773 0 0 0 .104-.494.773.773 0 0 0-.573-.643zm-2.057 8.263l-.474.275-10.754 6.311-27.746-8.321-.547-.166-.438-.133 1.679-.808.515-.246.474-.228.438.132.547.163 24.834 7.45a.777.777 0 0 0 .612-.074l8.002-4.692.472-.276.442-.26.384.099.53.137 1.472.378-.442.259zm-.023-2.895l-.472.277-1.566.919-.471.275-.442.261-.029.017-.443.26-.471.276-7.333 4.302-24.026-7.207-.548-.165-.439-.131-.107-.032-.439-.132-.547-.165-1.638-.489-.547-.165-.441-.133.958-.461.517-.248.472-.227.438.132.549.164 1.637.491.547.163.439.133.107.032.439.132.548.164 17.474 5.241a.789.789 0 0 0 .612-.073l1.63-.956.454-.268.416-.242.365.108.505.152 1.851.555a.789.789 0 0 0 .613-.073l2.389-1.4.473-.277.441-.259.03-.019.441-.26.473-.275 1.564-.918.474-.276.441-.259.384.098.528.137 2.193.563-.443.258zm-44.345-5.671l4.669-2.245.515-.248.473-.227.438.133.548.163.582.176-.472.228-.515.246-.741.355a.776.776 0 0 0-.436.756c.01.116.052.222.106.318a.746.746 0 0 0 .306.296c.044.022.085.05.135.063l2.792.837.547.164.439.133.107.031.439.134.549.163 1.637.49.547.164.438.133.108.032.439.132.548.164 16.409 4.921-.416.244-.454.268-1.012.593-16.661-4.997-.55-.164-.438-.131-.108-.033-.438-.132-.547-.164-1.637-.491-.548-.164-.438-.132-.108-.032-.44-.131-.547-.165-5.278-1.584-.549-.164-.438-.133zm2.938-4.339l1.964-.944.515-.247.473-.227.439.132.547.165 1.666.499.547.164.439.131.107.033.439.132.548.163.582.177.547.164.438.131.108.033.439.131.548.164 2.702.812 7.986 2.396 8.188 2.456a.77.77 0 0 0 .611-.074l.144-.084.472-.275 1.121-.658.471-.276.442-.259.03-.019.441-.26.473-.275.776-.455.472-.277.441-.259.03-.02.442-.259.472-.276 1.548-.907.471-.277.442-.259.384.099.53.137.958.247-.441.259-.472.275-1.548.908-.473.276-.442.261-.026.015-.44.26-.473.276-.776.455-.473.277-.441.258-.03.018-.441.261-.472.275-1.121.657-.472.277-.441.259-.029.018-.442.261-.472.275-1.565.918-.172.102-3.362-1.01-13.272-3.98-.548-.164-.439-.131-.108-.033-.438-.131-.548-.165-2.614-.784-.548-.164-.439-.132-.107-.032-.439-.132-.548-.165-.582-.174-.548-.164-.443-.136-.106-.032-.44-.132-.547-.164-1.666-.5-.547-.164-.442-.131zm.717-2.895l2.361-1.136.517-.249.472-.227.439.132.548.164 1.182.354.548.165.44.132.107.032.439.132.548.164 4.331 1.301.547.162.439.133.107.031.439.133 3.459 1.039 12.338 3.699a.788.788 0 0 0 .612-.073l.354-.208.472-.277.442-.259.029-.018.441-.261.473-.277 1.549-.906.472-.276.442-.26.03-.018.441-.26.472-.277 1.791-1.051.473-.276.441-.259.385.099.529.138 1.289.331-.442.259-.473.277-1.79 1.05-.472.276-.442.261-.029.018-.441.26-.472.275-1.548.909-.473.276-.442.26-.029.018-.441.26-.472.276-.777.454-.472.277-.442.26-.029.018-.44.261-.472.275-1.067.626-18.066-5.42-.548-.165-.44-.132-.107-.032-.439-.132-.547-.163-.583-.176-.548-.164-.44-.132-.107-.032-.438-.133-.547-.164-1.666-.499-.547-.164-.439-.133-.107-.031-.439-.132-.548-.164-1.183-.354-.548-.163-.446-.134zm.753-3.193l1.679-.809.515-.247.474-.228.438.132.547.165 1.544.463.548.165.439.131.107.032.438.133.549.164 1.183.354.547.164.438.132.107.032.439.132 6.486 1.945 12.004 3.603a.776.776 0 0 0 .612-.074l.338-.198.472-.275.441-.259.03-.02.442-.26.473-.276 1.791-1.05.471-.277.442-.259.029-.019.442-.26.471-.275 2.159-1.267.471-.276.443-.259.384.099.53.137 1.473.378-.441.26-.473.276-2.158 1.267-.472.275-.441.259-.03.019-.441.26-.472.276-1.791 1.051-.473.277-.442.26-.03.018-.441.26-.473.275-1.548.908-.472.277-.442.26-.029.018-.441.258-.157.095-3.093-.93-8.676-2.603-.583-.175-3.623-1.087-.547-.164-4.332-1.301-.549-.162-.438-.133-.108-.032-.438-.133-.548-.163-1.183-.354-.548-.164-.439-.132-.107-.032-.44-.132-.547-.165-1.543-.464-.548-.164-.439-.132zm-.022-2.896l.268-.128.516-.247.472-.227.439.132.548.164 1.637.491.547.164.439.131.108.033.438.132.548.164 1.543.463.548.165.439.132.108.032.438.131.548.165 11.979 3.594 3.329.997a.79.79 0 0 0 .222.033.753.753 0 0 0 .26-.052c.043-.018.089-.03.129-.055l.848-.498.453-.266.386-.226.029-.019.366.109.227.067.277.083.322.098a.797.797 0 0 0 .221.031l.004-.001a.771.771 0 0 0 .387-.104l.229-.134.441-.261.03-.018.441-.259.472-.276 2.158-1.266.473-.277.441-.259.029-.019.441-.259.473-.276 1.564-.918.473-.276.441-.26.385.099.528.137 2.352.604-.442.259-.472.276-1.566.919-.472.276-.442.259-.03.019-.441.26-.469.28-2.158 1.266-.473.277-.441.259-.03.019-.441.259-.472.275-1.791 1.052-.472.275-.443.261-.029.018-.441.26-.141.082-2.762-.828-8.676-2.602-.583-.176-6.646-1.993-.553-.166-1.182-.354-.548-.164-.44-.132-.106-.032-.44-.132-.547-.164-1.545-.466-.548-.164-.439-.131-.107-.033-.439-.132-.548-.164-1.634-.492-.547-.165-.438-.131zm-3.616-2.868l3.683-1.771.515-.247.472-.227.146.044-.472.227-.517.248-.642.309a.768.768 0 0 0-.373.409.797.797 0 0 0-.063.347c.003.034.018.066.023.101a.757.757 0 0 0 .389.514c.044.023.085.051.134.063l2.754.826.547.165.438.131.108.033.438.132.549.164 1.636.49.548.164.438.133.108.031.439.132.548.164 1.544.465.548.164.52.154.027.009 7.676 2.304 7.662 2.298-.082.048-.334.196-.448.266-.229.134-14.5-4.349-.548-.164-.439-.132-.107-.032-.439-.132-.548-.164-1.544-.463-.548-.165-.439-.132-.107-.032-.439-.132-.547-.164-1.637-.491-.548-.164-.439-.132-.108-.032-.438-.132-.547-.165-3.817-1.144-.548-.165-.443-.134zm2.939-3.567l3.641-1.751.516-.247.472-.228.439.133.547.164.678.203.547.164.439.133.107.031.146.044.293.088.254.076.294.088.146.044.108.032.438.133.549.164 2.664.8 7.986 2.396 8.188 2.456a.772.772 0 0 0 .611-.074l.145-.084.472-.275.441-.261.472-.275.442-.26.029-.018.442-.26.471-.276.073-.043.471-.274.442-.261.03-.018.441-.26.473-.277 1.34-.786.472-.275.442-.26.384.1.529.137 3.321.854-.441.26-.473.275-1.339.786-.471.276-.443.26-.029.018-.442.26-.471.276-.073.042-.471.277-.442.259-.03.019-.441.259-.473.276-.44.26-.472.275-.442.261-.029.018-.44.259-.473.276-1.565.918-.472.277-.441.26-.029.017-.442.259-.38.224-7.429-2.229-8.682-2.604-.192-.059-.597-.179-.547-.164-1.638-.491-.548-.164-.439-.132-.107-.033-.439-.132-.548-.164-2.574-.771-.548-.165-.439-.131-.108-.033-.146-.044-.294-.088-.254-.076-.293-.087-.146-.045-.107-.032-.439-.132-.547-.164-.678-.203-.547-.165-.445-.137zm40.541 4.878l-.473.276-1.846 1.083-.525.308-.472.276-.442.26-.03.018-.442.259-.472.277-1.564.918-.473.278-.441.259-.029.018-.442.261-.473.274-2.158 1.267-.472.275-.441.261-.029.017h-.003l-.031-.009-.107-.032-.365-.109-.109-.032-.029-.01-.365-.108-.504-.151-7.779-2.333-8.43-2.528-1.645-.493-.549-.164-.438-.132-.108-.032-.438-.132-.548-.164-1.637-.491-.548-.164-.438-.132-.108-.032-.438-.132-.548-.164-2.575-.773-.549-.164-.438-.132 1.404-.675.515-.247.468-.228.439.132.548.164 2.576.771.547.164.439.132.107.032.439.132.548.164 1.637.491.547.164.44.132.107.032.439.133.548.164 16.173 4.851a.781.781 0 0 0 .613-.072l.576-.337.472-.277.443-.259.028-.019.441-.259.472-.277 1.566-.918.472-.276.441-.258.029-.02.442-.259.472-.277.441-.259.472-.276.442-.259.03-.018.441-.26.472-.276.072-.043.472-.276.441-.259.384.099.529.137 1.805.464-.438.254zm1.541 16.187l-.472.277-3.756 2.203-.471.276-.442.259-.03.018-.442.259-.472.276-1.565.919-.473.277-.441.259-.029.018-.442.26-.472.275-1.721 1.011-1.166-.352-.504-.15-.364-.109-.139-.041-.366-.109-.503-.15-16.287-4.888-.55-.164-.438-.132-.108-.032-.438-.132-.547-.164-1.638-.491-.548-.163-.438-.133-.108-.031-.44-.132-.549-.165-2.613-.783-.549-.164-.439-.133 1.503-.724.515-.246.473-.227.439.131.548.164 2.614.785.548.164.439.131.107.033.439.132.548.164 1.637.491 3.2.959 8.677 2.604.583.175 3.348 1.004a.742.742 0 0 0 .483-.021l.038-.015c.03-.015.063-.022.09-.039l.369-.218.472-.275 1.565-.918.472-.277.442-.259.03-.02.44-.259.473-.275 1.12-.657.473-.277.44-.259.03-.02.441-.258.473-.276.777-.455.472-.276.441-.259.384.098.53.138 4.325 1.11-.438.258zM61.37 27.115l-.441.258-.474.277-3.383 1.984-.472.277-.442.26-.03.019-.441.259-.472.277-1.339.784-.472.277-.443.259-.028.02-.442.259-.472.276-.073.043-.471.275-.442.26-.03.019-.44.259-.472.276-.389.228-7.619-2.284-9.262-2.778-1.146-.344-.549-.164-.438-.133-.108-.031-.438-.133-.547-.163-.146-.045-.106-.031-.44-.132-.547-.164-.678-.204-.548-.164-.438-.132-.108-.032-.439-.132-.548-.164-3.632-1.089-.55-.167-.438-.134 11.668-5.608 28.725 7.382z" fill="#fff"/></svg>