<?xml version="1.0" encoding="utf-8"?>
<!-- Generator: Adobe Illustrator 16.0.0, SVG Export Plug-In . SVG Version: 6.00 Build 0)  -->
<!DOCTYPE svg PUBLIC "-//W3C//DTD SVG 1.1//EN" "http://www.w3.org/Graphics/SVG/1.1/DTD/svg11.dtd">
<svg version="1.1" id="Capa_1" xmlns="http://www.w3.org/2000/svg" xmlns:xlink="http://www.w3.org/1999/xlink" x="0px" y="0px"
	 width="334.643px" height="334.645px" viewBox="0 0 334.643 334.645" enable-background="new 0 0 334.643 334.645"
	 xml:space="preserve">
<path fill="#FFFFFF" d="M166.867,306.656c-1.698,0-3.405-0.659-4.705-1.949c-2.599-2.599-2.599-6.81,0-9.408l2.227-2.227
	c43.707-43.706,87.413-87.412,131.371-130.876c3.882-4.497,7.589-10.111,10.689-16.313c4.211-9.087,6.386-19.397,6.386-30.477
	c0-20.168-6.869-36.841-21.009-50.975c-14.13-14.134-30.807-21.008-50.966-21.008c-20.169,0-36.846,6.875-50.975,21.008
	c-7.503,7.502-13.082,15.854-16.581,24.816c-0.979,2.508-3.371,4.176-6.056,4.232c-2.808-0.017-5.146-1.516-6.229-3.976
	c-4.159-9.473-9.772-17.673-17.171-25.072c-14.13-14.134-30.802-21.008-50.971-21.008c-20.164,0-36.836,6.875-50.97,21.008
	c-14.299,14.295-21.251,30.972-21.251,50.975c0,11.21,2.239,21.476,6.653,30.529c2.79,6.039,6.389,11.591,10.764,16.633
	c2.408,2.772,2.114,6.965-0.658,9.374c-2.785,2.426-6.983,2.114-9.383-0.659c-5.202-5.986-9.486-12.596-12.739-19.648
	c-5.246-10.751-7.936-22.983-7.936-36.229c0-23.382,8.46-43.698,25.141-60.383c16.525-16.521,36.84-24.898,60.378-24.898
	c23.547,0,43.858,8.378,60.379,24.898c5.24,5.246,9.815,11.002,13.662,17.201c3.673-6.09,8.203-11.842,13.559-17.201
	c16.521-16.521,36.835-24.898,60.383-24.898c23.538,0,43.854,8.378,60.375,24.898c16.521,16.521,24.906,36.836,24.906,60.383
	c0,13.029-2.6,25.228-7.711,36.238c-3.672,7.39-8.013,13.939-12.978,19.639c-44.277,43.819-87.966,87.509-131.664,131.197
	l-2.219,2.227C170.271,305.996,168.566,306.656,166.867,306.656z"/>
<path fill="#FFFFFF" d="M166.867,306.656c-1.698,0-3.396-0.641-4.688-1.94l-44.047-43.854
	c-29.91-29.803-59.777-59.561-89.756-89.206c-2.612-2.591-2.633-6.8-0.052-9.409c2.595-2.607,6.788-2.633,9.409-0.051
	c29.988,29.654,59.868,59.43,89.786,89.24l44.036,43.854c2.607,2.582,2.616,6.792,0.026,9.408
	C170.281,305.996,168.573,306.656,166.867,306.656z"/>
</svg>
