<?xml version="1.0" encoding="utf-8"?>
<!-- Generator: Adobe Illustrator 16.0.0, SVG Export Plug-In . SVG Version: 6.00 Build 0)  -->
<!DOCTYPE svg PUBLIC "-//W3C//DTD SVG 1.1//EN" "http://www.w3.org/Graphics/SVG/1.1/DTD/svg11.dtd">
<svg version="1.1" id="Capa_1" xmlns="http://www.w3.org/2000/svg" xmlns:xlink="http://www.w3.org/1999/xlink" x="0px" y="0px"
	 width="334.643px" height="334.645px" viewBox="0 0 334.643 334.645" enable-background="new 0 0 334.643 334.645"
	 xml:space="preserve">
<path fill="#FFFFFF" d="M167.713,313.165c-0.025,0-0.046,0-0.07,0c-2.102-0.024-4.057-1.096-5.203-2.862L80.595,183.959
	c-0.511-0.851-0.912-1.424-1.247-1.905l-0.556-0.809c-9.333-16.115-13.959-33.767-13.959-52.809
	c-0.245-28.948,10.082-53.97,30.687-74.325c20.318-20.317,45.237-30.632,74.038-30.632c28.715,0,53.702,10.306,74.272,30.632
	c20.369,20.372,30.685,45.369,30.685,74.325c0,19.614-4.875,37.684-14.495,53.716l-87.112,128.265
	C171.738,312.134,169.789,313.165,167.713,313.165z M169.557,36.035c-25.349,0-47.282,9.079-65.184,26.985
	c-18.125,17.905-27.197,39.888-26.985,65.36c0,17.095,3.952,32.203,12.069,46.239c0.675,0.949,1.232,1.75,1.795,2.7l76.583,118.211
	l81.603-120.142c8.241-13.751,12.521-29.652,12.521-46.951c0-25.505-9.08-47.516-26.986-65.417
	C216.864,45.122,194.849,36.035,169.557,36.035z"/>
<path fill="#FFFFFF" d="M168.638,185.203c-14.733,0-27.476-5.268-37.874-15.673c-10.416-10.683-15.667-23.476-15.667-38.1
	c0-14.724,5.271-27.467,15.667-37.868c10.134-10.387,22.577-15.68,36.928-15.68l1.054,0.008l0.835-0.008
	c14.249,0,26.752,5.271,37.155,15.676c10.397,10.405,15.669,23.148,15.669,37.872c0,14.625-5.251,27.417-15.615,38.051
	C196.062,179.951,183.266,185.203,168.638,185.203z M168.494,90.446c-11.812,0-20.958,3.91-28.793,11.938
	c-8.122,8.131-12.049,17.61-12.049,29.046c0,11.385,3.942,20.972,12.049,29.283c8.013,8.007,17.497,11.925,28.937,11.925
	c11.393,0,20.968-3.942,29.273-12.04c7.996-8.196,11.938-17.783,11.938-29.168c0-11.436-3.927-20.915-11.996-28.993
	c-8.073-8.073-17.323-12-28.272-12c-0.073,0.004-0.973,0.021-1.055,0.008C168.514,90.446,168.502,90.446,168.494,90.446z"/>
</svg>
