<?xml version="1.0" encoding="utf-8"?>
<!-- Generator: Adobe Illustrator 16.0.0, SVG Export Plug-In . SVG Version: 6.00 Build 0)  -->
<!DOCTYPE svg PUBLIC "-//W3C//DTD SVG 1.1//EN" "http://www.w3.org/Graphics/SVG/1.1/DTD/svg11.dtd">
<svg version="1.1" id="Capa_1" xmlns="http://www.w3.org/2000/svg" xmlns:xlink="http://www.w3.org/1999/xlink" x="0px" y="0px"
	 width="334.643px" height="334.645px" viewBox="0 0 334.643 334.645" enable-background="new 0 0 334.643 334.645"
	 xml:space="preserve">
<path fill="#565656" d="M308.669,200.236c-0.173,0-0.345-0.009-0.521-0.017c-3.252-0.257-5.836-2.854-6.067-6.121
	c-0.22-3.085-0.666-6.171-1.299-8.913c-1.813-6.422-5.402-12.456-10.594-17.648c-7.668-7.668-16.681-11.398-27.555-11.398
	c-8.571,0-15.985,2.235-22.669,6.844c-0.428,0.282-0.653,0.558-1.031,0.927c-0.25,0.258-0.52,0.481-0.807,0.688
	c-1.367,0.98-2.555,1.951-3.525,2.931c-6.593,6.593-10.508,13.985-11.988,22.634c-0.54,3.164-3.287,5.483-6.502,5.483
	c-0.018,0-0.035,0-0.053,0c-3.231-0.025-5.973-2.39-6.467-5.587c-1.496-9.636-5.847-18.103-12.924-25.187
	c-7.574-7.367-16.639-11.552-26.881-12.387c-1.624-0.248-2.708-0.214-3.589-0.214c-9.997,0-18.106,2.459-25.268,7.513
	c-0.263,0.181-0.542,0.343-0.833,0.499c-0.507,0.258-0.621,0.361-0.741,0.481c-0.262,0.258-0.541,0.499-0.837,0.706
	c-1.407,0.997-2.803,2.208-4.006,3.403c-7.049,7.273-11.51,15.654-13.182,24.86c-0.577,3.138-3.12,5.398-6.516,5.416
	c-3.199-0.018-5.927-2.312-6.478-5.467c-1.479-8.434-5.265-15.697-11.575-22.221c-7.59-7.591-16.684-11.322-27.722-11.322
	c-11.196,0-20.372,3.73-28.041,11.398c-6.266,6.481-9.962,13.848-11.222,22.461c-0.499,3.431-3.593,5.871-7.006,5.631
	c-3.452-0.259-6.121-3.13-6.121-6.585v-1.22c-0.258-4.677-0.485-9-0.485-13.565c0-41.277,14.829-77.163,44.072-106.651
	c29.527-29.282,65.413-44.111,106.686-44.111c41.368,0,77.178,14.832,106.431,44.09c29.417,29.415,44.331,65.307,44.331,106.672
	c0,3.319-0.246,6.636-0.504,9.955c-0.554,4.004-1.319,7.581-2.088,10.898C314.398,198.13,311.716,200.236,308.669,200.236z
	 M165.717,139.067c2.012,0,3.847,0.035,5.681,0.326c12.839,1.023,24.643,6.457,34.536,16.084c4.28,4.271,7.778,8.939,10.494,13.968
	c2.396-3.997,5.339-7.753,8.829-11.243c1.328-1.333,2.913-2.683,4.748-4.023c0.887-0.859,1.578-1.47,2.525-2.115
	c8.783-6.043,18.928-9.129,30.103-9.129c14.351,0,26.764,5.141,36.89,15.267c1.654,1.658,3.188,3.387,4.599,5.174
	c-2.312-33.473-15.49-61.853-40.101-86.454c-26.687-26.695-59.355-40.229-97.096-40.229c-38.2,0-70.045,13.165-97.355,40.247
	c-23.6,23.801-36.632,51.089-39.568,83.049c0.516-0.584,1.045-1.15,1.586-1.71c10.208-10.203,22.783-15.344,37.453-15.344
	c14.51,0,27.005,5.141,37.135,15.267c3.434,3.549,6.293,7.272,8.601,11.191c2.716-4.883,6.171-9.49,10.34-13.789
	c1.745-1.736,3.567-3.3,5.36-4.607c0.954-0.877,1.977-1.599,3.218-2.268C142.945,142.317,153.717,139.067,165.717,139.067z"/>
<path fill="#565656" d="M129.373,310.971c-12.108,0-22.402-4.161-30.593-12.361c-8.355-8.354-12.589-18.645-12.589-30.584
	c0-3.646,2.953-6.602,6.598-6.602s6.596,2.956,6.596,6.602c0,8.312,2.941,15.464,8.73,21.266c5.704,5.709,12.657,8.477,21.258,8.477
	c8.317,0,15.387-2.855,21.018-8.484c4.745-4.753,7.546-10.222,8.561-16.703c0.193-1.341,0.167-2.938,0.167-4.555
	c0-2.09,0.223-4.179,0.481-6.035V150.276c0-3.645,2.953-6.602,6.598-6.602c3.646,0,6.599,2.957,6.599,6.602v112.178
	c0,0.311-0.023,0.619-0.064,0.929c-0.203,1.41-0.417,3.026-0.417,4.643c0,2.268-0.026,4.537-0.311,6.515
	c-1.452,9.293-5.578,17.365-12.279,24.069C151.529,306.81,141.317,310.971,129.373,310.971z"/>
</svg>
