<?xml version="1.0" encoding="iso-8859-1"?>
<!-- Generator: Adobe Illustrator 16.0.0, SVG Export Plug-In . SVG Version: 6.00 Build 0)  -->
<!DOCTYPE svg PUBLIC "-//W3C//DTD SVG 1.1//EN" "http://www.w3.org/Graphics/SVG/1.1/DTD/svg11.dtd">
<svg version="1.1" id="Capa_1" xmlns="http://www.w3.org/2000/svg" xmlns:xlink="http://www.w3.org/1999/xlink" x="0px" y="0px"
	 width="334.643px" height="334.645px" viewBox="0 0 334.643 334.645" style="enable-background:new 0 0 334.643 334.645;"
	 xml:space="preserve">
<g>
	<path style="fill:#565656;" d="M182.501,35.73h-30.094c-13.83,0-25.084,11.254-25.084,25.084c0,2.77,2.249,5.018,5.015,5.018
		c2.77,0,5.018-2.248,5.018-5.018c0-8.298,6.753-15.047,15.051-15.047h30.094c8.298,0,15.056,6.75,15.056,15.047
		c0,2.77,2.244,5.018,5.01,5.018c2.774,0,5.019-2.248,5.019-5.018C207.585,46.985,196.335,35.73,182.501,35.73L182.501,35.73z
		 M182.501,35.73"/>
	<path style="fill:#565656;" d="M112.273,65.832c2.77,0,5.018-2.248,5.018-5.018c0-18.045,17.068-35.113,35.117-35.113h30.094
		c18.385,0,35.117,16.732,35.117,35.113c0,2.77,2.248,5.018,5.014,5.018c2.774,0,5.019-2.248,5.019-5.018
		c0-24.049-21.101-45.149-45.149-45.149h-30.094c-23.626,0-45.149,21.523-45.149,45.149
		C107.258,63.584,109.502,65.832,112.273,65.832L112.273,65.832z M112.273,65.832"/>
	<path style="fill:#565656;" d="M312.931,231.374c-2.766,0-5.019,2.249-5.019,5.015v55.182c0,8.298-6.749,15.047-15.047,15.047
		H42.044c-8.298,0-15.047-6.749-15.047-15.047v-55.182c0-2.766-2.252-5.015-5.019-5.015c-2.766,0-5.018,2.249-5.018,5.019v55.178
		c0,13.834,11.254,25.084,25.084,25.084h250.822c13.834,0,25.084-11.25,25.084-25.084v-55.182
		C317.949,233.623,315.701,231.374,312.931,231.374L312.931,231.374z M312.931,231.374"/>
	<path style="fill:#565656;" d="M292.865,75.865H42.044c-13.83,0-25.084,11.25-25.084,25.08v100.327
		c0,13.83,11.254,25.084,25.084,25.084h110.364c2.766,0,5.014-2.244,5.014-5.01v-45.153h20.066v45.153
		c0,2.766,2.248,5.01,5.014,5.01h110.364c13.83,0,25.084-11.254,25.084-25.084V100.945
		C317.949,87.115,306.699,75.865,292.865,75.865L292.865,75.865z M307.912,201.272c0,8.303-6.749,15.052-15.047,15.052H187.52
		v-40.131c0-5.532-4.496-10.033-10.032-10.033h-20.066c-5.532,0-10.033,4.501-10.033,10.033v40.131H42.044
		c-8.298,0-15.047-6.749-15.047-15.052V100.945c0-8.298,6.75-15.047,15.047-15.047h25.083v115.374c0,2.774,2.244,5.019,5.015,5.019
		c2.77,0,5.014-2.244,5.014-5.019V85.898h180.597v115.374c0,2.774,2.244,5.019,5.01,5.019c2.771,0,5.019-2.244,5.019-5.019V85.898
		h25.084c8.298,0,15.047,6.75,15.047,15.047V201.272z M307.912,201.272"/>
	<path style="fill:#565656;" d="M172.622,246.421c0-2.766-2.244-5.019-5.019-5.019h-0.05c-2.766,0-4.993,2.253-4.993,5.019
		c0,2.774,2.277,5.019,5.043,5.019C170.378,251.44,172.622,249.196,172.622,246.421L172.622,246.421z M172.622,246.421"/>
	<path style="fill:#565656;" d="M152.407,236.393c-2.77,0-5.019,2.244-5.019,5.01v15.056c0,5.532,4.501,10.028,10.037,10.028h20.062
		c5.536,0,10.032-4.496,10.032-10.028v-15.056c0-2.766-2.244-5.01-5.019-5.01c-2.766,0-5.014,2.244-5.014,5.01v15.056h-20.062
		v-15.056C157.422,238.637,155.174,236.393,152.407,236.393L152.407,236.393z M152.407,236.393"/>
</g>
</svg>
