<?xml version="1.0" encoding="utf-8"?>
<!-- Generator: Adobe Illustrator 16.0.0, SVG Export Plug-In . SVG Version: 6.00 Build 0)  -->
<!DOCTYPE svg PUBLIC "-//W3C//DTD SVG 1.1//EN" "http://www.w3.org/Graphics/SVG/1.1/DTD/svg11.dtd">
<svg version="1.1" id="Capa_1" xmlns="http://www.w3.org/2000/svg" xmlns:xlink="http://www.w3.org/1999/xlink" x="0px" y="0px"
	 width="334.643px" height="334.645px" viewBox="0 0 334.643 334.645" enable-background="new 0 0 334.643 334.645"
	 xml:space="preserve">
<path fill="#FFFFFF" d="M245.134,288.148H122.897c-15.865,0-24.606-8.742-24.606-24.606V150.972c0-2.909,2.36-5.263,5.27-5.263
	c2.909,0,5.27,2.354,5.27,5.263v112.569c0,9.991,4.076,14.073,14.067,14.073h122.237c9.991,0,14.066-4.082,14.066-14.073V150.972
	c0-2.909,2.361-5.263,5.27-5.263c2.91,0,5.271,2.354,5.271,5.263v112.569C269.741,279.406,260.998,288.148,245.134,288.148z"/>
<path fill="#FFFFFF" d="M201.039,131.286c-1.565,0-3.114-0.687-4.151-2.018c-14.053-17.937-14.053-36.903,0-54.847
	c1.784-2.288,5.099-2.7,7.391-0.899c2.291,1.794,2.697,5.105,0.898,7.397c-11.026,14.084-11.026,27.773,0,41.857
	c1.799,2.292,1.393,5.6-0.898,7.397C203.318,130.929,202.172,131.286,201.039,131.286z"/>
<path fill="#FFFFFF" d="M153.459,81.585c-1.578,0-3.135-0.703-4.179-2.048c-13.168-17.058-13.223-35.939-0.144-54.593
	c1.674-2.381,4.955-2.964,7.342-1.29c2.381,1.671,2.958,4.955,1.291,7.335c-10.458,14.917-10.505,28.693-0.144,42.111
	c1.777,2.302,1.352,5.609-0.954,7.387C155.71,81.228,154.578,81.585,153.459,81.585z"/>
<path fill="#FFFFFF" d="M100.651,259.327h-2.704c-13.264,0-24.668-4.68-33.897-13.922c-9.236-9.229-13.923-20.634-13.923-33.891
	c0-13.258,4.687-24.661,13.923-33.896c9.202-9.21,20.482-13.752,33.465-13.738c1.407-0.221,2.731-0.18,4.186,0.109
	c2.854,0.589,4.693,3.361,4.11,6.215c-0.583,2.856-3.348,4.694-6.21,4.118c-0.274-0.055-0.329-0.055-0.604,0
	c-0.371,0.069-0.659,0.109-1.139,0.096c-10.066-0.247-19.021,3.309-26.356,10.636c-7.294,7.301-10.835,15.954-10.835,26.46
	s3.541,19.158,10.835,26.445c7.288,7.287,15.934,10.835,26.446,10.835h2.704c2.91,0,5.27,2.354,5.27,5.263
	S103.56,259.327,100.651,259.327z"/>
<path fill="#FFFFFF" d="M154.606,131.491c-1.023,0-2.065-0.302-2.972-0.933c-2.402-1.647-3.012-4.927-1.365-7.321
	c9.792-14.263,9.792-28.13,0-42.393c-1.647-2.398-1.037-5.678,1.365-7.325c2.395-1.65,5.682-1.032,7.321,1.363
	c12.194,17.769,12.194,36.55,0,54.318C157.933,130.682,156.286,131.491,154.606,131.491z"/>
<path fill="#FFFFFF" d="M264.47,152.379H103.945c-2.91,0-5.271-2.361-5.271-5.27c0-2.91,2.361-5.27,5.271-5.27H264.47
	c2.91,0,5.271,2.36,5.271,5.27C269.741,150.018,267.38,152.379,264.47,152.379z"/>
<path fill="#FFFFFF" d="M270.276,310.971H99.498c-2.909,0-5.27-2.36-5.27-5.271c0-2.909,2.361-5.261,5.27-5.261h170.778
	c2.909,0,5.271,2.352,5.271,5.261C275.546,308.611,273.185,310.971,270.276,310.971z"/>
</svg>
