<?xml version="1.0" encoding="iso-8859-1"?>
<!-- Generator: Adobe Illustrator 16.0.0, SVG Export Plug-In . SVG Version: 6.00 Build 0)  -->
<!DOCTYPE svg PUBLIC "-//W3C//DTD SVG 1.1//EN" "http://www.w3.org/Graphics/SVG/1.1/DTD/svg11.dtd">
<svg version="1.1" id="Capa_1" xmlns="http://www.w3.org/2000/svg" xmlns:xlink="http://www.w3.org/1999/xlink" x="0px" y="0px"
	 width="334.643px" height="334.645px" viewBox="0 0 334.643 334.645" style="enable-background:new 0 0 334.643 334.645;"
	 xml:space="preserve">
<g>
	<path style="fill:#565656;" d="M44.769,211.636h89.069c6.14,0,11.135-4.989,11.135-11.131v-22.271
		c0-6.138-4.995-11.135-11.135-11.135H72.602c-3.071,0-5.564,2.495-5.564,5.57c0,3.07,2.495,5.564,5.564,5.564h61.236v22.271H44.769
		v-22.271h5.567c3.068,0,5.564-2.494,5.564-5.564V83.601c0-3.073-2.497-5.57-5.564-5.57c-3.075,0-5.567,2.497-5.567,5.57v83.5
		c-6.14,0-11.135,4.998-11.135,11.135v22.271C33.634,206.647,38.63,211.636,44.769,211.636L44.769,211.636z"/>
	<g>
		<path style="fill:#565656;" d="M111.737,226.987l-5.564,22.267c-0.743,2.984,1.068,6.001,4.047,6.753
			c0.457,0.111,0.907,0.162,1.358,0.162c2.497,0,4.76-1.688,5.395-4.216l5.567-22.258c0.746-2.989-1.072-6.014-4.05-6.757
			C115.511,222.19,112.489,224.005,111.737,226.987L111.737,226.987z"/>
		<path style="fill:#565656;" d="M44.769,66.901h61.236c3.073,0,5.564-2.495,5.564-5.564c0-3.075-2.491-5.567-5.564-5.567H44.769
			v-22.27h89.069v22.27h-5.565c-3.072,0-5.569,2.492-5.569,5.563v89.07c0,3.073,2.497,5.565,5.569,5.565
			c3.069,0,5.565-2.492,5.565-5.565V66.901c6.14,0,11.135-4.995,11.135-11.133v-22.27c0-6.139-4.995-11.134-11.135-11.134H44.769
			c-6.14,0-11.135,4.995-11.135,11.134v22.27C33.634,61.907,38.63,66.901,44.769,66.901L44.769,66.901z"/>
	</g>
	<path style="fill:#565656;" d="M150.539,100.301h133.604c3.07,0,5.564-2.494,5.564-5.567c0-3.07-2.494-5.564-5.564-5.564H150.539
		c-3.071,0-5.565,2.495-5.565,5.564C144.973,97.807,147.468,100.301,150.539,100.301L150.539,100.301z"/>
	<path style="fill:#565656;" d="M168.87,224.399l-22.267,22.271c-2.178,2.179-2.178,5.692,0,7.867
		c1.083,1.09,2.51,1.632,3.935,1.632c1.426,0,2.849-0.542,3.936-1.632l22.267-22.262c2.178-2.179,2.178-5.697,0-7.876
		C174.567,222.22,171.042,222.22,168.87,224.399L168.87,224.399z"/>
	<path style="fill:#565656;" d="M60.115,222.938c-2.979,0.743-4.79,3.768-4.048,6.757l5.565,22.258
		c0.639,2.527,2.902,4.216,5.396,4.216c0.451,0,0.901-0.051,1.356-0.162c2.979-0.752,4.794-3.769,4.049-6.753l-5.566-22.267
		C66.123,224.005,63.101,222.19,60.115,222.938L60.115,222.938z"/>
	<path style="fill:#565656;" d="M323.11,78.031h-11.131c-6.142,0-11.135,4.996-11.135,11.138v27.833
		c0,3.076,2.494,5.564,5.565,5.564c3.069,0,5.568-2.489,5.568-5.564V89.168h11.131v55.668h-11.131v-5.569
		c0-3.071-2.499-5.564-5.568-5.564h-155.87c-3.071,0-5.565,2.493-5.565,5.564c0,3.073,2.494,5.569,5.565,5.569h150.305
		c0,6.142,4.993,11.131,11.135,11.131h11.131c6.143,0,11.136-4.989,11.136-11.131V89.168
		C334.244,83.027,329.251,78.031,323.11,78.031L323.11,78.031z"/>
	<g>
		<path style="fill:#565656;" d="M161.672,267.307H16.934c-9.207,0-16.7,7.491-16.7,16.7v22.266c0,3.071,2.494,5.569,5.567,5.569
			h167.006c3.07,0,5.565-2.498,5.565-5.569v-22.266C178.372,274.798,170.88,267.307,161.672,267.307L161.672,267.307z
			 M167.239,300.706H11.371v-16.699c0-3.067,2.497-5.57,5.563-5.57h144.738c3.065,0,5.566,2.503,5.566,5.57V300.706L167.239,300.706
			z"/>
		<path style="fill:#565656;" d="M24.135,254.535c1.085,1.09,2.509,1.632,3.932,1.632c1.43,0,2.852-0.542,3.938-1.632
			c2.174-2.175,2.174-5.693,0-7.876L9.737,224.399c-2.178-2.179-5.692-2.179-7.871,0c-2.177,2.179-2.177,5.697,0,7.876
			L24.135,254.535z"/>
	</g>
</g>
</svg>
