<?xml version="1.0" encoding="iso-8859-1"?>
<!-- Generator: Adobe Illustrator 16.0.0, SVG Export Plug-In . SVG Version: 6.00 Build 0)  -->
<!DOCTYPE svg PUBLIC "-//W3C//DTD SVG 1.1//EN" "http://www.w3.org/Graphics/SVG/1.1/DTD/svg11.dtd">
<svg version="1.1" id="Capa_1" xmlns="http://www.w3.org/2000/svg" xmlns:xlink="http://www.w3.org/1999/xlink" x="0px" y="0px"
	 width="334.643px" height="334.645px" viewBox="0 0 334.643 334.645" style="enable-background:new 0 0 334.643 334.645;"
	 xml:space="preserve">
<g>
	<path style="fill:#565656;" d="M98.702,314.252H36.015c-8.638,0-15.672-7.029-15.672-15.678V37.388
		c0-8.642,7.034-15.674,15.672-15.674h62.688c2.888,0,5.223-2.339,5.223-5.227c0-2.881-2.335-5.221-5.223-5.221H36.015
		c-14.403,0-26.121,11.718-26.121,26.121v261.187c0,14.405,11.718,26.128,26.121,26.128h62.688c2.888,0,5.223-2.347,5.223-5.226
		C103.926,316.589,101.591,314.252,98.702,314.252L98.702,314.252z"/>
	<path style="fill:#565656;" d="M208.403,288.134c0,2.879,2.332,5.216,5.222,5.216h73.138c2.889,0,5.226-2.337,5.226-5.216V47.835
		c0-2.886-2.337-5.227-5.226-5.227h-73.134c-2.894,0-5.226,2.339-5.226,5.227c0,2.884,2.332,5.223,5.226,5.223h67.908v229.852
		h-67.908C210.735,282.908,208.403,285.245,208.403,288.134L208.403,288.134z"/>
	<path style="fill:#565656;" d="M218.849,262.016h36.568c2.889,0,5.221-2.346,5.221-5.229c0-2.88-2.332-5.222-5.221-5.222h-36.568
		c-2.889,0-5.222,2.342-5.222,5.222C213.627,259.67,215.96,262.016,218.849,262.016L218.849,262.016z"/>
	<path style="fill:#565656;" d="M218.849,199.329h36.568c2.889,0,5.221-2.348,5.221-5.227c0-2.884-2.332-5.226-5.221-5.226h-36.568
		c-2.889,0-5.222,2.342-5.222,5.226C213.627,196.983,215.96,199.329,218.849,199.329L218.849,199.329z"/>
	<path style="fill:#565656;" d="M218.849,241.115h36.568c2.889,0,5.221-2.338,5.221-5.222s-2.332-5.226-5.221-5.226h-36.568
		c-2.889,0-5.222,2.342-5.222,5.226S215.96,241.115,218.849,241.115L218.849,241.115z"/>
	<path style="fill:#565656;" d="M218.849,220.222h36.568c2.889,0,5.221-2.337,5.221-5.226c0-2.879-2.332-5.222-5.221-5.222h-36.568
		c-2.889,0-5.222,2.343-5.222,5.222C213.627,217.885,215.96,220.222,218.849,220.222L218.849,220.222z"/>
	<path style="fill:#565656;" d="M83.031,162.76c-2.891,0-5.226,2.339-5.226,5.221c0,2.884,2.334,5.227,5.226,5.227h0.216
		c0.433,5.763,1.572,11.119,3.271,15.868l-1.328,1.326c-2.047,2.043-2.047,5.353-0.007,7.396c1.02,1.019,2.363,1.533,3.697,1.533
		c0.836,0,1.64-0.276,2.396-0.674c3.449,5.133,7.78,8.782,12.648,10.307v0.809c0,2.89,2.332,5.227,5.225,5.227
		c2.885,0,5.222-2.337,5.222-5.227v-0.809c4.902-1.533,9.261-5.221,12.727-10.414c0.797,0.454,1.659,0.781,2.56,0.781
		c1.336,0,2.673-0.516,3.689-1.528c2.038-2.043,2.038-5.352,0-7.39l-1.503-1.516c1.664-4.702,2.781-10.002,3.207-15.689h0.215
		c2.889,0,5.223-2.343,5.223-5.227c0-2.881-2.334-5.221-5.223-5.221h-0.215c-0.425-5.653-1.521-10.914-3.169-15.595l1.465-1.469
		c2.038-2.044,2.038-5.352,0-7.392c-1.683-1.692-4.207-1.896-6.195-0.797c-3.468-5.242-7.848-8.962-12.78-10.509v-0.812
		c0-2.879-2.337-5.221-5.227-5.221c-2.889,0-5.221,2.342-5.221,5.221V127c-4.898,1.538-9.252,5.218-12.718,10.403
		c-1.958-0.995-4.382-0.74-6.022,0.902c-2.042,2.04-2.042,5.347,0,7.385l1.297,1.295c-1.688,4.73-2.812,10.055-3.241,15.771h-0.21
		L83.031,162.76L83.031,162.76z M97.405,147.682c0.013-0.014,0.013-0.028,0.021-0.042c3.087-6.894,7.539-11,11.725-11
		c7.413,0,15.669,12.872,15.669,31.346c0,18.473-8.256,31.345-15.669,31.345c-7.415,0-15.674-12.872-15.674-31.345
		C93.477,159.958,95.04,152.998,97.405,147.682L97.405,147.682z"/>
	<path style="fill:#565656;" d="M177.059,298.574V37.388c0-2.886-2.332-5.226-5.221-5.226s-5.227,2.339-5.227,5.226v261.187
		c0,2.89,2.338,5.227,5.227,5.227S177.059,301.464,177.059,298.574L177.059,298.574z"/>
	<path style="fill:#565656;" d="M297.207,11.268h-83.58c-2.894,0-5.226,2.339-5.226,5.221c0,2.887,2.332,5.227,5.226,5.227h83.58
		c8.642,0,15.672,7.032,15.672,15.674v261.187c0,8.647-7.03,15.678-15.672,15.678h-83.58c-2.894,0-5.226,2.337-5.226,5.221
		s2.332,5.226,5.226,5.226h83.58c14.399,0,26.123-11.718,26.123-26.123V37.388C323.33,22.983,311.608,11.268,297.207,11.268
		L297.207,11.268z"/>
	<path style="fill:#565656;" d="M109.151,178.432c2.885,0,5.224-2.342,5.224-5.226V162.76c0-2.886-2.339-5.226-5.224-5.226
		c-2.888,0-5.225,2.339-5.225,5.226v10.446C103.926,176.09,106.262,178.432,109.151,178.432L109.151,178.432z"/>
	<path style="fill:#565656;" d="M195.063,22.261l-20.888-10.444c-1.122-0.554-2.398-0.7-3.608-0.393L45.197,42.766
		c-2.327,0.582-3.957,2.671-3.957,5.069v26.118h-5.225c-2.889,0-5.221,2.342-5.221,5.226v41.79c0,2.881,2.333,5.221,5.221,5.221
		H56.91c2.889,0,5.223-2.339,5.223-5.221v-41.79c0-2.884-2.334-5.226-5.223-5.226h-5.226V51.915L171.23,22.028l16.275,8.143v275.628
		l-16.275,8.137L51.685,284.049v-6.366c0-2.879-2.333-5.226-5.221-5.226s-5.223,2.347-5.223,5.226v10.451
		c0,0.141,0.069,0.253,0.081,0.393c0.028,0.364,0.105,0.692,0.211,1.042c0.091,0.313,0.177,0.612,0.328,0.902
		c0.152,0.299,0.35,0.562,0.553,0.822c0.21,0.271,0.408,0.515,0.661,0.733c0.245,0.216,0.517,0.379,0.807,0.542
		c0.304,0.184,0.601,0.342,0.949,0.453c0.133,0.047,0.222,0.142,0.369,0.179l125.376,31.344c0.411,0.103,0.837,0.153,1.263,0.153
		c0.804,0,1.606-0.19,2.337-0.547l20.888-10.451c1.771-0.888,2.895-2.691,2.895-4.674V26.94
		C197.956,24.958,196.834,23.149,195.063,22.261L195.063,22.261z M51.685,115.745H41.24V84.399h10.443L51.685,115.745
		L51.685,115.745z"/>
	<path style="fill:#565656;" d="M46.464,136.64c-2.888,0-5.223,2.339-5.223,5.223v67.913h-5.226c-2.889,0-5.221,2.337-5.221,5.222
		v41.789c0,2.885,2.333,5.229,5.221,5.229H56.91c2.889,0,5.223-2.346,5.223-5.229v-41.789c0-2.885-2.334-5.222-5.223-5.222h-5.226
		v-67.913C51.685,138.979,49.352,136.64,46.464,136.64L46.464,136.64z M51.685,251.565H41.24v-31.343h10.443L51.685,251.565
		L51.685,251.565z"/>
</g>
</svg>
