<?xml version="1.0" encoding="iso-8859-1"?>
<!-- Generator: Adobe Illustrator 16.0.0, SVG Export Plug-In . SVG Version: 6.00 Build 0)  -->
<!DOCTYPE svg PUBLIC "-//W3C//DTD SVG 1.1//EN" "http://www.w3.org/Graphics/SVG/1.1/DTD/svg11.dtd">
<svg version="1.1" id="Capa_1" xmlns="http://www.w3.org/2000/svg" xmlns:xlink="http://www.w3.org/1999/xlink" x="0px" y="0px"
	 width="334.643px" height="334.645px" viewBox="0 0 334.643 334.645" style="enable-background:new 0 0 334.643 334.645;"
	 xml:space="preserve">
<g>
	<g>
		<path style="fill:#565656;" d="M332.337,66.379c0.031-0.122,0.085-0.262,0.085-0.394c0.021-0.405,0-0.813-0.054-1.24
			c0-0.113,0-0.182,0-0.293c-0.104-0.569-0.294-1.07-0.564-1.58c-0.054-0.113-0.104-0.189-0.162-0.28c0,0,0-0.018,0-0.045
			c0,0-0.026,0-0.026-0.027c-0.051-0.055-0.081-0.136-0.109-0.193c-0.348-0.483-0.744-0.907-1.232-1.261
			c-0.075-0.081-0.212-0.107-0.319-0.188c-0.406-0.271-0.835-0.479-1.291-0.642c-0.217-0.054-0.43-0.081-0.618-0.135
			c-0.406-0.086-0.809-0.107-1.236-0.107c-0.218,0-0.43,0.021-0.646,0.054c-0.137,0.027-0.268,0-0.43,0.027L6.382,126.073
			c-2.257,0.483-4.004,2.313-4.329,4.623c-0.32,2.285,0.835,4.542,2.875,5.645l91.494,48.254l16.066,89.051
			c-0.031,0.081,0,0.149,0,0.199c-0.054,0.446-0.054,0.862,0,1.331c0.027,0.212,0.055,0.42,0.108,0.628
			c0.108,0.528,0.325,1.012,0.591,1.453c0.05,0.122,0.05,0.227,0.108,0.298c0.032,0.022,0.049,0.056,0.077,0.082
			c0.081,0.09,0.163,0.186,0.238,0.267c0.275,0.339,0.547,0.633,0.845,0.862c0.045,0.067,0.1,0.112,0.152,0.148
			c0.086,0.063,0.163,0.063,0.244,0.116c0.349,0.24,0.705,0.411,1.043,0.564c0.167,0.067,0.298,0.117,0.461,0.176
			c0.483,0.122,0.988,0.239,1.509,0.239h0.026c0.022,0,0.045-0.026,0.077-0.026c0.082,0.026,0.19,0.026,0.262,0.026
			c1.535,0,2.908-0.713,3.933-1.742l60.948-40.625l63.803,41.479c0.917,0.591,1.965,0.889,3.012,0.889
			c0.587,0,1.183-0.117,1.742-0.298c1.59-0.506,2.849-1.742,3.413-3.311l77.017-208.988c0.059-0.199,0.107-0.406,0.166-0.597
			c0.023-0.081,0.023-0.167,0.05-0.244C332.337,66.519,332.337,66.438,332.337,66.379L332.337,66.379z M268.62,101.497
			l-131.979,97.051c-0.217,0.162-0.402,0.361-0.591,0.532c-0.059,0.096-0.131,0.153-0.189,0.188
			c-0.136,0.136-0.212,0.285-0.32,0.407c-0.113,0.145-0.186,0.271-0.271,0.415c-0.208,0.324-0.38,0.659-0.506,1.034
			c-0.027,0.065-0.081,0.121-0.081,0.192c-0.032,0.022-0.054,0.022-0.054,0.046l-15.124,49.176l-11.981-66.512L268.62,101.497z
			 M128.041,261.122l14.992-49.537l23.339,15.183l6.69,4.338l-22.699,15.143L128.041,261.122z M288.339,79.038L101.42,174.78
			l-77.792-41.021L288.339,79.038z M247.154,266.138l-84.749-55.103l-12.843-8.325L315.448,80.731L247.154,266.138z"/>
	</g>
</g>
</svg>
