<?xml version="1.0" encoding="iso-8859-1"?>
<!-- Generator: Adobe Illustrator 16.0.0, SVG Export Plug-In . SVG Version: 6.00 Build 0)  -->
<!DOCTYPE svg PUBLIC "-//W3C//DTD SVG 1.1//EN" "http://www.w3.org/Graphics/SVG/1.1/DTD/svg11.dtd">
<svg version="1.1" id="Capa_1" xmlns="http://www.w3.org/2000/svg" xmlns:xlink="http://www.w3.org/1999/xlink" x="0px" y="0px"
	 width="334.643px" height="334.645px" viewBox="0 0 334.643 334.645" style="enable-background:new 0 0 334.643 334.645;"
	 xml:space="preserve">
<g>
	<g>
		<path style="fill:#565656;" d="M315.042,96.709L185.253,41.082c-11.409-4.891-24.503-4.882-35.927,0.008L19.568,96.7
			c-7.515,3.224-12.187,10.305-12.187,18.485c0,8.168,4.667,15.246,12.182,18.47l15.337,6.573c-0.017,0.158-0.024,0.321-0.024,0.483
			v72.58c-5.931,2.004-10.212,7.613-10.212,14.213c0,3.823,1.44,7.317,3.805,9.968c-2.616,2.563-4.353,6.036-4.709,9.98
			l-3.674,40.418c-0.252,2.762,0.675,5.522,2.545,7.567c1.871,2.046,4.532,3.225,7.306,3.225h19.449
			c2.774,0,5.436-1.179,7.304-3.225c1.87-2.045,2.799-4.807,2.547-7.567l-3.676-40.418c-0.355-3.944-2.093-7.415-4.711-9.98
			c2.366-2.649,3.811-6.145,3.811-9.968c0-6.6-4.286-12.209-10.213-14.213v-68.97l26.188,11.219
			c-0.017,0.157-0.021,0.324-0.021,0.482v36.548c0,15.25,10.438,29.358,29.406,39.728c18.049,9.872,41.938,15.309,67.277,15.309
			c25.335,0,49.231-5.437,67.277-15.309c18.966-10.368,29.411-24.478,29.411-39.728v-36.548c0-0.158-0.017-0.325-0.027-0.482
			l51.072-21.887c7.516-3.22,12.185-10.305,12.185-18.478C327.218,107.002,322.553,99.924,315.042,96.709L315.042,96.709z
			 M49.626,288.985c-0.099,0.108-0.202,0.108-0.239,0.108H29.938c-0.042,0-0.142,0-0.236-0.108c-0.097-0.104-0.085-0.208-0.083-0.24
			l3.674-40.428c0.302-3.314,3.043-5.814,6.373-5.814c3.326,0,6.064,2.5,6.367,5.814l3.676,40.428
			C49.71,288.777,49.718,288.88,49.626,288.985L49.626,288.985z M39.664,232.929c-2.993,0-5.429-2.437-5.429-5.423
			c0-2.991,2.436-5.424,5.429-5.424c2.988,0,5.424,2.433,5.424,5.424C45.088,230.492,42.653,232.929,39.664,232.929L39.664,232.929z
			 M254.413,172.151c0,12.375-10.186,24.459-27.946,33.153c-2.374,1.162-3.357,4.032-2.199,6.406
			c0.837,1.694,2.536,2.679,4.308,2.679c0.708,0,1.425-0.154,2.1-0.487c9.854-4.819,17.745-10.696,23.368-17.229
			c-1.786,10.098-10.172,19.637-24.057,27.234c-16.666,9.109-38.927,14.13-62.687,14.13c-23.758,0-46.02-5.021-62.685-14.13
			c-13.835-7.564-22.207-17.07-24.043-27.127c4.837,5.578,11.366,10.682,19.449,15.104c18.049,9.864,41.943,15.304,67.277,15.304
			c7.09,0,14.158-0.433,21.011-1.287c2.624-0.323,4.482-2.716,4.166-5.336c-0.334-2.624-2.716-4.489-5.341-4.161
			c-6.465,0.805-13.138,1.204-19.836,1.204c-23.758,0-46.02-5.016-62.686-14.13c-15.752-8.613-24.427-19.735-24.427-31.328v-12.509
			l69.16,29.637c5.698,2.441,11.822,3.666,17.947,3.666c6.127,0,12.263-1.229,17.979-3.674l69.14-29.629L254.413,172.151
			L254.413,172.151z M311.26,124.859l-129.756,55.61c-9.026,3.865-19.374,3.874-28.386,0.008l-99.17-42.5l90.864-15.8
			c4.09,4.832,12.415,8.002,22.487,8.002c14.371,0,25.21-6.448,25.21-14.992c0-8.556-10.839-15.004-25.21-15.004
			c-13.053,0-23.189,5.323-24.938,12.7L38.844,130.886c-0.306,0.054-0.598,0.138-0.873,0.242l-14.637-6.273
			c-3.995-1.712-6.377-5.328-6.377-9.668c0-4.349,2.385-7.973,6.383-9.688l129.756-55.61c4.522-1.933,9.364-2.899,14.211-2.899
			c4.842,0,9.674,0.963,14.177,2.892l129.785,55.626c3.99,1.712,6.377,5.324,6.377,9.672S315.259,123.143,311.26,124.859
			L311.26,124.859z M151.663,115.187c0-1.398,5.377-5.428,15.637-5.428s15.638,4.028,15.638,5.428c0,1.392-5.378,5.423-15.638,5.423
			S151.663,116.578,151.663,115.187L151.663,115.187z"/>
	</g>
	<path style="fill:#565656;" d="M203.031,223.244c0.358,0,0.727-0.037,1.083-0.125c3.616-0.837,7.175-1.805,10.581-2.884
		c2.517-0.795,3.915-3.485,3.12-6.002c-0.8-2.523-3.486-3.92-6.012-3.124c-3.165,1.004-6.477,1.903-9.843,2.684
		c-2.57,0.596-4.178,3.165-3.587,5.74C198.883,221.744,200.858,223.244,203.031,223.244L203.031,223.244z"/>
</g>
</svg>
