<?xml version="1.0" encoding="iso-8859-1"?>
<!-- Generator: Adobe Illustrator 16.0.0, SVG Export Plug-In . SVG Version: 6.00 Build 0)  -->
<!DOCTYPE svg PUBLIC "-//W3C//DTD SVG 1.1//EN" "http://www.w3.org/Graphics/SVG/1.1/DTD/svg11.dtd">
<svg version="1.1" id="Capa_1" xmlns="http://www.w3.org/2000/svg" xmlns:xlink="http://www.w3.org/1999/xlink" x="0px" y="0px"
	 width="334.643px" height="334.645px" viewBox="0 0 334.643 334.645" style="enable-background:new 0 0 334.643 334.645;"
	 xml:space="preserve">
<g>
	<path style="fill:#565656;" d="M642.501,60.814h-30.094c-13.83,0-25.084,11.254-25.084,25.084c0,2.77,2.248,5.018,5.015,5.018
		c2.771,0,5.019-2.248,5.019-5.018c0-8.298,6.753-15.047,15.051-15.047h30.094c8.298,0,15.056,6.75,15.056,15.047
		c0,2.77,2.244,5.018,5.01,5.018c2.774,0,5.019-2.248,5.019-5.018C667.585,72.069,656.335,60.814,642.501,60.814L642.501,60.814z
		 M642.501,60.814"/>
	<path style="fill:#565656;" d="M572.273,90.916c2.77,0,5.018-2.248,5.018-5.018c0-18.045,17.068-35.113,35.117-35.113h30.094
		c18.385,0,35.117,16.732,35.117,35.113c0,2.77,2.248,5.018,5.014,5.018c2.774,0,5.019-2.248,5.019-5.018
		c0-24.049-21.101-45.149-45.149-45.149h-30.094c-23.627,0-45.149,21.523-45.149,45.149
		C567.258,88.668,569.502,90.916,572.273,90.916L572.273,90.916z M572.273,90.916"/>
	<path style="fill:#565656;" d="M772.931,256.458c-2.766,0-5.019,2.249-5.019,5.015v55.182c0,8.298-6.749,15.047-15.047,15.047
		H502.044c-8.299,0-15.048-6.749-15.048-15.047v-55.182c0-2.766-2.253-5.015-5.019-5.015s-5.018,2.249-5.018,5.019v55.178
		c0,13.834,11.254,25.084,25.084,25.084h250.821c13.834,0,25.084-11.25,25.084-25.084v-55.182
		C777.949,258.707,775.701,256.458,772.931,256.458L772.931,256.458z M772.931,256.458"/>
	<path style="fill:#565656;" d="M752.865,100.949H502.044c-13.83,0-25.084,11.25-25.084,25.08v100.327
		c0,13.83,11.254,25.084,25.084,25.084h110.363c2.766,0,5.014-2.244,5.014-5.01v-45.153h20.066v45.153
		c0,2.766,2.248,5.01,5.014,5.01h110.364c13.83,0,25.084-11.254,25.084-25.084V126.029
		C777.949,112.199,766.699,100.949,752.865,100.949L752.865,100.949z M767.912,226.356c0,8.303-6.749,15.052-15.047,15.052H647.52
		v-40.131c0-5.532-4.496-10.033-10.032-10.033h-20.066c-5.531,0-10.032,4.501-10.032,10.033v40.131H502.044
		c-8.299,0-15.048-6.749-15.048-15.052V126.029c0-8.298,6.749-15.047,15.048-15.047h25.083v115.374c0,2.774,2.244,5.019,5.015,5.019
		c2.77,0,5.014-2.244,5.014-5.019V110.982h180.598v115.374c0,2.774,2.244,5.019,5.01,5.019c2.771,0,5.019-2.244,5.019-5.019V110.982
		h25.084c8.298,0,15.047,6.75,15.047,15.047V226.356z M767.912,226.356"/>
	<path style="fill:#565656;" d="M632.622,271.505c0-2.766-2.244-5.019-5.019-5.019h-0.05c-2.766,0-4.993,2.253-4.993,5.019
		c0,2.774,2.277,5.019,5.043,5.019C630.378,276.524,632.622,274.28,632.622,271.505L632.622,271.505z M632.622,271.505"/>
	<path style="fill:#565656;" d="M612.407,261.477c-2.77,0-5.019,2.244-5.019,5.01v15.056c0,5.532,4.501,10.028,10.037,10.028h20.062
		c5.536,0,10.032-4.496,10.032-10.028v-15.056c0-2.766-2.244-5.01-5.019-5.01c-2.766,0-5.014,2.244-5.014,5.01v15.056h-20.062
		v-15.056C617.421,263.721,615.173,261.477,612.407,261.477L612.407,261.477z M612.407,261.477"/>
</g>
<g>
	<path style="fill:#565656;" d="M248.581,172.69c-20.15,0-36.794,15.124-39.234,34.617h-54.764v-30.29
		c5.148-1.282,9.591-4.546,12.396-9.277L230.894,59.64c3.745-6.309,3.793-13.871,0.172-20.25
		c-3.626-6.366-10.168-10.159-17.516-10.159h-11.235c-2.797-5.856-8.691-9.911-15.576-9.911c-7.9,0-27.226,6.061-27.226,17.325
		c0,11.226,19.326,17.32,27.226,17.32c8.695,0,15.843-6.476,17.053-14.862h9.759c3.721,0,7.052,1.935,8.91,5.194
		c1.839,3.235,1.82,7.109-0.096,10.311l-63.917,108.113c-1.858,3.135-5.17,5.018-8.815,5.018c-3.671,0-6.959-1.882-8.867-5.065
		L75.061,54.609c-1.908-3.202-1.935-7.076-0.1-10.311c1.863-3.259,5.196-5.194,8.917-5.194h11.571
		c1.229,8.386,8.381,14.862,17.077,14.862c7.9,0,27.2-6.094,27.2-17.32c0-11.264-19.3-17.325-27.2-17.325
		c-6.883,0-12.803,4.055-15.581,9.911H83.878c-7.321,0-13.868,3.793-17.513,10.159c-3.624,6.38-3.552,13.942,0.214,20.298
		l65.707,108.076c2.804,4.708,7.247,7.971,12.396,9.253v30.29h-44.525c-30.001,0-54.423,24.424-54.423,54.428
		s24.422,54.424,54.423,54.424c30.004,0,54.426-24.42,54.426-54.424v-44.522h54.764c2.44,19.493,19.084,34.636,39.234,34.636
		c21.809,0,39.566-17.754,39.566-39.591C288.148,190.444,270.39,172.69,248.581,172.69L248.581,172.69z M186.739,44.054
		c-6.123,0-16.624-4.903-17.32-7.409c0.696-2.535,11.197-7.414,17.32-7.414c4.083,0,7.419,3.307,7.419,7.414
		C194.157,40.724,190.822,44.054,186.739,44.054L186.739,44.054z M112.527,29.231c6.113,0,16.62,4.879,17.299,7.414
		c-0.679,2.506-11.186,7.409-17.299,7.409c-4.105,0-7.417-3.331-7.417-7.409C105.11,32.538,108.422,29.231,112.527,29.231
		L112.527,29.231z M144.682,261.735c0,24.563-19.979,44.518-44.525,44.518c-24.543,0-44.518-19.955-44.518-44.518
		c0-24.543,19.974-44.522,44.518-44.522h44.525V261.735z M248.581,241.947c-16.382,0-29.694-13.308-29.694-29.689
		c0-16.353,13.313-29.685,29.694-29.685c16.353,0,29.685,13.332,29.685,29.685C278.266,228.639,264.934,241.947,248.581,241.947
		L248.581,241.947z M248.581,241.947"/>
	<path style="fill:#565656;" d="M248.581,192.474c-10.922,0-19.784,8.862-19.784,19.783s8.862,19.788,19.784,19.788
		c10.921,0,19.783-8.867,19.783-19.788S259.502,192.474,248.581,192.474L248.581,192.474z M248.581,222.163
		c-5.461,0-9.906-4.446-9.906-9.906c0-5.456,4.445-9.878,9.906-9.878c5.46,0,9.882,4.422,9.882,9.878
		C258.463,217.717,254.041,222.163,248.581,222.163L248.581,222.163z M248.581,222.163"/>
</g>
</svg>
