<?xml version="1.0" encoding="utf-8"?>
<!-- Generator: Adobe Illustrator 16.0.0, SVG Export Plug-In . SVG Version: 6.00 Build 0)  -->
<!DOCTYPE svg PUBLIC "-//W3C//DTD SVG 1.1//EN" "http://www.w3.org/Graphics/SVG/1.1/DTD/svg11.dtd">
<svg version="1.1" id="Capa_1" xmlns="http://www.w3.org/2000/svg" xmlns:xlink="http://www.w3.org/1999/xlink" x="0px" y="0px"
	 width="334.643px" height="334.645px" viewBox="0 0 334.643 334.645" enable-background="new 0 0 334.643 334.645"
	 xml:space="preserve">
<g>
	<path fill="#FFFFFF" d="M314.836,57.236v-1.968l-130.777,131.66c-0.658,0.434-1.092,0.867-1.533,1.302
		c-2.835,2.843-5.895,4.802-8.729,6.336c4.144-1.316,8.296-3.935,12.447-7.638c0.434-0.658,0.875-1.1,1.526-1.533l10.914-10.914
		L315.494,57.674v-0.438H314.836L314.836,57.236z"/>
	<path fill="#FFFFFF" d="M174.996,198.346l-3.091-7.273c2.029-1.093,5.051-2.866,7.809-5.64c0.572-0.565,1.1-1.061,1.789-1.564
		l132.2-133.087l5.099,2.489l0.658,5.608l-1.162,1.6L188.885,189.887C184.206,194.063,179.535,196.905,174.996,198.346z"/>
</g>
<path fill="#FFFFFF" d="M11.136,270.81c-3.285,0-5.949-2.656-5.949-5.94V77.538c0-9.38,1.937-16.65,5.91-22.224
	c4.075-5.624,12.611-12.23,28.32-11.886h256.426c3.903-0.24,7.885,0.217,11.572,1.356c2.812,0.635,5.53,1.657,8.133,3.11
	c1.689,0.836,3.161,2.254,4.4,4.33c1.681,2.823,0.751,6.472-2.068,8.153c-2.827,1.688-6.476,0.747-8.156-2.064
	c-1.588-0.934-3.27-1.561-5.399-2.053c-2.742-0.829-5.298-1.111-8.134-0.949l-256.89,0.008c-9.001-0.135-15.082,2.165-18.544,6.937
	c-2.463,3.455-3.672,8.467-3.672,15.283v187.331C17.085,268.154,14.421,270.81,11.136,270.81z"/>
<path fill="#FFFFFF" d="M324.007,270.81c-3.284,0-5.949-2.656-5.949-5.94V77.538c-0.178-6.255-1.394-11.243-3.617-14.655
	c-0.147-0.221-0.279-0.453-0.387-0.689c-1.898-2.401-1.867-6.042,0.355-8.176c2.324-2.235,5.833-2.401,8.103-0.131
	c0.558,0.55,1.519,1.502,2.208,3.005c3.276,5.275,4.988,11.983,5.229,20.477l0.008,187.501
	C329.956,268.154,327.291,270.81,324.007,270.81z"/>
<path fill="#FFFFFF" d="M295.843,298.975H39.301c-25.02-0.317-32.208-15.337-33.843-27.87c-0.255-2.029-0.271-4.005-0.271-6.235
	c0-3.285,2.665-5.941,5.949-5.941c3.284,0,5.949,2.656,5.949,5.941c0,1.703-0.016,3.214,0.17,4.732
	c1.573,12.068,8.195,17.305,22.123,17.49h256.465c15.391,0,22.037-6.669,22.215-22.293c0.039-3.261,2.696-5.871,5.949-5.871
	c0.023,0,0.047,0,0.07,0c3.284,0.031,5.918,2.727,5.879,6.011C329.7,286.891,317.585,298.975,295.843,298.975z"/>
<path fill="#FFFFFF" d="M323.999,270.818c-1.2,0-2.417-0.364-3.47-1.123l-125.323-90.396c-2.665-1.921-3.27-5.631-1.349-8.296
	c1.913-2.657,5.624-3.276,8.304-1.34l125.324,90.381c2.664,1.921,3.269,5.639,1.348,8.304
	C327.671,269.958,325.851,270.818,323.999,270.818z"/>
<path fill="#FFFFFF" d="M167.746,201.359c-8.064,0-15.818-3.633-23.208-10.829l-12.285-12.277c-2.324-2.315-2.324-6.088,0-8.404
	c2.316-2.324,6.081-2.339,8.412-0.008l12.231,12.224c8.722,8.497,15.19,7.939,19.288,6.777c2.881-0.914,6.174-2.928,9.628-5.933
	c0.612-0.791,1.294-1.465,2.1-2.068l10.565-10.566c2.324-2.315,6.088-2.315,8.412,0c2.324,2.324,2.324,6.089,0,8.412l-10.914,10.915
	c-0.279,0.278-0.581,0.526-0.906,0.743c-0.287,0.434-0.48,0.682-0.868,1.022c-4.888,4.354-9.798,7.344-14.608,8.861
	C172.951,200.98,170.333,201.359,167.746,201.359z"/>
<path fill="#FFFFFF" d="M11.144,270.81c-1.843,0-3.656-0.852-4.826-2.447c-1.921-2.665-1.332-6.383,1.333-8.304l125.323-90.83
	c2.649-1.937,6.359-1.333,8.304,1.332c1.921,2.657,1.333,6.375-1.332,8.304L14.622,269.679
	C13.569,270.453,12.352,270.81,11.144,270.81z"/>
<path fill="#FFFFFF" d="M198.684,180.429c-1.519,0-3.044-0.581-4.206-1.743c-2.324-2.323-2.324-6.088,0-8.412L311.288,53.468
	c2.323-2.316,6.088-2.324,8.412,0s2.324,6.088,0,8.412L202.89,178.686C201.728,179.84,200.202,180.429,198.684,180.429z"/>
<path fill="#FFFFFF" d="M136.46,179.995c-1.518,0-3.044-0.581-4.206-1.743L16.319,62.314c-2.324-2.324-2.324-6.089,0-8.413
	c2.324-2.316,6.088-2.324,8.412,0L140.666,169.84c2.324,2.324,2.324,6.089,0,8.412C139.504,179.406,137.978,179.995,136.46,179.995z
	"/>
</svg>
