<?xml version="1.0" encoding="utf-8"?>
<!-- Generator: Adobe Illustrator 16.0.0, SVG Export Plug-In . SVG Version: 6.00 Build 0)  -->
<!DOCTYPE svg PUBLIC "-//W3C//DTD SVG 1.1//EN" "http://www.w3.org/Graphics/SVG/1.1/DTD/svg11.dtd">
<svg version="1.1" id="Capa_1" xmlns="http://www.w3.org/2000/svg" xmlns:xlink="http://www.w3.org/1999/xlink" x="0px" y="0px"
	 width="334.643px" height="334.645px" viewBox="0 0 334.643 334.645" enable-background="new 0 0 334.643 334.645"
	 xml:space="preserve">
<path fill="#565656" d="M120.505,307.365c-20.831,0-39.008-7.484-54.021-22.25c-14.675-14.675-22.095-32.71-22.095-53.646
	c0-20.619,9.583-40.667,28.487-59.574L197.514,52.082c11.594-11.076,25.193-16.681,40.423-16.681
	c15.336,0,28.715,5.466,39.762,16.253c11.031,11.035,16.592,24.43,16.592,39.872c-0.261,14.671-5.308,27.349-15.002,37.806
	L147.267,263.894c-8.148,7.884-17.989,11.944-29.371,12.221c-11.797-0.276-21.589-4.37-29.392-12.181
	c-8.075-8.071-12.172-17.985-12.172-29.465c0-9.498,2.772-17.822,8.247-24.752c0.905-1.451,1.843-2.642,2.997-3.8l98.582-99.271
	c2.438-2.45,6.384-2.47,8.847-0.028c2.462,2.434,2.47,6.396,0.032,8.85l-98.586,99.279c-0.53,0.53-0.913,1.035-1.366,1.785
	c-0.151,0.261-0.318,0.489-0.501,0.718c-3.856,4.777-5.735,10.403-5.735,17.219c0,8.153,2.784,14.896,8.507,20.611
	c5.532,5.535,12.25,8.315,20.542,8.512c7.958-0.196,14.777-3,20.554-8.577l131.789-134.321c7.518-8.116,11.333-17.733,11.537-29.282
	c0-12.054-4.216-22.184-12.874-30.855c-8.699-8.487-18.85-12.641-30.965-12.641c-12.066,0-22.453,4.321-31.756,13.204
	L81.639,180.839c-16.383,16.388-24.736,33.451-24.736,50.63c0,17.496,6.188,32.555,18.393,44.76
	c12.731,12.523,27.529,18.622,45.208,18.622c13.11,0,24.899-3.571,35.042-10.607c0.029-0.024,2.434-1.777,15.128-14.129
	c0.212-0.351,0.457-0.669,0.734-0.946l84.791-87.106c2.421-2.462,6.384-2.527,8.854-0.114c2.479,2.413,2.527,6.376,0.113,8.854
	l-84.008,86.283c-0.245,0.432-0.555,0.823-0.897,1.157c-6.514,6.352-14.838,14.325-17.512,16.241
	C150.402,303.052,136.212,307.365,120.505,307.365z"/>
</svg>
