<?xml version="1.0" encoding="utf-8"?>
<!-- Generator: Adobe Illustrator 16.0.0, SVG Export Plug-In . SVG Version: 6.00 Build 0)  -->
<!DOCTYPE svg PUBLIC "-//W3C//DTD SVG 1.1//EN" "http://www.w3.org/Graphics/SVG/1.1/DTD/svg11.dtd">
<svg version="1.1" id="Capa_1" xmlns="http://www.w3.org/2000/svg" xmlns:xlink="http://www.w3.org/1999/xlink" x="0px" y="0px"
	 width="334.643px" height="334.645px" viewBox="0 0 334.643 334.645" enable-background="new 0 0 334.643 334.645"
	 xml:space="preserve">
<path fill="#FFFFFF" d="M260.975,315.166H76.337c-19.19,0-29.756-10.561-29.756-29.746V53.354c0-9.704,2.63-17.214,7.825-22.332
	c5.133-5.064,12.603-7.502,22.021-7.42h142.879c3.463,0,6.27,2.806,6.27,6.269c0,3.463-2.807,6.269-6.27,6.269H76.337
	c-6.154,0.062-10.475,1.193-13.13,3.814c-2.712,2.671-4.088,7.18-4.088,13.4V285.42c0,12.227,4.991,17.217,17.218,17.217h184.638
	c12.228,0,17.214-4.99,17.214-17.217V97.326c0-3.463,2.807-6.269,6.27-6.269s6.269,2.806,6.269,6.269V285.42
	C290.727,304.606,280.161,315.166,260.975,315.166z"/>
<path fill="#FFFFFF" d="M284.458,103.595c-3.386,0-6.146-2.683-6.265-6.044L219.167,36.14c-3.398-0.073-6.13-2.851-6.13-6.269
	c0-3.463,2.806-6.269,6.269-6.269h2.532c1.707,0,3.337,0.694,4.521,1.923l62.62,65.152c1.123,1.168,1.748,2.725,1.748,4.346v2.303
	C290.727,100.79,287.921,103.595,284.458,103.595z"/>
<path fill="#FFFFFF" d="M225.522,209.963H114.784c-3.463,0-6.269-2.811-6.269-6.273s2.806-6.273,6.269-6.273h110.737
	c3.464,0,6.27,2.811,6.27,6.273S228.986,209.963,225.522,209.963z"/>
<path fill="#FFFFFF" d="M225.522,256.455H114.784c-3.463,0-6.269-2.801-6.269-6.266c0-3.463,2.806-6.264,6.269-6.264h110.737
	c3.464,0,6.27,2.801,6.27,6.264C231.791,253.655,228.986,256.455,225.522,256.455z"/>
<path fill="#FFFFFF" d="M225.522,117.632H114.784c-3.463,0-6.269-2.801-6.269-6.265s2.806-6.269,6.269-6.269h110.737
	c3.464,0,6.27,2.806,6.27,6.269S228.986,117.632,225.522,117.632z"/>
<path fill="#FFFFFF" d="M225.522,162.997H114.784c-3.463,0-6.269-2.81-6.269-6.272c0-3.463,2.806-6.273,6.269-6.273h110.737
	c3.464,0,6.27,2.81,6.27,6.273C231.791,160.187,228.986,162.997,225.522,162.997z"/>
<path fill="#FFFFFF" d="M284.458,103.595h-41.669c-9.708,0-17.223-2.63-22.34-7.825c-5.06-5.138-7.556-12.546-7.412-22.021V29.871
	c0-3.463,2.806-6.269,6.269-6.269s6.27,2.806,6.27,6.269v43.973c-0.09,6.085,1.192,10.472,3.81,13.126
	c2.671,2.712,7.18,4.088,13.404,4.088h41.669c3.463,0,6.269,2.806,6.269,6.269S287.921,103.595,284.458,103.595z"/>
</svg>
