<?xml version="1.0" encoding="iso-8859-1"?>
<!-- Generator: Adobe Illustrator 16.0.0, SVG Export Plug-In . SVG Version: 6.00 Build 0)  -->
<!DOCTYPE svg PUBLIC "-//W3C//DTD SVG 1.1//EN" "http://www.w3.org/Graphics/SVG/1.1/DTD/svg11.dtd">
<svg version="1.1" id="&#x421;&#x43B;&#x43E;&#x439;_1"
	 xmlns="http://www.w3.org/2000/svg" xmlns:xlink="http://www.w3.org/1999/xlink" x="0px" y="0px" width="143.694px"
	 height="143.722px" viewBox="0 0 143.694 143.722" style="enable-background:new 0 0 143.694 143.722;" xml:space="preserve">
<g>
	<path style="fill-rule:evenodd;clip-rule:evenodd;" d="M71.918,0c39.633,0.101,70.27,31.604,71.711,68.484
		c0.821,21.028-6.091,39.215-20.923,54.143c-13.97,14.059-31.098,21.115-50.899,21.095c-20.047-0.021-37.232-7.337-51.335-21.611
		C9.206,110.708,2.381,96.919,0.562,81.064C-2.14,57.532,4.904,37.096,21.817,20.313C34.956,7.274,53.146-0.022,71.918,0z
		 M91.521,9.336c-26.388-8.71-60.517,0.732-77.247,31.103C-1.57,69.202,6.307,106.47,34.862,126.119
		c27.627,19.011,65.216,13.912,87.224-12.004c20.586-24.242,18.646-57.547,5.233-77.023c-0.088,0.227-0.204,0.411-0.229,0.607
		c-0.358,2.899-1.638,5.43-3.512,7.563c-2.612,2.975-5.384,5.817-8.204,8.597c-2.159,2.129-4.896,3.225-7.881,3.684
		c-3.879,0.598-7.761,1.174-11.638,1.785c-0.582,0.092-1.143,0.32-2.04,0.58c3.258,1.578,4.295,4.145,4.521,7.154
		c0.087,1.151,0.677,1.556,1.75,1.535c1.45-0.026,2.906-0.082,4.353-0.001c2.598,0.146,5.195,2.021,5.819,3.957
		c1.242,3.855-0.022,7.133-2.357,10.101c-1.178,1.497-2.613,2.791-3.931,4.179c-1.822,1.917-3.662,3.818-5.456,5.762
		c-0.789,0.854-0.753,1.673,0.148,2.551c2.992,2.912,2.65,7.313-0.757,9.749c-0.929,0.664-1.98,1.174-3.021,1.66
		c-4.572,2.135-3.878,1.06-4.803,6.118c-1.047,5.724-4.266,9.457-9.729,11.297c-1.208,0.407-2.459,0.703-3.707,0.97
		c-4.958,1.058-8.81-0.645-11.269-5.004c-1.67-2.961-3.035-6.107-4.342-9.252c-0.452-1.09-0.451-2.428-0.421-3.647
		c0.066-2.714,1.205-5.138,2.42-7.49c0.627-1.215,0.495-1.985-0.629-2.784c-1.647-1.171-2.975-2.628-3.867-4.514
		c-1.105-2.337-2.438-4.565-3.605-6.875c-0.633-1.252-1.518-1.391-2.748-1.025c-1.634,0.484-3.287,0.939-4.962,1.236
		c-3.865,0.685-7.539,0.41-10.359-2.783c-1.591-1.801-2.988-3.779-3.396-6.2c-0.35-2.082-0.538-4.204-0.622-6.316
		c-0.183-4.601,1.028-8.94,2.597-13.221c2.021-5.513,5.775-9.313,11.176-11.448c2.17-0.857,4.439-1.556,6.727-1.997
		c4.056-0.783,7.9-0.259,11.213,2.536c0.875,0.738,1.89,1.317,2.871,1.919c3.104,1.904,6.507,2.214,10.014,1.72
		c1.823-0.258,3.253-1.277,4.253-2.815c1.832-2.821,1.904-5.758,0.451-8.763c-0.699-1.445-1.842-2.18-3.45-2.236
		c-1.491-0.053-2.99-0.074-4.472-0.236c-2.87-0.314-4.888-2.089-5.589-4.885c-0.866-3.452-0.32-6.648,2.098-9.335
		c1.191-1.324,2.52-2.56,3.936-3.64c3.76-2.869,8.021-4.854,12.348-6.697C88.421,10.588,89.839,10.026,91.521,9.336z M94.391,99.813
		c-0.178-0.242-0.263-0.386-0.373-0.506c-2.837-3.085-3.111-6.583-0.759-10.026c0.456-0.668,0.948-1.322,1.499-1.912
		c2.385-2.551,4.804-5.069,7.196-7.612c0.575-0.611,1.254-1.198,1.604-1.93c0.396-0.827,0.478-1.806,0.695-2.718
		c-1.016-0.135-2.06-0.492-3.041-0.363c-3.203,0.421-6.888-1.126-8.347-3.868c-0.48-0.901-0.621-2.02-0.754-3.061
		c-0.151-1.18-0.557-1.953-1.691-2.592c-1.533-0.864-3.017-1.961-3.343-3.955c-0.47-2.868,0.667-5.297,3.268-6.607
		c1.018-0.514,2.123-0.954,3.238-1.158c3.271-0.598,6.551-1.229,9.856-1.533c4.211-0.39,7.718-1.977,10.504-5.154
		c1.687-1.924,3.397-3.826,5.054-5.775c1.281-1.508,1.961-3.297,2.112-5.264c0.156-2.041,0.281-4.086,0.35-6.133
		c0.014-0.408-0.19-0.916-0.465-1.228c-5.571-6.314-12.119-11.378-19.647-15.155c-0.438-0.22-1.094-0.275-1.561-0.128
		c-6.114,1.931-12.138,4.127-17.688,7.371c-2.261,1.321-4.353,2.993-6.306,4.745c-0.746,0.67-1.015,1.982-1.268,3.057
		c-0.208,0.88,0.303,1.438,1.325,1.376c0.723-0.043,1.451,0.002,2.176,0.027c5.7,0.195,9.121,2.85,10.715,8.338
		c0.213,0.735,0.36,1.494,0.476,2.252c1.089,7.176-3.419,14.188-10.297,15.463c-2.666,0.494-5.53,0.327-8.254,0.015
		c-4.02-0.46-7.318-2.709-10.471-5.092c-1.121-0.847-2.323-1.215-3.695-1.156c-3.851,0.164-7.408,1.33-10.551,3.502
		c-1.292,0.892-2.539,2.121-3.284,3.482c-2.71,4.947-4.127,10.242-3.452,15.955c0.226,1.904,0.418,3.8,1.611,5.439
		c1.056,1.452,2.594,2.138,4.332,1.787c2.873-0.578,5.746-1.157,8.626-1.701c1.925-0.363,4.176,0.735,5.137,2.4
		c0.339,0.587,0.797,1.104,1.162,1.678c1.087,1.71,2.428,3.324,3.158,5.177c0.894,2.264,2.151,4.03,4.029,5.578
		c2.777,2.29,3.24,4.803,1.879,8.152c-0.546,1.343-1.276,2.62-1.72,3.993c-0.359,1.11-0.849,2.459-0.526,3.459
		c1.071,3.32,2.29,6.651,4.633,9.332c0.589,0.673,1.748,1.187,2.645,1.186c2.378-0.002,4.601-0.795,6.635-2.071
		c1.245-0.781,2.167-1.805,2.536-3.244c0.412-1.61,0.87-3.218,1.138-4.854c0.557-3.41,2.535-5.589,5.627-6.9
		c0.982-0.416,1.957-0.851,2.922-1.304C93.487,100.365,93.906,100.089,94.391,99.813z"/>
	<path style="fill-rule:evenodd;clip-rule:evenodd;fill:none;" d="M91.521,9.336c-1.683,0.69-3.101,1.252-4.502,1.85
		c-4.327,1.843-8.588,3.828-12.348,6.697c-1.416,1.08-2.744,2.315-3.936,3.64c-2.418,2.687-2.964,5.883-2.098,9.335
		c0.701,2.796,2.719,4.57,5.589,4.885c1.481,0.162,2.98,0.184,4.472,0.236c1.608,0.057,2.751,0.791,3.45,2.236
		c1.453,3.005,1.381,5.941-0.451,8.763c-1,1.538-2.43,2.558-4.253,2.815c-3.507,0.494-6.909,0.185-10.014-1.72
		c-0.981-0.602-1.996-1.181-2.871-1.919c-3.313-2.795-7.157-3.319-11.213-2.536c-2.287,0.441-4.557,1.14-6.727,1.997
		c-5.4,2.135-9.155,5.936-11.176,11.448c-1.568,4.28-2.779,8.62-2.597,13.221c0.084,2.112,0.272,4.234,0.622,6.316
		c0.407,2.421,1.805,4.399,3.396,6.2c2.82,3.193,6.494,3.468,10.359,2.783c1.675-0.297,3.328-0.752,4.962-1.236
		c1.23-0.365,2.115-0.227,2.748,1.025c1.167,2.31,2.5,4.538,3.605,6.875c0.893,1.886,2.22,3.343,3.867,4.514
		c1.124,0.799,1.256,1.569,0.629,2.784c-1.215,2.353-2.354,4.776-2.42,7.49c-0.03,1.22-0.031,2.558,0.421,3.647
		c1.307,3.145,2.672,6.291,4.342,9.252c2.459,4.359,6.311,6.062,11.269,5.004c1.248-0.267,2.499-0.563,3.707-0.97
		c5.463-1.84,8.682-5.573,9.729-11.297c0.925-5.059,0.23-3.983,4.803-6.118c1.04-0.486,2.092-0.996,3.021-1.66
		c3.407-2.436,3.749-6.837,0.757-9.749c-0.901-0.878-0.938-1.696-0.148-2.551c1.794-1.943,3.634-3.845,5.456-5.762
		c1.317-1.388,2.753-2.682,3.931-4.179c2.335-2.968,3.6-6.245,2.357-10.101c-0.624-1.937-3.222-3.811-5.819-3.957
		c-1.446-0.081-2.902-0.025-4.353,0.001c-1.073,0.021-1.663-0.384-1.75-1.535c-0.227-3.01-1.264-5.576-4.521-7.154
		c0.897-0.26,1.458-0.488,2.04-0.58c3.877-0.611,7.759-1.188,11.638-1.785c2.985-0.459,5.722-1.555,7.881-3.684
		c2.82-2.779,5.592-5.622,8.204-8.597c1.874-2.134,3.153-4.664,3.512-7.563c0.024-0.196,0.141-0.381,0.229-0.607
		c13.412,19.477,15.353,52.781-5.233,77.023c-22.008,25.916-59.597,31.015-87.224,12.004C6.307,106.47-1.57,69.202,14.274,40.438
		C31.005,10.068,65.134,0.626,91.521,9.336z M10.821,74.187c-0.038,1.587,0.74,2.467,3.146,2.681
		c1.153,0.103,2.346-1.019,2.419-2.163c0.201-3.128,0.24-6.286,0.719-9.375c1.729-11.169,6.019-21.23,13.607-29.712
		c1.98-2.214,4.313-4.117,6.532-6.11c1.423-1.278,1.748-2.786,0.733-4.032c-1.022-1.255-2.632-1.371-4.064-0.201
		c-1.453,1.188-2.917,2.376-4.247,3.695C17.349,41.187,11.648,56.226,10.821,74.187z M53.329,18.38
		c0.001-1.8-1.671-3.094-3.524-2.386c-1.9,0.727-3.729,1.679-5.5,2.688c-1.374,0.783-1.622,2.311-0.818,3.676
		c0.81,1.376,2.135,1.705,3.628,0.929c1.55-0.806,3.096-1.622,4.676-2.364C52.861,20.42,53.279,19.587,53.329,18.38z"/>
	<path style="fill-rule:evenodd;clip-rule:evenodd;fill:none;" d="M94.391,99.813c-0.484,0.276-0.903,0.553-1.354,0.764
		c-0.965,0.453-1.939,0.888-2.922,1.304c-3.092,1.312-5.07,3.49-5.627,6.9c-0.268,1.636-0.726,3.243-1.138,4.854
		c-0.369,1.439-1.291,2.463-2.536,3.244c-2.034,1.276-4.257,2.069-6.635,2.071c-0.896,0.001-2.056-0.513-2.645-1.186
		c-2.343-2.681-3.562-6.012-4.633-9.332c-0.322-1,0.167-2.349,0.526-3.459c0.443-1.373,1.174-2.65,1.72-3.993
		c1.361-3.35,0.898-5.862-1.879-8.152c-1.878-1.548-3.136-3.314-4.029-5.578c-0.73-1.853-2.071-3.467-3.158-5.177
		c-0.365-0.574-0.823-1.091-1.162-1.678c-0.961-1.665-3.212-2.764-5.137-2.4c-2.88,0.544-5.753,1.123-8.626,1.701
		c-1.738,0.351-3.276-0.335-4.332-1.787c-1.193-1.64-1.386-3.535-1.611-5.439c-0.675-5.713,0.742-11.008,3.452-15.955
		c0.745-1.361,1.992-2.591,3.284-3.482c3.143-2.172,6.7-3.338,10.551-3.502c1.372-0.059,2.574,0.31,3.695,1.156
		c3.152,2.383,6.451,4.632,10.471,5.092c2.724,0.313,5.588,0.479,8.254-0.015c6.878-1.275,11.386-8.287,10.297-15.463
		c-0.115-0.758-0.263-1.517-0.476-2.252c-1.594-5.488-5.015-8.143-10.715-8.338c-0.725-0.025-1.453-0.07-2.176-0.027
		c-1.022,0.062-1.533-0.496-1.325-1.376c0.253-1.074,0.521-2.387,1.268-3.057c1.953-1.752,4.045-3.424,6.306-4.745
		c5.55-3.244,11.573-5.44,17.688-7.371c0.467-0.147,1.123-0.092,1.561,0.128c7.528,3.777,14.076,8.841,19.647,15.155
		c0.274,0.312,0.479,0.819,0.465,1.228c-0.068,2.047-0.193,4.092-0.35,6.133c-0.151,1.967-0.831,3.756-2.112,5.264
		c-1.656,1.949-3.367,3.852-5.054,5.775c-2.786,3.178-6.293,4.765-10.504,5.154c-3.306,0.305-6.586,0.936-9.856,1.533
		c-1.115,0.204-2.221,0.645-3.238,1.158c-2.601,1.311-3.737,3.739-3.268,6.607c0.326,1.994,1.81,3.091,3.343,3.955
		c1.135,0.639,1.54,1.412,1.691,2.592c0.133,1.041,0.273,2.159,0.754,3.061c1.459,2.742,5.144,4.289,8.347,3.868
		c0.981-0.129,2.025,0.229,3.041,0.363c-0.218,0.912-0.299,1.891-0.695,2.718c-0.351,0.731-1.029,1.318-1.604,1.93
		c-2.393,2.543-4.812,5.062-7.196,7.612c-0.551,0.59-1.043,1.244-1.499,1.912c-2.353,3.443-2.078,6.941,0.759,10.026
		C94.128,99.427,94.213,99.57,94.391,99.813z"/>
	<path style="fill-rule:evenodd;clip-rule:evenodd;" d="M10.821,74.187c0.827-17.961,6.527-33,18.845-45.218
		c1.33-1.319,2.794-2.508,4.247-3.695c1.433-1.17,3.042-1.054,4.064,0.201c1.015,1.246,0.689,2.754-0.733,4.032
		c-2.219,1.993-4.552,3.896-6.532,6.11c-7.589,8.481-11.879,18.543-13.607,29.712c-0.479,3.089-0.518,6.247-0.719,9.375
		c-0.073,1.145-1.266,2.266-2.419,2.163C11.562,76.653,10.783,75.773,10.821,74.187z"/>
	<path style="fill-rule:evenodd;clip-rule:evenodd;" d="M53.329,18.38c-0.05,1.207-0.468,2.04-1.539,2.542
		c-1.58,0.742-3.126,1.559-4.676,2.364c-1.493,0.776-2.818,0.447-3.628-0.929c-0.804-1.365-0.556-2.893,0.818-3.676
		c1.771-1.009,3.6-1.961,5.5-2.688C51.658,15.286,53.33,16.58,53.329,18.38z"/>
</g>
</svg>
