<?xml version="1.0" encoding="iso-8859-1"?>
<!-- Generator: Adobe Illustrator 16.0.0, SVG Export Plug-In . SVG Version: 6.00 Build 0)  -->
<!DOCTYPE svg PUBLIC "-//W3C//DTD SVG 1.1//EN" "http://www.w3.org/Graphics/SVG/1.1/DTD/svg11.dtd">
<svg version="1.1" id="&#x421;&#x43B;&#x43E;&#x439;_1"
	 xmlns="http://www.w3.org/2000/svg" xmlns:xlink="http://www.w3.org/1999/xlink" x="0px" y="0px" width="143.693px"
	 height="143.723px" viewBox="0 0 143.693 143.723" style="enable-background:new 0 0 143.693 143.723;" xml:space="preserve">
<g>
	<path style="fill:#FFFFFF;" d="M71.918,0c39.633,0.102,70.27,31.604,71.711,68.484c0.821,21.028-6.091,39.215-20.923,54.143
		c-13.971,14.06-31.099,21.115-50.899,21.096c-20.047-0.021-37.231-7.337-51.335-21.611C9.206,110.708,2.381,96.919,0.562,81.064
		C-2.14,57.532,4.904,37.096,21.817,20.313C34.956,7.274,53.146-0.022,71.918,0z M91.521,9.336
		c-26.388-8.71-60.517,0.732-77.247,31.104c-15.844,28.763-7.967,66.031,20.588,85.68c27.627,19.011,65.217,13.912,87.225-12.004
		c20.586-24.242,18.646-57.547,5.232-77.023c-0.088,0.228-0.203,0.411-0.229,0.607c-0.358,2.899-1.638,5.43-3.512,7.563
		c-2.612,2.975-5.385,5.816-8.204,8.597c-2.159,2.129-4.896,3.225-7.881,3.684c-3.88,0.599-7.762,1.174-11.639,1.785
		c-0.582,0.092-1.143,0.32-2.04,0.58c3.259,1.578,4.295,4.146,4.521,7.154c0.087,1.15,0.677,1.556,1.75,1.535
		c1.45-0.026,2.906-0.082,4.353-0.001c2.599,0.146,5.195,2.021,5.819,3.957c1.242,3.854-0.022,7.133-2.357,10.101
		c-1.178,1.497-2.612,2.791-3.931,4.179c-1.822,1.917-3.662,3.818-5.456,5.763c-0.789,0.854-0.753,1.673,0.148,2.551
		c2.991,2.912,2.649,7.313-0.758,9.749c-0.929,0.664-1.979,1.174-3.021,1.66c-4.572,2.135-3.878,1.06-4.803,6.117
		c-1.047,5.725-4.267,9.457-9.729,11.298c-1.208,0.406-2.459,0.702-3.707,0.97c-4.958,1.058-8.81-0.646-11.269-5.004
		c-1.67-2.961-3.035-6.107-4.342-9.252c-0.452-1.09-0.451-2.429-0.422-3.647c0.066-2.714,1.205-5.138,2.421-7.49
		c0.627-1.215,0.494-1.984-0.63-2.783c-1.646-1.171-2.975-2.628-3.866-4.515c-1.105-2.337-2.438-4.564-3.605-6.875
		c-0.633-1.252-1.518-1.391-2.748-1.024c-1.634,0.483-3.287,0.938-4.962,1.235c-3.865,0.686-7.539,0.41-10.359-2.782
		c-1.591-1.802-2.987-3.779-3.396-6.2c-0.35-2.082-0.538-4.204-0.622-6.316c-0.183-4.601,1.028-8.939,2.597-13.221
		c2.021-5.513,5.775-9.313,11.177-11.448c2.17-0.856,4.438-1.556,6.727-1.997c4.056-0.783,7.9-0.259,11.213,2.536
		c0.875,0.738,1.89,1.317,2.871,1.919c3.104,1.904,6.507,2.214,10.014,1.72c1.823-0.258,3.253-1.276,4.253-2.814
		c1.832-2.821,1.904-5.758,0.451-8.763c-0.699-1.445-1.842-2.181-3.45-2.236c-1.49-0.053-2.989-0.074-4.472-0.236
		c-2.87-0.313-4.888-2.089-5.589-4.885c-0.866-3.452-0.32-6.648,2.098-9.335c1.191-1.324,2.521-2.561,3.937-3.64
		c3.76-2.869,8.021-4.854,12.348-6.697C88.421,10.588,89.839,10.026,91.521,9.336z M94.391,99.813
		c-0.178-0.242-0.263-0.386-0.373-0.506c-2.837-3.085-3.11-6.583-0.759-10.026c0.456-0.668,0.948-1.322,1.499-1.912
		c2.385-2.551,4.804-5.069,7.196-7.612c0.574-0.61,1.254-1.197,1.604-1.93c0.396-0.827,0.479-1.806,0.695-2.718
		c-1.017-0.135-2.061-0.492-3.041-0.363c-3.203,0.421-6.888-1.126-8.348-3.868c-0.479-0.9-0.62-2.02-0.754-3.061
		c-0.15-1.18-0.557-1.953-1.69-2.592c-1.533-0.864-3.018-1.961-3.343-3.955c-0.471-2.868,0.667-5.297,3.268-6.607
		c1.018-0.514,2.123-0.954,3.238-1.158c3.271-0.598,6.551-1.229,9.855-1.532c4.211-0.391,7.719-1.978,10.504-5.154
		c1.688-1.924,3.397-3.826,5.055-5.775c1.28-1.508,1.961-3.297,2.111-5.264c0.156-2.041,0.281-4.086,0.351-6.133
		c0.014-0.408-0.19-0.916-0.465-1.229c-5.571-6.313-12.119-11.378-19.647-15.154c-0.438-0.221-1.094-0.275-1.561-0.128
		c-6.114,1.931-12.139,4.127-17.688,7.37c-2.261,1.321-4.353,2.993-6.306,4.745c-0.746,0.67-1.016,1.982-1.269,3.058
		c-0.208,0.88,0.304,1.438,1.325,1.376c0.723-0.043,1.451,0.002,2.176,0.026c5.7,0.195,9.121,2.851,10.715,8.338
		c0.214,0.735,0.36,1.494,0.477,2.252c1.089,7.177-3.419,14.188-10.297,15.464c-2.666,0.493-5.53,0.326-8.254,0.015
		c-4.021-0.46-7.318-2.709-10.472-5.092c-1.121-0.848-2.322-1.215-3.694-1.156c-3.852,0.164-7.408,1.33-10.552,3.502
		c-1.292,0.892-2.538,2.121-3.283,3.482c-2.71,4.946-4.127,10.241-3.452,15.955c0.226,1.903,0.418,3.8,1.61,5.438
		c1.057,1.452,2.595,2.138,4.332,1.787c2.873-0.578,5.746-1.157,8.626-1.701c1.926-0.363,4.177,0.735,5.138,2.4
		c0.339,0.587,0.797,1.104,1.162,1.678c1.087,1.71,2.428,3.324,3.157,5.177c0.895,2.265,2.151,4.03,4.029,5.578
		c2.777,2.29,3.24,4.803,1.879,8.152c-0.546,1.343-1.275,2.62-1.72,3.993c-0.359,1.109-0.849,2.459-0.526,3.459
		c1.071,3.319,2.29,6.65,4.634,9.332c0.589,0.673,1.747,1.187,2.645,1.186c2.378-0.002,4.601-0.795,6.635-2.071
		c1.245-0.78,2.167-1.805,2.536-3.243c0.412-1.61,0.87-3.219,1.138-4.854c0.558-3.41,2.535-5.589,5.627-6.9
		c0.982-0.416,1.957-0.851,2.923-1.304C93.487,100.365,93.906,100.089,94.391,99.813z"/>
	<path style="fill:#FFFFFF;" d="M91.521,9.336c-1.683,0.69-3.101,1.252-4.502,1.851c-4.327,1.843-8.588,3.828-12.348,6.696
		c-1.416,1.08-2.744,2.315-3.937,3.641c-2.418,2.687-2.964,5.883-2.098,9.335c0.701,2.796,2.719,4.57,5.589,4.885
		c1.481,0.162,2.98,0.185,4.472,0.236c1.608,0.057,2.752,0.791,3.45,2.235c1.453,3.006,1.381,5.941-0.451,8.764
		c-1,1.538-2.43,2.558-4.253,2.814c-3.507,0.494-6.908,0.186-10.014-1.72c-0.98-0.602-1.996-1.181-2.871-1.919
		c-3.313-2.795-7.157-3.319-11.213-2.536c-2.287,0.441-4.557,1.14-6.727,1.997c-5.4,2.135-9.155,5.936-11.177,11.448
		c-1.567,4.28-2.778,8.62-2.597,13.221c0.084,2.112,0.272,4.234,0.622,6.316c0.407,2.421,1.805,4.398,3.396,6.199
		c2.82,3.193,6.494,3.469,10.359,2.783c1.675-0.297,3.328-0.752,4.962-1.235c1.23-0.365,2.115-0.228,2.748,1.024
		c1.167,2.311,2.5,4.538,3.605,6.875c0.893,1.886,2.22,3.343,3.866,4.515c1.124,0.799,1.257,1.568,0.63,2.783
		c-1.216,2.354-2.354,4.776-2.421,7.49c-0.029,1.22-0.03,2.558,0.422,3.647c1.307,3.145,2.672,6.291,4.342,9.252
		c2.459,4.358,6.311,6.062,11.269,5.004c1.248-0.268,2.499-0.563,3.707-0.971c5.463-1.84,8.683-5.572,9.729-11.297
		c0.925-5.059,0.229-3.982,4.803-6.117c1.04-0.486,2.092-0.996,3.021-1.66c3.407-2.437,3.749-6.837,0.758-9.749
		c-0.901-0.878-0.938-1.696-0.148-2.552c1.794-1.942,3.634-3.845,5.456-5.762c1.317-1.388,2.753-2.682,3.931-4.179
		c2.335-2.968,3.601-6.245,2.357-10.102c-0.624-1.937-3.222-3.811-5.819-3.956c-1.445-0.081-2.901-0.025-4.353,0.001
		c-1.073,0.021-1.663-0.385-1.75-1.535c-0.228-3.011-1.264-5.576-4.521-7.154c0.897-0.26,1.458-0.488,2.04-0.58
		c3.877-0.611,7.76-1.188,11.639-1.785c2.984-0.459,5.722-1.555,7.881-3.684c2.819-2.779,5.592-5.622,8.204-8.598
		c1.874-2.134,3.152-4.663,3.512-7.563c0.024-0.196,0.141-0.381,0.229-0.607c13.412,19.478,15.354,52.781-5.232,77.023
		c-22.008,25.916-59.597,31.015-87.225,12.004C6.307,106.47-1.57,69.202,14.274,40.438C31.005,10.068,65.134,0.626,91.521,9.336z
		 M10.821,74.187c-0.037,1.587,0.74,2.467,3.146,2.681c1.153,0.104,2.346-1.019,2.419-2.163c0.201-3.128,0.24-6.286,0.719-9.375
		c1.729-11.169,6.02-21.229,13.607-29.712c1.979-2.214,4.313-4.117,6.532-6.11c1.423-1.277,1.748-2.785,0.732-4.031
		c-1.021-1.255-2.632-1.371-4.063-0.201c-1.453,1.188-2.917,2.376-4.247,3.695C17.349,41.187,11.648,56.226,10.821,74.187z
		 M53.329,18.38c0.001-1.8-1.671-3.094-3.524-2.386c-1.9,0.728-3.729,1.679-5.5,2.688c-1.374,0.782-1.622,2.311-0.818,3.676
		c0.811,1.376,2.136,1.705,3.628,0.929c1.551-0.806,3.097-1.622,4.677-2.364C52.861,20.42,53.279,19.587,53.329,18.38z"/>
	<path style="fill:#FFFFFF;" d="M94.391,99.813c-0.483,0.275-0.903,0.553-1.354,0.764c-0.966,0.453-1.939,0.888-2.922,1.304
		c-3.093,1.313-5.07,3.49-5.628,6.9c-0.268,1.636-0.726,3.243-1.138,4.854c-0.369,1.438-1.291,2.463-2.536,3.243
		c-2.034,1.276-4.257,2.069-6.635,2.071c-0.896,0.001-2.056-0.513-2.645-1.186c-2.344-2.682-3.563-6.013-4.634-9.332
		c-0.321-1,0.167-2.35,0.526-3.459c0.443-1.373,1.174-2.65,1.72-3.993c1.361-3.351,0.898-5.862-1.879-8.152
		c-1.878-1.548-3.136-3.313-4.029-5.578c-0.729-1.853-2.07-3.467-3.157-5.177c-0.365-0.574-0.823-1.091-1.162-1.678
		c-0.961-1.665-3.212-2.765-5.137-2.4c-2.881,0.544-5.754,1.123-8.627,1.701c-1.737,0.351-3.275-0.335-4.331-1.787
		c-1.193-1.64-1.387-3.535-1.611-5.438c-0.675-5.714,0.742-11.009,3.452-15.955c0.745-1.361,1.992-2.592,3.284-3.482
		c3.143-2.172,6.699-3.338,10.551-3.502c1.372-0.059,2.574,0.31,3.694,1.156c3.152,2.383,6.451,4.632,10.472,5.092
		c2.724,0.313,5.588,0.479,8.254-0.015c6.878-1.275,11.386-8.287,10.297-15.464c-0.115-0.758-0.263-1.517-0.476-2.252
		c-1.595-5.487-5.016-8.143-10.716-8.338c-0.725-0.024-1.453-0.069-2.176-0.026c-1.021,0.062-1.533-0.496-1.325-1.376
		c0.253-1.074,0.521-2.388,1.269-3.058c1.953-1.752,4.045-3.424,6.306-4.745c5.55-3.243,11.573-5.439,17.688-7.371
		c0.467-0.146,1.123-0.092,1.561,0.129c7.528,3.776,14.076,8.841,19.647,15.154c0.273,0.313,0.479,0.819,0.465,1.229
		c-0.068,2.047-0.193,4.092-0.351,6.133c-0.15,1.967-0.831,3.756-2.111,5.264c-1.656,1.949-3.367,3.853-5.055,5.775
		c-2.785,3.178-6.293,4.765-10.504,5.154c-3.306,0.305-6.586,0.936-9.855,1.532c-1.115,0.204-2.222,0.646-3.238,1.158
		c-2.601,1.312-3.737,3.739-3.268,6.607c0.325,1.994,1.81,3.091,3.343,3.955c1.135,0.639,1.54,1.412,1.69,2.592
		c0.134,1.041,0.273,2.159,0.755,3.061c1.459,2.742,5.144,4.289,8.347,3.868c0.98-0.129,2.024,0.229,3.041,0.363
		c-0.218,0.912-0.299,1.891-0.695,2.718c-0.351,0.731-1.029,1.318-1.604,1.93c-2.394,2.543-4.813,5.063-7.196,7.612
		c-0.551,0.59-1.043,1.244-1.499,1.912c-2.353,3.443-2.078,6.941,0.759,10.026C94.128,99.427,94.213,99.57,94.391,99.813z"/>
	<path style="fill:#FFFFFF;" d="M10.821,74.187c0.827-17.961,6.527-33,18.846-45.218c1.33-1.319,2.794-2.509,4.247-3.695
		c1.433-1.17,3.042-1.054,4.063,0.201c1.016,1.246,0.689,2.754-0.732,4.031c-2.22,1.993-4.553,3.896-6.532,6.11
		c-7.589,8.481-11.879,18.543-13.607,29.712c-0.479,3.089-0.518,6.247-0.719,9.375c-0.073,1.146-1.266,2.267-2.419,2.163
		C11.562,76.653,10.783,75.773,10.821,74.187z"/>
	<path style="fill:#FFFFFF;" d="M53.329,18.38c-0.051,1.207-0.469,2.04-1.539,2.542c-1.58,0.742-3.126,1.56-4.677,2.364
		c-1.492,0.776-2.817,0.447-3.628-0.929c-0.804-1.365-0.556-2.894,0.818-3.676c1.771-1.01,3.6-1.961,5.5-2.688
		C51.658,15.286,53.33,16.58,53.329,18.38z"/>
</g>
</svg>
