<?xml version="1.0" encoding="iso-8859-1"?>
<!-- Generator: Adobe Illustrator 16.0.0, SVG Export Plug-In . SVG Version: 6.00 Build 0)  -->
<!DOCTYPE svg PUBLIC "-//W3C//DTD SVG 1.1//EN" "http://www.w3.org/Graphics/SVG/1.1/DTD/svg11.dtd">
<svg version="1.1" id="&#x421;&#x43B;&#x43E;&#x439;_1"
	 xmlns="http://www.w3.org/2000/svg" xmlns:xlink="http://www.w3.org/1999/xlink" x="0px" y="0px" width="67.113px"
	 height="143.722px" viewBox="0 0 67.113 143.722" style="enable-background:new 0 0 67.113 143.722;" xml:space="preserve">
<g>
	<g>
		<path d="M56.854,102.182v10.466c0,12.877-10.436,23.307-23.307,23.307c-12.873,0-23.307-10.43-23.307-23.307v-10.465
			c-4.833-3.423-7.769-7.917-7.769-12.841v23.306c0,17.162,13.912,31.076,31.076,31.076c17.162,0,31.076-13.914,31.076-31.076
			V89.342C64.623,94.266,61.685,98.759,56.854,102.182z"/>
		<path d="M33.547,34.96c-17.164,0-31.076,13.914-31.076,31.08v23.303c0-1.848,0.546-3.602,1.318-5.294
			c1.269,3.339,3.509,6.365,6.451,8.917V66.04c0-12.875,10.434-23.311,23.307-23.311c12.871,0,23.307,10.437,23.307,23.311v26.924
			c2.941-2.552,5.181-5.578,6.449-8.916c0.774,1.692,1.32,3.446,1.32,5.294V66.04C64.623,48.874,50.708,34.96,33.547,34.96z"/>
		<path d="M56.854,92.964v9.218c4.831-3.423,7.769-7.916,7.769-12.84c0-1.848-0.546-3.602-1.32-5.294
			C62.034,87.386,59.795,90.412,56.854,92.964z"/>
		<path d="M10.24,102.183v-9.218c-2.942-2.552-5.182-5.578-6.451-8.917c-0.771,1.692-1.318,3.446-1.318,5.294
			C2.471,94.266,5.408,98.76,10.24,102.183z"/>
		<path d="M33.547,108.765c9.284,0,17.612-2.548,23.307-6.583v-9.218c-5.658,4.908-13.963,8.032-23.307,8.032
			c-9.344,0-17.649-3.124-23.307-8.03v9.218C15.935,106.217,24.262,108.765,33.547,108.765z"/>
	</g>
	<path style="fill-rule:evenodd;clip-rule:evenodd;" d="M29.662,34.96c0,0-1.054-6.515,9.063-13.11
		C48.845,15.255,52.241,6.794,52.32,0c2.875,0.311,8.417,0,8.417,0S58.92,14.707,45.2,23.311
		c-10.928,8.103-7.769,11.649-7.769,11.649H29.662z"/>
	<path style="fill-rule:evenodd;clip-rule:evenodd;" d="M29.662,38.844h7.769V66.04h-7.769V38.844z"/>
</g>
</svg>
