<?xml version="1.0" encoding="iso-8859-1"?>
<!-- Generator: Adobe Illustrator 16.0.0, SVG Export Plug-In . SVG Version: 6.00 Build 0)  -->
<!DOCTYPE svg PUBLIC "-//W3C//DTD SVG 1.1//EN" "http://www.w3.org/Graphics/SVG/1.1/DTD/svg11.dtd">
<svg version="1.1" id="Capa_1" xmlns="http://www.w3.org/2000/svg" xmlns:xlink="http://www.w3.org/1999/xlink" x="0px" y="0px"
	 width="334.643px" height="334.645px" viewBox="0 0 334.643 334.645" style="enable-background:new 0 0 334.643 334.645;"
	 xml:space="preserve">
<g>
	<g>
		<path style="fill:#FFFFFF;" d="M330.596,218.062l-25.038-6.435l6.159-3.616c1.883-1.107,2.921-3.238,2.61-5.41
			c-0.095-0.707-0.375-1.352-0.724-1.941c0.603-1.021,0.896-2.225,0.724-3.459c-0.301-2.162-1.883-3.934-3.997-4.472l-1.45-0.375
			l7.853-4.604c1.883-1.106,2.922-3.243,2.615-5.41c-0.101-0.718-0.38-1.351-0.729-1.945c0.602-1.028,0.896-2.227,0.729-3.454
			c-0.307-2.167-1.889-3.939-4.003-4.482l-3.766-0.96l10.426-6.122c1.888-1.106,2.922-3.239,2.616-5.411
			c-0.096-0.712-0.38-1.35-0.723-1.942c0.601-1.026,0.896-2.227,0.723-3.457c-0.301-2.165-1.883-3.938-4.003-4.479l-5.047-1.3
			l6.274-3.684c1.883-1.107,2.922-3.24,2.61-5.41c-0.095-0.712-0.374-1.35-0.723-1.943c0.602-1.027,0.896-2.226,0.723-3.457
			c-0.301-2.164-1.883-3.937-3.997-4.477l-11.201-2.877l11.924-6.995c1.884-1.104,2.921-3.238,2.61-5.411
			c-0.095-0.712-0.375-1.35-0.723-1.943c0.602-1.025,0.896-2.226,0.723-3.457c-0.301-2.164-1.883-3.937-3.997-4.475l-7.373-1.896
			l4.693-2.757c1.883-1.106,2.922-3.239,2.609-5.409c-0.095-0.713-0.374-1.351-0.722-1.943c0.601-1.025,0.896-2.226,0.722-3.457
			c-0.3-2.165-1.882-3.938-3.997-4.477l-18.002-4.629l19.004-11.149c1.884-1.107,2.923-3.241,2.616-5.411
			c-0.101-0.712-0.38-1.35-0.729-1.943c0.602-1.025,0.896-2.225,0.729-3.457c-0.307-2.165-1.889-3.937-4.003-4.478L114.082,1.934
			c-0.442-0.113-0.896-0.166-1.345-0.166c-0.804,0-1.603,0.177-2.338,0.535L28.666,41.598c-2.009,0.968-3.22,3.065-3.046,5.292
			c0.063,0.81,0.361,1.551,0.752,2.226c-0.557,0.938-0.839,2.035-0.746,3.169c0.171,2.221,1.695,4.108,3.833,4.752l19.765,5.93
			l-20.177,9.698c-2.009,0.968-3.217,3.067-3.045,5.287c0.065,0.814,0.355,1.551,0.746,2.23c-0.557,0.938-0.839,2.036-0.746,3.17
			c0.153,1.938,1.366,3.569,3.085,4.395L8.463,97.665c-2.009,0.968-3.217,3.069-3.045,5.292c0.066,0.817,0.356,1.55,0.746,2.23
			c-0.557,0.938-0.838,2.036-0.746,3.169c0.174,2.22,1.695,4.11,3.834,4.754l22.304,6.688c-0.596,0.957-0.907,2.086-0.817,3.257
			c0.066,0.813,0.358,1.55,0.746,2.229c-0.556,0.938-0.836,2.036-0.746,3.169c0.174,2.226,1.695,4.111,3.834,4.751l5.795,1.74
			l-6.426,3.088c-2.009,0.967-3.219,3.069-3.045,5.292c0.063,0.815,0.356,1.55,0.744,2.231c-0.556,0.938-0.836,2.034-0.744,3.169
			c0.171,2.226,1.695,4.11,3.834,4.754l5.146,1.543l-11.211,5.373c-2.009,0.968-3.22,3.066-3.046,5.29
			c0.063,0.815,0.356,1.55,0.744,2.234c-0.554,0.938-0.836,2.036-0.744,3.164c0.172,2.227,1.696,4.113,3.834,4.757l2.608,0.78
			l-8.414,4.04c-2.01,0.97-3.217,3.068-3.046,5.283c0.066,0.817,0.356,1.551,0.746,2.236c-0.556,0.938-0.838,2.034-0.746,3.164
			c0.174,2.226,1.695,4.112,3.834,4.757l6.001,1.793l-27.374,13.17c-2.009,0.966-3.217,3.068-3.046,5.29
			c0.066,0.821,0.356,1.55,0.747,2.234c-0.556,0.939-0.838,2.036-0.747,3.164c0.174,2.227,1.696,4.113,3.834,4.758l31.311,9.387
			l-1.379,0.665c-2.006,0.97-3.217,3.067-3.045,5.289c0.066,0.816,0.358,1.55,0.746,2.229c-0.556,0.938-0.836,2.035-0.746,3.169
			c0.174,2.227,1.695,4.108,3.834,4.752l5.795,1.74l-6.426,3.09c-2.009,0.965-3.219,3.064-3.045,5.289
			c0.063,0.817,0.356,1.551,0.744,2.231c-0.556,0.938-0.836,2.035-0.744,3.169c0.171,2.22,1.695,4.107,3.834,4.751l201.261,60.371
			c0.506,0.151,1.033,0.23,1.55,0.23c0.949,0,1.894-0.253,2.731-0.749l81.732-47.944c1.888-1.107,2.922-3.238,2.616-5.411
			c-0.096-0.712-0.38-1.351-0.723-1.94c0.601-1.028,0.896-2.226,0.723-3.459c-0.301-2.162-1.883-3.935-4.003-4.478l-5.047-1.304
			l6.274-3.686c1.883-1.107,2.922-3.243,2.61-5.411c-0.095-0.712-0.374-1.35-0.723-1.945c0.602-1.022,0.896-2.226,0.723-3.454
			c-0.301-2.168-1.883-3.938-3.997-4.478l-10.094-2.595l21.61-12.678c1.883-1.106,2.921-3.237,2.61-5.41
			c-0.096-0.713-0.375-1.351-0.723-1.94c0.601-1.028,0.896-2.226,0.723-3.459C334.292,220.373,332.716,218.601,330.596,218.062z
			 M316.184,275.934l-3.307,1.936l-75.331,44.196l-194.35-58.292l-3.839-1.15l-3.077-0.928l11.76-5.653l3.607-1.729l3.312-1.593
			l3.077,0.929l3.834,1.139l173.957,52.187c0.512,0.147,1.033,0.222,1.551,0.222l0,0c0.954,0,1.898-0.253,2.73-0.738l56.053-32.88
			l3.301-1.936l3.101-1.813l2.689,0.687l3.713,0.96l10.314,2.646L316.184,275.934z M316.026,255.662l-3.308,1.941l-10.969,6.434
			l-3.302,1.936l-3.096,1.818l-0.211,0.122l-3.102,1.813l-3.301,1.936l-51.358,30.133L69.089,251.312l-3.839-1.149l-3.077-0.923
			l-0.757-0.227l-3.077-0.924l-3.833-1.148l-11.47-3.438l-3.834-1.154l-3.08-0.924l6.713-3.227l3.612-1.74l3.304-1.588l3.079,0.923
			l3.839,1.149l11.464,3.438l3.834,1.149l3.077,0.929l0.757,0.223l3.077,0.928l3.839,1.148l122.396,36.715
			c0.507,0.146,1.033,0.227,1.551,0.227l0,0c0.949,0,1.895-0.253,2.732-0.743l11.416-6.697l3.181-1.866l2.911-1.703l2.558,0.765
			l3.533,1.065l12.967,3.892c0.513,0.147,1.034,0.222,1.552,0.222l0,0c0.953,0,1.897-0.253,2.735-0.737l16.733-9.819l3.306-1.94
			l3.096-1.813l0.206-0.126l3.096-1.814l3.307-1.939l10.964-6.429l3.308-1.937l3.096-1.813l2.688,0.686l3.707,0.96l15.361,3.944
			L316.026,255.662z M5.402,215.933l32.708-15.727l3.607-1.734l3.304-1.587l3.08,0.928l3.839,1.149l4.076,1.224l-3.304,1.588
			l-3.607,1.733l-5.191,2.489c-2.007,0.971-3.217,3.069-3.045,5.295c0.066,0.817,0.358,1.55,0.746,2.23
			c0.501,0.881,1.231,1.593,2.144,2.072c0.309,0.162,0.599,0.349,0.939,0.442l19.554,5.864l3.834,1.148l3.08,0.929l0.754,0.222
			l3.08,0.928l3.839,1.15l11.464,3.438l3.834,1.15l3.077,0.928l0.756,0.223l3.077,0.928l3.839,1.148l114.937,34.469l-2.91,1.708
			l-3.182,1.866l-7.082,4.155L89.94,241.287l-3.842-1.148l-3.077-0.918l-0.756-0.231l-3.077-0.924l-3.833-1.149l-11.465-3.442
			l-3.839-1.149l-3.077-0.918l-0.757-0.231l-3.08-0.918l-3.833-1.148L12.326,218.01l-3.839-1.149L5.402,215.933z M25.986,185.536
			l13.748-6.612l3.607-1.729l3.307-1.592l3.077,0.928l3.833,1.149l11.67,3.502l3.833,1.148l3.077,0.918l0.756,0.231l3.077,0.918
			l3.842,1.148l4.076,1.234l3.834,1.149l3.077,0.917l0.757,0.231l3.077,0.918l3.839,1.149l18.929,5.679l55.943,16.775l57.354,17.207
			c0.506,0.152,1.028,0.227,1.55,0.227l0,0c0.949,0,1.895-0.253,2.73-0.748l1.002-0.586l3.308-1.936l7.853-4.608l3.301-1.94
			l3.097-1.813l0.211-0.127l3.097-1.813l3.307-1.936l5.441-3.19l3.301-1.939l3.097-1.814l0.211-0.126l3.101-1.813l3.307-1.94
			l10.843-6.36l3.301-1.939l3.097-1.813l2.688,0.69l3.713,0.954l6.708,1.725l-3.091,1.814l-3.307,1.936l-10.843,6.364l-3.307,1.936
			l-3.102,1.825l-0.205,0.121l-3.09,1.813l-3.308,1.939l-5.442,3.191l-3.306,1.939l-3.096,1.813l-0.211,0.121l-3.091,1.819
			l-3.307,1.936l-7.853,4.604l-3.308,1.94l-3.09,1.813l-0.211,0.128l-3.096,1.813l-3.307,1.94l-10.963,6.428l-1.203,0.702
			l-23.547-7.066l-92.973-27.887l-3.839-1.149l-3.077-0.917l-0.756-0.231l-3.077-0.918l-3.839-1.154l-18.312-5.49l-3.839-1.148
			l-3.08-0.929l-0.754-0.222l-3.08-0.928l-3.839-1.15l-4.076-1.223l-3.839-1.15l-3.08-0.928l-0.754-0.222l-3.08-0.929l-3.833-1.148
			l-11.67-3.497l-3.833-1.149L25.986,185.536z M31.004,165.266l16.545-7.955l3.612-1.74l3.304-1.588l3.08,0.923l3.839,1.15
			l8.277,2.483l3.839,1.152l3.08,0.923l0.757,0.227l3.077,0.924l3.839,1.148l30.338,9.104l3.833,1.148l3.077,0.923l0.757,0.228
			l3.077,0.923l24.231,7.272l86.424,25.924c0.506,0.146,1.032,0.222,1.55,0.222c0.949,0,1.895-0.253,2.732-0.744l2.488-1.46
			l3.307-1.936l3.096-1.814l0.206-0.121l3.095-1.824l3.307-1.94l10.849-6.359l3.307-1.936l3.097-1.819l0.211-0.116l3.095-1.823
			l3.308-1.94l12.545-7.356l3.308-1.94l3.095-1.813l2.689,0.69l3.713,0.96l9.027,2.32l-3.101,1.813l-3.307,1.94l-12.54,7.355
			l-3.308,1.937l-3.101,1.824l-0.211,0.127l-3.092,1.813l-3.307,1.937l-10.847,6.364l-3.308,1.937l-3.101,1.818l-0.206,0.127
			l-3.09,1.813l-3.307,1.94l-5.442,3.186l-3.308,1.94l-3.096,1.813l-0.211,0.126l-3.085,1.819l-3.306,1.936l-7.473,4.389
			l-126.556-37.964l-3.839-1.149l-3.08-0.923l-0.754-0.228l-3.08-0.923l-3.833-1.148l-4.077-1.225l-3.839-1.154l-3.08-0.924
			l-0.754-0.227l-3.079-0.923l-3.834-1.149L60.799,174.2l-3.836-1.148l-3.077-0.924l-0.757-0.227l-3.077-0.923l-3.839-1.15
			l-8.279-2.482l-3.839-1.149L31.004,165.266z M36.28,142.89l11.76-5.653l3.607-1.732l3.312-1.588l3.077,0.923l3.834,1.15
			l10.815,3.246l3.834,1.149l3.08,0.923l0.754,0.227l3.08,0.925l3.839,1.15l8.276,2.484l3.836,1.148l3.077,0.923l0.756,0.228
			l3.077,0.923l45.441,13.632l84.084,25.226c0.513,0.147,1.033,0.223,1.552,0.223l0,0c0.954,0,1.897-0.253,2.731-0.738l2.367-1.387
			l3.307-1.937l3.091-1.813l0.211-0.126l3.101-1.825l3.307-1.936l12.546-7.355l3.302-1.941l3.096-1.813l0.211-0.127l3.096-1.813
			l3.302-1.938l15.118-8.867l3.302-1.938l3.101-1.814l2.689,0.69l3.713,0.954l10.314,2.652l-3.097,1.814l-3.307,1.938l-15.113,8.87
			l-3.307,1.935l-3.097,1.814l-0.211,0.121l-3.09,1.819l-3.307,1.936l-12.545,7.362l-3.307,1.939l-3.097,1.819l-0.211,0.121
			l-3.096,1.813l-3.308,1.94l-10.847,6.359l-3.308,1.939l-3.096,1.819l-0.205,0.122l-3.096,1.813l-1.103,0.654l-21.669-6.508
			l-60.771-18.226l-4.084-1.229l-25.378-7.609l-3.834-1.154l-30.338-9.1l-3.839-1.148l-3.077-0.924l-0.757-0.227l-3.077-0.923
			l-3.842-1.15l-8.276-2.483l-3.839-1.152l-3.08-0.923l-0.754-0.228l-3.08-0.923l-3.833-1.148l-10.811-3.251l-3.839-1.15
			L36.28,142.89z M36.122,122.624l1.87-0.9l3.612-1.732l3.304-1.587l3.08,0.923l3.839,1.15l11.464,3.439l3.834,1.149l3.077,0.923
			l0.757,0.227l3.077,0.924l3.839,1.151l10.815,3.243l3.837,1.152l3.077,0.923l0.756,0.227l3.077,0.923l3.839,1.15l83.913,25.17
			l23.319,6.992c0.507,0.148,1.028,0.227,1.552,0.227l0,0c0.627,0,1.232-0.142,1.823-0.362c0.306-0.111,0.622-0.211,0.907-0.375
			l5.934-3.485l3.18-1.861l2.699-1.582l0.211-0.124l2.563,0.769l1.582,0.475l1.945,0.583l2.252,0.676
			c0.512,0.151,1.033,0.227,1.551,0.227l0,0c0.011,0,0.016-0.005,0.025-0.005c0.949-0.005,1.884-0.253,2.705-0.738l1.608-0.94
			l3.091-1.814l0.211-0.124l3.096-1.813l3.307-1.938l15.113-8.867l3.308-1.939l3.095-1.814l0.207-0.124l3.096-1.813l3.307-1.938
			l10.963-6.431l3.307-1.938l3.097-1.815l2.688,0.692l3.707,0.955l16.47,4.235l-3.097,1.813l-3.306,1.938l-10.969,6.431l-3.303,1.94
			l-3.096,1.813l-0.211,0.124l-3.101,1.819l-3.301,1.938l-15.119,8.867l-3.301,1.938l-3.097,1.815l-0.211,0.121l-3.097,1.819
			l-3.301,1.936l-12.545,7.356l-3.308,1.936l-3.101,1.819l-0.211,0.127l-3.09,1.813l-0.986,0.58l-19.338-5.802l-60.77-18.228
			l-4.082-1.227l-46.559-13.964l-3.868-1.16l-8.276-2.482l-3.839-1.149l-3.08-0.926l-0.754-0.227l-3.08-0.924l-3.834-1.148
			l-10.815-3.246l-3.839-1.149l-3.077-0.923l-0.757-0.227l-3.08-0.925l-3.833-1.149l-11.446-3.449l-3.834-1.151L36.122,122.624z
			 M10.801,102.532l25.79-12.405l3.607-1.731l3.307-1.588l1.02,0.309l-3.304,1.593l-3.609,1.732l-4.498,2.165
			c-1.237,0.596-2.115,1.643-2.608,2.863c-0.306,0.762-0.501,1.57-0.433,2.423c0.024,0.245,0.114,0.467,0.164,0.704
			c0.119,0.543,0.313,1.052,0.583,1.525c0.503,0.881,1.231,1.593,2.144,2.075c0.309,0.161,0.599,0.346,0.938,0.443l19.29,5.787
			l3.834,1.149l3.077,0.925l0.757,0.228l3.077,0.923l3.841,1.15l11.462,3.438l3.836,1.152l3.077,0.923l0.757,0.227l3.077,0.923
			l3.839,1.15l10.815,3.246l3.839,1.15l3.641,1.091l0.192,0.061l53.769,16.129l53.67,16.098l-0.573,0.335l-2.338,1.371l-3.18,1.863
			l-1.604,0.938l-101.563-30.462l-3.839-1.149l-3.077-0.923l-0.757-0.227l-3.077-0.924l-3.839-1.149l-10.818-3.246l-3.839-1.152
			l-3.077-0.923l-0.757-0.227l-3.077-0.923l-3.833-1.15l-11.464-3.44l-3.839-1.149l-3.08-0.923l-0.754-0.228l-3.08-0.923
			l-3.833-1.152L17.72,104.61l-3.842-1.15L10.801,102.532z M31.386,77.534l25.505-12.263l3.607-1.732l3.304-1.587l3.08,0.923
			l3.834,1.15l4.751,1.426l3.833,1.15l3.077,0.923l0.757,0.227l1.02,0.31l2.057,0.617l1.777,0.532l2.064,0.617l1.021,0.309
			l0.754,0.227l3.08,0.923l3.839,1.149l18.663,5.601l55.943,16.777l57.354,17.204c0.506,0.149,1.027,0.227,1.551,0.227l0,0
			c0.949,0,1.893-0.253,2.73-0.746l1.003-0.588l3.307-1.938l3.095-1.814l3.303-1.94l3.096-1.813l0.211-0.124l3.096-1.814
			l3.301-1.938l0.513-0.298l3.301-1.938l3.097-1.813l0.211-0.124l3.101-1.819l3.307-1.94l9.388-5.508l3.307-1.938l3.095-1.813
			l2.688,0.69l3.709,0.957l23.271,5.978l-3.096,1.814l-3.307,1.938l-9.382,5.503l-3.302,1.938l-3.101,1.819l-0.211,0.126
			l-3.096,1.813l-3.302,1.938l-0.512,0.298l-3.302,1.938l-3.096,1.814l-0.211,0.124l-3.096,1.813l-3.307,1.938l-3.09,1.816
			l-3.308,1.938l-3.097,1.814l-0.204,0.124l-3.091,1.813l-3.308,1.938L245,130.652l-3.301,1.94l-3.097,1.814l-0.205,0.124
			l-3.102,1.814l-2.652,1.556l-52.037-15.612l-60.809-18.241l-1.345-0.405l-4.184-1.252l-3.834-1.149L98.97,97.8l-3.839-1.148
			l-3.08-0.923L91.3,95.495l-3.079-0.923l-3.834-1.149l-18.041-5.41l-3.839-1.152l-3.079-0.923l-0.754-0.228l-1.021-0.309
			l-2.059-0.614l-1.777-0.535l-2.057-0.613l-1.021-0.31l-0.757-0.227l-3.077-0.923l-3.834-1.149l-4.751-1.427l-3.833-1.149
			L31.386,77.534z M315.356,111.7l-3.308,1.938l-12.925,7.583l-3.688,2.158l-3.301,1.938l-3.102,1.813l-0.211,0.124l-3.096,1.814
			l-3.302,1.94l-10.969,6.431l-3.301,1.949l-3.097,1.813l-0.205,0.127l-3.096,1.813l-3.307,1.938l-15.114,8.867l-3.306,1.938
			l-3.096,1.813l-0.211,0.124l-0.012,0.005l-0.222-0.063l-0.755-0.228l-2.557-0.767l-0.775-0.232l-0.2-0.061l-2.558-0.769
			l-3.533-1.057l-54.493-16.345l-59.044-17.713l-11.525-3.457l-3.839-1.149l-3.077-0.923l-0.757-0.228l-3.077-0.923l-3.834-1.149
			l-11.464-3.44l-3.839-1.149l-3.08-0.924l-0.754-0.227l-3.08-0.925l-3.834-1.15L42.371,99.54l-3.839-1.149l-3.08-0.924l9.835-4.725
			l3.607-1.735l3.304-1.587l3.077,0.924l3.842,1.148l18.041,5.413l3.833,1.15l3.077,0.923l0.757,0.227l3.077,0.923l3.842,1.152
			l11.464,3.438l3.833,1.149l3.083,0.923l0.757,0.228l3.077,0.925l3.839,1.15l113.29,33.98c0.512,0.15,1.033,0.228,1.551,0.228l0,0
			c0.948,0,1.897-0.254,2.731-0.741l4.034-2.365l3.306-1.938l3.103-1.813l0.205-0.124l3.09-1.814l3.307-1.938l10.969-6.435
			l3.307-1.938l3.092-1.813l0.211-0.124l3.095-1.813l3.308-1.938l3.09-1.816l3.307-1.938l3.096-1.813l0.211-0.124l3.096-1.814
			l3.302-1.938l0.512-0.298l3.302-1.938l3.096-1.813l2.688,0.69l3.708,0.955l12.641,3.246L315.356,111.7z M326.156,225.098
			l-3.308,1.939l-26.304,15.432l-3.301,1.939l-3.103,1.813l-0.211,0.121l-3.095,1.813l-3.308,1.937l-10.963,6.434l-3.308,1.939
			l-3.095,1.814l-0.211,0.126l-3.096,1.814l-3.308,1.936l-12.05,7.071l-8.163-2.457l-3.533-1.056l-2.558-0.771l-0.971-0.284
			l-2.563-0.771l-3.527-1.061l-114.081-34.22l-3.842-1.149l-3.077-0.923l-0.757-0.227l-3.077-0.928l-3.834-1.15l-11.464-3.438
			l-3.839-1.149l-3.077-0.923l-0.757-0.228l-3.08-0.923l-3.834-1.149l-18.309-5.488l-3.839-1.15l-3.08-0.928l10.526-5.063
			l3.607-1.729l3.304-1.588l3.08,0.923l3.839,1.15l18.31,5.493l3.841,1.15l3.077,0.922l0.757,0.229l3.077,0.923l3.839,1.148
			l11.464,3.443l22.415,6.719l60.781,18.235l4.082,1.224l23.445,7.029c0.512,0.153,1.033,0.227,1.551,0.227l0,0
			c0.627,0,1.244-0.146,1.834-0.369c0.091-0.03,0.175-0.067,0.265-0.104c0.211-0.095,0.438-0.152,0.633-0.274l2.584-1.513
			l3.308-1.936l10.963-6.435l3.307-1.939l3.096-1.814l0.211-0.127l3.09-1.813l3.308-1.937l7.853-4.604l3.308-1.94l3.09-1.814
			l0.206-0.127l3.095-1.813l3.308-1.94l5.441-3.186l3.307-1.94l3.09-1.813l2.689,0.686l3.713,0.96l30.302,7.783L326.156,225.098z
			 M314,58.89l-3.101,1.813l-3.308,1.938l-23.698,13.905l-3.307,1.938l-3.096,1.819l-0.211,0.124l-3.096,1.813l-3.308,1.94
			l-9.376,5.5l-3.307,1.939l-3.102,1.819l-0.206,0.124l-3.095,1.813l-3.303,1.938l-0.512,0.298l-3.301,1.938l-3.096,1.813
			l-0.211,0.124l-3.096,1.817l-3.301,1.938l-2.717,1.593L178.89,90.836l-64.876-19.462l-8.037-2.41l-3.839-1.149l-3.077-0.923
			l-0.757-0.228l-3.077-0.923L91.39,64.59l-1.021-0.306l-0.754-0.227l-3.08-0.927l-3.834-1.148l-4.751-1.424l-3.833-1.152
			l-3.077-0.923l-0.757-0.228l-3.08-0.923l-3.839-1.149l-25.434-7.63l-3.85-1.168l-3.077-0.924l81.732-39.301L314,58.89z"/>
	</g>
</g>
</svg>
