<?xml version="1.0" encoding="iso-8859-1"?>
<!-- Generator: Adobe Illustrator 16.0.0, SVG Export Plug-In . SVG Version: 6.00 Build 0)  -->
<!DOCTYPE svg PUBLIC "-//W3C//DTD SVG 1.1//EN" "http://www.w3.org/Graphics/SVG/1.1/DTD/svg11.dtd">
<svg version="1.1" id="Capa_1" xmlns="http://www.w3.org/2000/svg" xmlns:xlink="http://www.w3.org/1999/xlink" x="0px" y="0px"
	 width="334.643px" height="334.645px" viewBox="0 0 334.643 334.645" style="enable-background:new 0 0 334.643 334.645;"
	 xml:space="preserve">
<g>
	<path style="fill:#FFFFFF;" d="M39.653,315.267c-7.308,0-14.616-0.003-21.924-0.012c-10.665-0.012-17.032-6.393-17.034-17.066
		C0.683,211.04,0.681,123.894,0.693,36.746C0.694,25.054,6.918,18.866,18.69,18.85c6.898-0.009,13.799-0.012,20.697-0.012l30,0.007
		c12.216,0.002,18.156,5.888,18.16,17.995c0.009,30.427,0.008,60.854,0.006,91.282l0,39.265l0,34.479
		c0.001,31.674,0.001,63.349-0.003,95.023c-0.002,12.532-5.858,18.37-18.43,18.371L39.653,315.267z M39.387,25.821
		c-6.895,0-13.792,0.003-20.688,0.012c-7.931,0.011-11.022,3.071-11.023,10.914c-0.013,87.147-0.01,174.293,0.002,261.44
		c0.001,6.779,3.292,10.077,10.06,10.085c7.305,0.009,14.61,0.012,21.916,0.012l29.465-0.007c8.771-0.001,11.446-2.662,11.448-11.39
		c0.005-31.673,0.004-63.348,0.003-95.021l0-34.479l0-39.265c0.001-30.427,0.002-60.854-0.006-91.28
		c-0.003-8.13-2.928-11.013-11.178-11.014L39.387,25.821z M44.001,278.539c-0.001,0,0,0-0.001,0h-0.104
		c-13.728-0.056-24.861-11.443-24.818-25.385c0.044-13.966,11.06-24.906,25.078-24.906h0.127c6.775,0.032,13.125,2.699,17.878,7.509
		c4.688,4.745,7.245,11.004,7.197,17.627C69.257,267.489,58.118,278.539,44.001,278.539z M44.157,235.231
		c-10.115,0-18.063,7.882-18.095,17.944c-0.032,10.095,7.981,18.34,17.863,18.38c10.307,0.001,18.378-8.004,18.453-18.223
		c0.034-4.753-1.806-9.252-5.181-12.668c-3.44-3.48-8.037-5.41-12.945-5.434H44.157z M42.135,204.549
		c-5.967,0-11.935-0.008-17.902-0.025c-7.828-0.023-11.32-3.56-11.322-11.468c-0.006-14.733-0.005-29.468-0.004-44.203l0-12.374
		l-0.014-3.459l-0.001-16.748c-0.002-14.314-0.003-28.629,0.005-42.942c0.004-7.883,3.709-11.558,11.663-11.563
		c13.19-0.008,26.378-0.01,39.566,0.001c7.591,0.006,11.441,3.885,11.443,11.527c0.006,39.909,0.002,79.818-0.018,119.726
		c-0.003,7.825-3.624,11.479-11.393,11.498C56.818,204.537,49.477,204.549,42.135,204.549z M19.875,129.528L19.875,129.528
		l0.015,3.492l0,15.833c-0.001,14.733-0.002,29.468,0.004,44.201c0.001,4.056,0.409,4.475,4.36,4.486
		c13.296,0.04,26.593,0.03,39.888-0.006c3.888-0.01,4.426-0.558,4.428-4.518c0.02-39.906,0.024-79.813,0.018-119.721
		c-0.001-3.82-0.711-4.542-4.467-4.545c-13.186-0.012-26.369-0.01-39.555-0.001c-4.158,0.003-4.683,0.517-4.685,4.584
		c-0.009,14.313-0.007,28.626-0.005,42.938L19.875,129.528z"/>
	<path style="fill:#FFFFFF;" d="M138.007,315.269c-7.23,0-14.457-0.005-21.687-0.016c-10.497-0.017-17.019-6.558-17.02-17.07
		c-0.014-87.106-0.02-174.213-0.013-261.321c0-11.775,6.184-18.008,17.882-18.022c17.24-0.02,34.478-0.006,51.715,0.007
		c10.962,0.01,17.254,6.252,17.261,17.127c0.021,32.067,0.017,64.134,0.014,96.201l-0.002,34.98l0.001,34.639
		c0.002,32.064,0.004,64.13-0.008,96.194c-0.002,8.871-4.176,14.819-11.751,16.748c-1.737,0.443-3.488,0.506-4.974,0.508
		C158.955,315.26,148.479,315.269,138.007,315.269z M136.11,25.813c-6.309,0-12.622,0.003-18.931,0.01
		c-7.85,0.01-10.908,3.105-10.908,11.04c-0.006,87.107,0,174.214,0.013,261.319c0,6.778,3.287,10.078,10.047,10.088
		c17.695,0.025,35.39,0.016,53.085-0.01c1.054-0.002,2.265-0.036,3.257-0.291c2.788-0.709,6.492-2.516,6.494-9.983
		c0.012-32.063,0.01-64.129,0.008-96.192l-0.001-34.639l0.002-34.98c0.003-32.065,0.007-64.131-0.014-96.195
		c-0.005-7.013-3.176-10.143-10.283-10.149C157.956,25.822,147.034,25.813,136.11,25.813z M142.662,278.525c-0.001,0,0,0-0.001,0
		h-0.145c-13.697-0.077-24.832-11.447-24.821-25.346c0.011-13.973,11.013-24.919,25.048-24.919h0.136
		c13.869,0.07,25.12,11.325,25.079,25.092C167.917,267.232,156.569,278.525,142.662,278.525z M142.743,235.244
		c-10.122,0-18.058,7.88-18.065,17.941c-0.008,10.238,7.844,18.301,17.877,18.356h0.106c10.069,0.001,18.284-8.168,18.314-18.211
		c0.029-9.922-8.104-18.036-18.131-18.087H142.743z M140.733,204.555c-5.985,0-11.97-0.008-17.954-0.025
		c-7.69-0.02-11.271-3.688-11.271-11.543v-59.69c-0.008-20.013-0.016-40.028-0.004-60.042c0.005-7.829,3.619-11.479,11.372-11.487
		c13.307-0.015,26.614-0.016,39.919,0c7.439,0.009,11.375,3.892,11.378,11.231c0.011,40.144,0.005,80.286-0.011,120.427
		c-0.004,7.241-3.846,11.078-11.108,11.097C155.615,204.544,148.174,204.555,140.733,204.555z M142.993,68.74
		c-6.703,0-13.405,0.004-20.109,0.012c-3.859,0.004-4.394,0.552-4.396,4.508c-0.012,20.012-0.004,40.024,0.004,60.036v59.691
		c0,4.24,0.596,4.55,4.307,4.56c13.416,0.04,26.827,0.03,40.239-0.007c3.405-0.009,4.141-0.739,4.143-4.116
		c0.016-40.14,0.022-80.281,0.011-120.421c-0.002-3.492-0.784-4.247-4.403-4.251C156.189,68.743,149.591,68.74,142.993,68.74z"/>
	<path style="fill:#FFFFFF;" d="M264.724,314.76c-8.251,0-14.417-4.963-16.09-12.953c-2.588-12.347-5.164-24.695-7.74-37.043
		c-2.544-12.194-5.088-24.39-7.644-36.582c-8.515-40.634-17.039-81.265-25.564-121.896l-6.667-31.772
		c-0.723-3.446-1.449-6.892-2.176-10.337c-1.42-6.733-2.841-13.465-4.23-20.204c-2.032-9.833,2.921-17.538,12.619-19.626
		c15.711-3.386,32.353-6.885,53.96-11.345c1.051-0.217,2.115-0.326,3.165-0.326c7.329,0,13.582,5.368,15.207,13.055
		c4.901,23.188,9.8,46.582,14.536,69.205l18.224,87.082c7.012,33.509,14.022,67.018,21.039,100.527
		c2.37,11.315-2.375,18.569-13.724,20.977c-16.956,3.596-33.917,7.165-50.881,10.727c-1.064,0.222-2.097,0.332-2.851,0.412
		c-0.238,0.024-0.451,0.046-0.622,0.069L264.724,314.76z M264.724,310.553v0.716l0.014-0.614L264.724,310.553z M264.356,19.658
		c-0.576,0-1.167,0.061-1.752,0.182c-21.588,4.456-38.212,7.951-53.902,11.333c-5.93,1.277-8.505,5.321-7.252,11.388
		c1.389,6.729,2.807,13.452,4.226,20.175c0.727,3.448,1.454,6.896,2.178,10.345l6.666,31.772
		c8.524,40.631,17.05,81.263,25.565,121.896c2.555,12.195,5.1,24.392,7.645,36.589c2.575,12.346,5.151,24.692,7.738,37.036
		c0.992,4.736,4.235,7.361,9.139,7.403c0.169-0.021,0.358-0.041,0.563-0.063c0.642-0.068,1.438-0.153,2.158-0.303
		c16.954-3.559,33.912-7.129,50.863-10.723c7.579-1.608,9.917-5.173,8.337-12.715c-7.017-33.509-14.027-67.019-21.038-100.528
		l-18.225-87.081c-4.735-22.62-9.633-46.01-14.533-69.192C271.782,22.679,268.415,19.658,264.356,19.658z M281.82,273.431
		c-0.001,0-0.001,0-0.002,0h-0.135c-13.795-0.072-25.017-11.379-25.016-25.205c0-13.813,11.225-25.134,25.021-25.236l0.185-0.001
		c13.74,0,24.974,11.237,25.042,25.05c0.033,6.818-2.581,13.218-7.359,18.019C294.824,270.812,288.525,273.431,281.82,273.431z
		 M281.874,229.971l-0.132,0.001c-9.976,0.074-18.091,8.263-18.091,18.254c-0.001,9.996,8.105,18.169,18.069,18.222
		c0,0,0.001,0,0.002,0c4.933,0,9.473-1.888,12.885-5.316c3.458-3.475,5.349-8.111,5.325-13.059
		C299.884,238.261,291.615,229.971,281.874,229.971z M248.721,205.005c-3.664,0-8.36-1.568-9.924-9.04
		c-8.226-39.325-16.446-78.651-24.661-117.976c-1.942-9.298,4.129-12.068,7.921-12.893c10.457-2.273,21.1-4.512,31.392-6.678
		l9.622-2.026c0.659-0.139,1.254-0.175,1.647-0.198l0.542-0.029c5.381,0.022,8.997,3.125,10.186,8.736
		c2.329,11.016,4.631,22.037,6.932,33.058l8.365,40.069c3.122,14.953,6.242,29.906,9.367,44.858
		c1.558,7.448-1.423,12.016-8.859,13.571c-7.711,1.615-15.423,3.226-23.136,4.836l-15.849,3.311
		C250.975,204.874,249.815,205.005,248.721,205.005z M265.367,63.148c-0.071,0.005-0.146,0.01-0.228,0.015
		c-0.2,0.012-0.477,0.029-0.63,0.061l-9.623,2.027c-10.281,2.163-20.913,4.4-31.348,6.668c-2.405,0.522-3.31,1.089-2.568,4.641
		c8.215,39.325,16.436,78.65,24.661,117.974c0.729,3.487,1.876,3.487,3.089,3.487c0.6,0,1.312-0.086,2.116-0.253l15.849-3.312
		c7.712-1.61,15.424-3.222,23.134-4.836c3.678-0.77,4.228-1.613,3.455-5.308c-3.126-14.952-6.246-29.907-9.368-44.86l-8.364-40.068
		c-2.301-11.016-4.601-22.031-6.928-33.041C268.058,63.72,267.078,63.181,265.367,63.148z"/>
	<path style="fill-rule:evenodd;clip-rule:evenodd;fill:#FFFFFF;" d="M22.57,253.165c0.038-11.992,9.649-21.483,21.697-21.425
		c11.985,0.057,21.686,9.765,21.601,21.618c-0.087,12.114-9.829,21.736-21.958,21.688C32.082,275,22.533,265.208,22.57,253.165z
		 M43.994,238.144c-8.471,0.023-15.098,6.768-15.029,15.296c0.069,8.505,6.792,15.24,15.206,15.233
		c8.354-0.007,15.257-6.871,15.319-15.235C59.555,244.896,52.688,238.12,43.994,238.144z"/>
	<path style="fill-rule:evenodd;clip-rule:evenodd;fill:#FFFFFF;" d="M121.187,253.182c0.009-11.982,9.626-21.492,21.675-21.43
		c12.019,0.061,21.641,9.674,21.605,21.589c-0.036,12.086-9.816,21.759-21.932,21.692
		C130.663,274.968,121.177,265.26,121.187,253.182z M127.572,253.164c-0.057,8.535,6.514,15.361,14.931,15.508
		c8.496,0.151,15.573-6.793,15.595-15.302c0.022-8.408-6.745-15.178-15.222-15.225C134.294,238.099,127.629,244.64,127.572,253.164z
		"/>
	<path style="fill-rule:evenodd;clip-rule:evenodd;fill:#FFFFFF;" d="M303.425,248.056c0.059,12.139-9.677,21.946-21.723,21.883
		c-11.903-0.063-21.543-9.777-21.542-21.713c0-11.905,9.665-21.656,21.556-21.745C293.518,226.392,303.366,236.18,303.425,248.056z
		 M266.539,248.38c0.036,8.398,6.946,15.211,15.323,15.102c8.678-0.11,15.269-6.881,15.177-15.588
		c-0.086-8.163-6.943-14.964-15.138-15.017C273.434,232.821,266.501,239.817,266.539,248.38z"/>
	<path style="fill-rule:evenodd;clip-rule:evenodd;fill:#FFFFFF;" d="M29.235,77.949c10.157,0,19.958,0,30.019,0
		c0,7.999,0,15.89,0,24.017c-9.96,0-19.84,0-30.019,0C29.235,94.032,29.235,86.148,29.235,77.949z"/>
	<path style="fill-rule:evenodd;clip-rule:evenodd;fill:#FFFFFF;" d="M29.075,157.386c0-1.823,0-3.414,0-5.327
		c10.071,0,20.022,0,30.2,0c0,1.678,0,3.355,0,5.327C49.405,157.386,39.44,157.386,29.075,157.386z"/>
	<path style="fill-rule:evenodd;clip-rule:evenodd;fill:#FFFFFF;" d="M59.308,164.297c0,1.865,0,3.642,0,5.604
		c-10.016,0-19.896,0-30.072,0c0-1.802,0-3.573,0-5.604C39.183,164.297,49.15,164.297,59.308,164.297z"/>
	<path style="fill-rule:evenodd;clip-rule:evenodd;fill:#FFFFFF;" d="M59.333,176.701c0,1.806,0,3.498,0,5.472
		c-10.004,0-19.987,0-30.179,0c0-1.828,0-3.521,0-5.472C39.176,176.701,49.167,176.701,59.333,176.701z"/>
	<path style="fill-rule:evenodd;clip-rule:evenodd;fill:#FFFFFF;" d="M127.669,101.891c0-8.053,0-15.775,0-23.776
		c10.092,0,20.065,0,30.244,0c0,7.855,0,15.661,0,23.776C147.952,101.891,137.995,101.891,127.669,101.891z"/>
	<path style="fill-rule:evenodd;clip-rule:evenodd;fill:#FFFFFF;" d="M158.004,152.019c0,1.948,0,3.544,0,5.398
		c-10.063,0-20.026,0-30.212,0c0-1.766,0-3.437,0-5.398C137.805,152.019,147.769,152.019,158.004,152.019z"/>
	<path style="fill-rule:evenodd;clip-rule:evenodd;fill:#FFFFFF;" d="M127.71,169.804c0-1.904,0-3.605,0-5.533
		c10.127,0,20.096,0,30.23,0c0,1.854,0,3.554,0,5.533C148.014,169.804,138.049,169.804,127.71,169.804z"/>
	<path style="fill-rule:evenodd;clip-rule:evenodd;fill:#FFFFFF;" d="M127.757,182.175c0-1.836,0-3.528,0-5.478
		c10.032,0,20.023,0,30.181,0c0,1.811,0,3.505,0,5.478C147.933,182.175,137.951,182.175,127.757,182.175z"/>
	<path style="fill-rule:evenodd;clip-rule:evenodd;fill:#FFFFFF;" d="M235.853,103.482c-1.68-8.068-3.292-15.807-4.979-23.905
		c10.086-2.108,19.831-4.146,29.878-6.245c1.707,8.058,3.325,15.7,5.047,23.832C255.957,99.24,246.2,101.299,235.853,103.482z"/>
	<path style="fill-rule:evenodd;clip-rule:evenodd;fill:#FFFFFF;" d="M249.843,169.772c-0.482-2.068-0.842-3.62-1.328-5.716
		c9.894-2.093,19.703-4.167,29.803-6.303c0.462,1.852,0.869,3.482,1.437,5.75C269.771,165.597,259.897,167.665,249.843,169.772z"/>
	<path style="fill-rule:evenodd;clip-rule:evenodd;fill:#FFFFFF;" d="M280.943,169.831c0.445,2.12,0.772,3.684,1.208,5.758
		c-9.972,2.103-19.814,4.176-29.89,6.299c-0.393-2.079-0.724-3.833-1.101-5.834C261.178,173.962,270.85,171.939,280.943,169.831z"/>
	<path style="fill-rule:evenodd;clip-rule:evenodd;fill:#FFFFFF;" d="M275.911,145.686c0.415,2.12,0.742,3.768,1.143,5.807
		c-10.004,2.103-19.734,4.147-29.811,6.264c-0.374-2.041-0.692-3.786-1.066-5.824C256.174,149.833,265.822,147.806,275.911,145.686z
		"/>
</g>
</svg>
