<?xml version="1.0" encoding="iso-8859-1"?>
<!-- Generator: Adobe Illustrator 16.0.0, SVG Export Plug-In . SVG Version: 6.00 Build 0)  -->
<!DOCTYPE svg PUBLIC "-//W3C//DTD SVG 1.1//EN" "http://www.w3.org/Graphics/SVG/1.1/DTD/svg11.dtd">
<svg version="1.1" id="Capa_1" xmlns="http://www.w3.org/2000/svg" xmlns:xlink="http://www.w3.org/1999/xlink" x="0px" y="0px"
	 width="334.643px" height="334.645px" viewBox="0 0 334.643 334.645" style="enable-background:new 0 0 334.643 334.645;"
	 xml:space="preserve">
<g>
	<path style="fill-rule:evenodd;clip-rule:evenodd;fill:#FFFFFF;" d="M40.087,166.762c0-49.164-0.002-98.328,0.001-147.492
		c0.001-10.057,4.242-14.428,14.237-14.43c75.396-0.022,150.792-0.022,226.189,0.004c9.632,0.004,13.985,4.504,13.987,14.214
		c0.006,98.641,0.006,197.284,0.002,295.925c0,10.391-4.189,14.644-14.468,14.646c-74.926,0.013-149.85,0.02-224.775,0.015
		c-11.211-0.002-15.175-4.067-15.175-15.388C40.087,265.091,40.087,215.927,40.087,166.762z M289.358,167.058
		c0-48.851,0.006-97.703-0.006-146.556c-0.001-8.676-1.931-10.629-10.408-10.631C214.222,9.864,149.503,9.86,84.782,9.856
		c-8.714-0.001-10.762,2.051-10.763,10.814c-0.01,54.658-0.023,109.316-0.024,163.975c0,43.041,0.014,86.084,0.024,129.125
		c0.003,8.866,1.967,10.854,10.687,10.854c64.563-0.002,129.126-0.004,193.691-0.006c9.195,0,10.955-1.743,10.955-11.002
		C289.358,264.764,289.356,215.912,289.358,167.058z M69.863,10.063c0.205,0.098-0.061-0.137-0.329-0.139
		c-5.025-0.038-10.05-0.069-15.075-0.059c-6.682,0.015-9.116,2.34-9.2,8.984c-0.109,8.636-0.139,17.271-0.136,25.908
		c0.03,79.936,0.075,159.871,0.114,239.806c0.006,10.521-0.049,21.041,0.022,31.561c0.034,5.052,2.223,8.163,6.388,8.371
		c6.202,0.309,12.43,0.081,18.263,0.081c-0.313-3.848-0.827-7.248-0.829-10.65c-0.024-48.039,0.046-96.078,0.046-144.118
		c-0.001-49.466-0.072-98.932-0.05-148.397C69.08,17.696,69.579,13.983,69.863,10.063z"/>
	<path style="fill-rule:evenodd;clip-rule:evenodd;fill:#FFFFFF;" d="M138.129,204.727c-48.16-27.002-60.07-80.759-41.871-121.268
		c18.969-42.229,65.6-64.266,110.612-52.008c44.722,12.178,73.294,55.133,67.728,102.54c-5.133,43.704-45.166,85.39-102.443,81.297
		c-3.131,11.476-6.288,23.046-9.613,35.237c1.778,0.116,3.238,0.294,4.698,0.296c29.995,0.022,59.993,0.035,89.988,0.022
		c8.452-0.004,10.95,2.425,10.952,10.838c0.002,11.464,0.025,22.928-0.015,34.392c-0.022,6.447-3.071,9.619-9.459,9.623
		c-51.358,0.035-102.715,0.037-154.071,0.006c-5.957-0.004-9.14-3.049-9.189-8.897c-0.106-12.407-0.111-24.815,0.011-37.222
		c0.058-5.846,2.943-9.065,8.731-8.581c5.681,0.474,8.365-1.988,10.914-6.572C122.489,231.151,130.32,218.119,138.129,204.727z
		 M140.873,199.935c2.71-4.608,5.247-8.914,7.774-13.224c5.296-9.026,10.429-18.154,15.944-27.046
		c3.269-5.274,8.729-6.741,13.875-4.419c5.108,2.305,7.62,7.986,6.084,13.706c-0.649,2.419-1.222,4.858-1.87,7.277
		c-2.955,11.012-5.924,22.017-8.901,33.072c39.366,5.189,82.262-21.625,93.472-64.968c11.778-45.541-13.146-91.789-57.259-106.508
		c-44.166-14.735-91.845,6.849-109.817,49.781C82.18,130.592,100.796,178.959,140.873,199.935z M107.615,256.277
		c-6.359-0.905-7.208-0.225-7.213,5.975c-0.011,10.83,0.151,21.661-0.068,32.486c-0.088,4.37,1.569,5.688,5.801,5.681
		c50.535-0.101,101.069-0.1,151.604-0.005c4.149,0.007,5.562-1.626,5.523-5.575c-0.102-10.512-0.014-21.027,0.017-31.544
		c0.02-6.918-0.561-7.521-7.431-7.517c-29.976,0.022-59.95,0.048-89.926,0.072c-1.545,0-3.089,0-4.936,0
		c-1.142,4.69-2.299,9.052-3.259,13.458c-2.632,12.08-12.592,20.416-24.708,20.572c-12.521,0.16-22.796-7.762-25.27-20.223
		C106.898,265.361,107.615,260.753,107.615,256.277z M111.563,264.157c0.683,10.792,8.293,19.203,19.128,20.628
		c9.398,1.235,19.058-5.572,21.57-15.234c0.553-2.122,0.938-4.291,1.512-6.406c8.494-31.293,17.019-62.579,25.511-93.873
		c1.298-4.786,0.063-8.279-3.527-9.444c-4.207-1.365-6.412,1.46-8.234,4.559c-4.118,7.011-8.125,14.087-12.23,21.105
		c-13.309,22.745-26.708,45.436-39.885,68.257C113.584,256.905,112.818,260.672,111.563,264.157z"/>
	<path style="fill-rule:evenodd;clip-rule:evenodd;fill:#FFFFFF;" d="M286.014,313.001c0.059,4.532-3.4,8.006-7.944,7.979
		c-4.243-0.025-7.745-3.446-7.839-7.658c-0.098-4.354,3.68-8.186,7.986-8.101C282.466,305.303,285.96,308.79,286.014,313.001z
		 M278.015,317.08c1.244-1.843,2.424-2.844,2.476-3.901c0.041-0.843-1.292-1.754-2.014-2.636c-0.959,0.803-2.545,1.498-2.701,2.436
		C275.615,313.928,276.865,315.116,278.015,317.08z"/>
	<path style="fill-rule:evenodd;clip-rule:evenodd;fill:#FFFFFF;" d="M286.002,21.583c-0.11,4.373-4.027,8.068-8.282,7.809
		c-4.043-0.247-7.647-4.158-7.535-8.176c0.121-4.398,3.881-7.832,8.373-7.647C282.832,13.743,286.111,17.271,286.002,21.583z
		 M278.416,17.594c-1.328,1.784-2.681,2.812-2.609,3.727c0.074,0.951,1.399,2.17,2.434,2.521c0.499,0.17,2.204-1.346,2.248-2.157
		C280.544,20.643,279.475,19.544,278.416,17.594z"/>
	<path style="fill-rule:evenodd;clip-rule:evenodd;fill:#FFFFFF;" d="M278.439,159.641c4.625,0.259,7.924,3.864,7.558,8.255
		c-0.363,4.363-4.063,7.467-8.704,7.302c-4.211-0.149-7.197-3.774-6.877-8.348C270.738,162.254,273.931,159.385,278.439,159.641z
		 M278.016,171.256c1.272-1.891,2.443-2.9,2.521-3.988c0.056-0.775-1.36-1.656-2.12-2.488c-0.865,0.89-2.18,1.666-2.445,2.709
		C275.771,168.262,276.936,169.384,278.016,171.256z"/>
	<path style="fill-rule:evenodd;clip-rule:evenodd;fill:#FFFFFF;" d="M93.281,313.063c0.003,4.49-3.55,7.979-8.067,7.92
		c-4.409-0.058-7.589-3.284-7.638-7.751c-0.052-4.559,3.474-8.126,7.948-8.041C89.71,305.27,93.277,308.889,93.281,313.063z
		 M85.17,316.886c1.281-1.585,2.711-2.585,2.708-3.577c-0.004-0.933-1.509-2.579-2.379-2.596c-0.943-0.021-2.569,1.396-2.693,2.344
		C82.68,314.014,84.032,315.166,85.17,316.886z"/>
	<path style="fill-rule:evenodd;clip-rule:evenodd;fill:#FFFFFF;" d="M85.526,29.398c-4.211,0.132-7.725-3.24-7.912-7.593
		c-0.199-4.66,3.04-8.193,7.58-8.271c4.293-0.075,7.913,3.27,8.064,7.453C93.419,25.417,89.885,29.26,85.526,29.398z M85.549,17.775
		c-1.292,1.544-2.743,2.521-2.728,3.474c0.015,0.928,1.5,2.51,2.399,2.554c0.911,0.042,2.536-1.356,2.667-2.29
		C88.016,20.587,86.674,19.454,85.549,17.775z"/>
	<path style="fill-rule:evenodd;clip-rule:evenodd;fill:#FFFFFF;" d="M85.361,175.04c-4.444-0.017-7.687-3.233-7.777-7.714
		c-0.089-4.415,3.257-8.038,7.45-8.068c4.46-0.031,8.032,3.651,7.918,8.162C92.827,172.355,90.135,175.057,85.361,175.04z
		 M88.783,167.135c-1.588-1.191-2.73-2.67-3.567-2.514c-0.994,0.186-2.394,1.791-2.375,2.758c0.017,0.902,1.598,2.366,2.61,2.475
		C86.289,169.941,87.3,168.42,88.783,167.135z"/>
	<path style="fill-rule:evenodd;clip-rule:evenodd;fill:#FFFFFF;" d="M278.015,317.08c-1.149-1.964-2.399-3.151-2.239-4.102
		c0.156-0.938,1.742-1.633,2.701-2.436c0.722,0.882,2.055,1.793,2.014,2.636C280.438,314.236,279.259,315.237,278.015,317.08z"/>
	<path style="fill-rule:evenodd;clip-rule:evenodd;fill:#FFFFFF;" d="M278.416,17.594c1.059,1.949,2.128,3.049,2.072,4.091
		c-0.044,0.812-1.749,2.327-2.248,2.157c-1.034-0.352-2.359-1.57-2.434-2.521C275.735,20.406,277.088,19.379,278.416,17.594z"/>
	<path style="fill-rule:evenodd;clip-rule:evenodd;fill:#FFFFFF;" d="M278.016,171.256c-1.08-1.872-2.244-2.993-2.045-3.768
		c0.266-1.043,1.58-1.819,2.445-2.709c0.76,0.832,2.176,1.713,2.12,2.488C280.459,168.355,279.288,169.365,278.016,171.256z"/>
	<path style="fill-rule:evenodd;clip-rule:evenodd;fill:#FFFFFF;" d="M85.17,316.886c-1.138-1.721-2.49-2.872-2.365-3.829
		c0.124-0.948,1.75-2.364,2.693-2.344c0.871,0.017,2.375,1.663,2.379,2.596C87.881,314.302,86.451,315.302,85.17,316.886z"/>
	<path style="fill-rule:evenodd;clip-rule:evenodd;fill:#FFFFFF;" d="M85.549,17.775c1.125,1.679,2.467,2.812,2.338,3.737
		c-0.131,0.934-1.756,2.332-2.667,2.29c-0.899-0.044-2.385-1.626-2.399-2.554C82.806,20.296,84.257,19.319,85.549,17.775z"/>
	<path style="fill-rule:evenodd;clip-rule:evenodd;fill:#FFFFFF;" d="M88.783,167.135c-1.483,1.285-2.494,2.807-3.332,2.719
		c-1.012-0.108-2.593-1.572-2.61-2.475c-0.019-0.967,1.381-2.572,2.375-2.758C86.053,164.465,87.195,165.943,88.783,167.135z"/>
	<path style="fill-rule:evenodd;clip-rule:evenodd;fill:#FFFFFF;" d="M181.686,101.132c11.641-0.021,20.559,8.818,20.61,20.424
		c0.05,11.506-9.003,20.723-20.424,20.795c-11.333,0.071-20.67-9.189-20.768-20.602
		C161.009,110.385,170.226,101.153,181.686,101.132z M181.951,137.108c8.453-0.066,15.597-7.375,15.387-15.742
		c-0.204-8.191-7.342-15.238-15.501-15.303c-8.349-0.064-15.563,7.205-15.521,15.641
		C166.357,130.276,173.359,137.175,181.951,137.108z"/>
	<path style="fill-rule:evenodd;clip-rule:evenodd;fill:#FFFFFF;" d="M142.879,265.029c-0.223,5.86-4.872,10.008-10.926,9.752
		c-5.56-0.235-9.966-4.904-9.866-10.457c0.108-5.978,5.12-10.668,11.039-10.335C138.925,254.316,143.107,259.05,142.879,265.029z
		 M133.44,258.442c-0.749,0.029-1.498,0.061-2.248,0.091c-1.271,1.977-3.33,3.844-3.631,5.959c-0.472,3.319,2.25,5.649,5.214,5.046
		c1.965-0.401,4.695-3.257,4.754-5.089C137.594,262.493,134.918,260.449,133.44,258.442z"/>
	<path style="fill-rule:evenodd;clip-rule:evenodd;fill:#FFFFFF;" d="M181.951,137.108c-8.592,0.066-15.594-6.832-15.636-15.404
		c-0.041-8.436,7.173-15.705,15.521-15.641c8.159,0.064,15.297,7.111,15.501,15.303
		C197.548,129.733,190.404,137.042,181.951,137.108z"/>
	<path style="fill-rule:evenodd;clip-rule:evenodd;fill:#FFFFFF;" d="M133.44,258.442c1.478,2.007,4.153,4.051,4.089,6.007
		c-0.059,1.832-2.789,4.688-4.754,5.089c-2.963,0.604-5.686-1.727-5.214-5.046c0.301-2.115,2.36-3.982,3.631-5.959
		C131.942,258.503,132.691,258.471,133.44,258.442z"/>
</g>
</svg>
