<?xml version="1.0" encoding="iso-8859-1"?>
<!-- Generator: Adobe Illustrator 16.0.0, SVG Export Plug-In . SVG Version: 6.00 Build 0)  -->
<!DOCTYPE svg PUBLIC "-//W3C//DTD SVG 1.1//EN" "http://www.w3.org/Graphics/SVG/1.1/DTD/svg11.dtd">
<svg version="1.1" id="&#x421;&#x43B;&#x43E;&#x439;_1"
	 xmlns="http://www.w3.org/2000/svg" xmlns:xlink="http://www.w3.org/1999/xlink" x="0px" y="0px" width="42.672px"
	 height="42.672px" viewBox="0 0 42.672 42.672" style="enable-background:new 0 0 42.672 42.672;" xml:space="preserve">
<path style="fill:#FFFFFF;" d="M9.394,31.544c-0.261,0-0.517-0.103-0.707-0.293c-0.262-0.262-0.358-0.647-0.249-1.001l2.519-8.176
	c0.048-0.156,0.133-0.297,0.249-0.413L27.071,5.795c0.375-0.375,1.039-0.375,1.414,0l5.657,5.657c0.391,0.391,0.391,1.023,0,1.414
	L18.276,28.732c-0.115,0.115-0.257,0.201-0.413,0.249L9.688,31.5C9.591,31.529,9.492,31.544,9.394,31.544z M12.795,22.9l-1.89,6.132
	l6.132-1.889l14.983-14.983l-4.243-4.243L12.795,22.9z"/>
<path style="fill:#FFFFFF;" d="M17.57,29.025c-0.36,0-0.708-0.195-0.887-0.536l-1.802-3.435l-3.434-1.801
	c-0.489-0.257-0.678-0.861-0.421-1.35c0.257-0.489,0.861-0.677,1.35-0.421l3.71,1.946c0.18,0.095,0.327,0.241,0.421,0.421
	l1.947,3.711c0.256,0.489,0.068,1.093-0.421,1.35C17.886,28.989,17.727,29.025,17.57,29.025z"/>
<path style="fill:#FFFFFF;" d="M30.262,16.332c-0.256,0-0.512-0.098-0.707-0.293l-5.657-5.656c-0.391-0.39-0.391-1.023,0-1.414
	s1.023-0.391,1.414,0l5.657,5.656c0.391,0.39,0.391,1.023,0,1.414C30.774,16.234,30.518,16.332,30.262,16.332z"/>
<path style="fill:#FFFFFF;" d="M33.435,37.361H9.167c-0.552,0-1-0.448-1-1s0.448-1,1-1h24.268c0.552,0,1,0.448,1,1
	S33.987,37.361,33.435,37.361z"/>
</svg>
