<?xml version="1.0" encoding="iso-8859-1"?>
<!-- Generator: Adobe Illustrator 16.0.0, SVG Export Plug-In . SVG Version: 6.00 Build 0)  -->
<!DOCTYPE svg PUBLIC "-//W3C//DTD SVG 1.1//EN" "http://www.w3.org/Graphics/SVG/1.1/DTD/svg11.dtd">
<svg version="1.1" id="&#x421;&#x43B;&#x43E;&#x439;_1"
	 xmlns="http://www.w3.org/2000/svg" xmlns:xlink="http://www.w3.org/1999/xlink" x="0px" y="0px" width="42.672px"
	 height="42.672px" viewBox="0 0 42.672 42.672" style="enable-background:new 0 0 42.672 42.672;" xml:space="preserve">
<path d="M35.336,37.336h-28c-0.552,0-1-0.448-1-1v-6.134c0-0.552,0.448-1,1-1s1,0.448,1,1v5.134h26v-5.134c0-0.552,0.448-1,1-1
	s1,0.448,1,1v6.134C36.336,36.889,35.888,37.336,35.336,37.336z"/>
<path d="M21.381,31.202c-0.25,0-0.501-0.094-0.695-0.281l-8.037-7.764c-0.397-0.384-0.408-1.017-0.024-1.414
	c0.384-0.398,1.016-0.408,1.414-0.024l7.342,7.093l7.342-7.093c0.398-0.383,1.031-0.373,1.414,0.024
	c0.384,0.397,0.373,1.03-0.024,1.414l-8.037,7.764C21.882,31.108,21.631,31.202,21.381,31.202z"/>
<line x1="21.381" y1="6.336" x2="21.381" y2="30.202"/>
<path d="M21.381,31.202c-0.552,0-1-0.448-1-1V6.336c0-0.552,0.448-1,1-1s1,0.448,1,1v23.866
	C22.381,30.754,21.933,31.202,21.381,31.202z"/>
</svg>
