<?xml version="1.0" encoding="iso-8859-1"?>
<!-- Generator: Adobe Illustrator 16.0.0, SVG Export Plug-In . SVG Version: 6.00 Build 0)  -->
<!DOCTYPE svg PUBLIC "-//W3C//DTD SVG 1.1//EN" "http://www.w3.org/Graphics/SVG/1.1/DTD/svg11.dtd">
<svg version="1.1" id="&#x421;&#x43B;&#x43E;&#x439;_1"
	 xmlns="http://www.w3.org/2000/svg" xmlns:xlink="http://www.w3.org/1999/xlink" x="0px" y="0px" width="170px" height="92.965px"
	 viewBox="0 0 170 92.965" style="enable-background:new 0 0 170 92.965;" xml:space="preserve">
<g>
	<path d="M17.959,79.076h-6.91v7.252H8.067V69.16h10.907v2.405H11.05v5.104h6.909V79.076z"/>
	<path d="M36.843,78.193c0,1.682-0.291,3.157-0.872,4.428c-0.582,1.27-1.413,2.244-2.494,2.924s-2.325,1.021-3.732,1.021
		c-1.391,0-2.631-0.341-3.72-1.021s-1.931-1.648-2.523-2.906s-0.894-2.708-0.901-4.352V77.32c0-1.675,0.297-3.151,0.89-4.435
		c0.594-1.281,1.431-2.262,2.512-2.94c1.081-0.681,2.321-1.021,3.721-1.021c1.398,0,2.639,0.337,3.72,1.009s1.916,1.64,2.505,2.9
		c0.59,1.262,0.888,2.729,0.896,4.404L36.843,78.193L36.843,78.193z M33.861,77.296c0-1.902-0.36-3.36-1.079-4.374
		c-0.719-1.015-1.739-1.521-3.06-1.521c-1.29,0-2.298,0.505-3.024,1.516c-0.728,1.01-1.099,2.438-1.114,4.286v0.99
		c0,1.887,0.367,3.345,1.104,4.374c0.734,1.029,1.755,1.545,3.06,1.545c1.321,0,2.336-0.503,3.048-1.51
		c0.711-1.007,1.067-2.477,1.067-4.409L33.861,77.296L33.861,77.296z"/>
	<path d="M47.935,79.724H44.61v6.604h-2.983V69.16h6.037c1.981,0,3.51,0.443,4.587,1.333s1.615,2.176,1.615,3.858
		c0,1.148-0.277,2.11-0.831,2.887c-0.554,0.773-1.327,1.371-2.317,1.787l3.856,7.148v0.153h-3.195L47.935,79.724z M44.61,77.32
		h3.064c1.007,0,1.792-0.253,2.358-0.761s0.849-1.2,0.849-2.082c0-0.919-0.262-1.631-0.783-2.134
		c-0.523-0.503-1.304-0.763-2.342-0.777h-3.147L44.61,77.32L44.61,77.32z"/>
	<path d="M62.374,69.16l4.952,13.159l4.94-13.159h3.855v17.168h-2.972v-5.66l0.295-7.569l-5.07,13.229h-2.134l-5.058-13.218
		l0.294,7.558v5.66h-2.972V69.16H62.374z"/>
	<path d="M90.433,81.906c0-0.755-0.266-1.336-0.796-1.745c-0.53-0.408-1.487-0.821-2.871-1.238c-1.384-0.416-2.483-0.88-3.302-1.391
		c-1.563-0.982-2.347-2.266-2.347-3.846c0-1.383,0.563-2.521,1.691-3.419c1.128-0.896,2.593-1.345,4.393-1.345
		c1.195,0,2.26,0.221,3.195,0.661c0.936,0.439,1.671,1.066,2.205,1.88c0.533,0.814,0.802,1.716,0.802,2.706h-2.972
		c0-0.889-0.28-1.584-0.844-2.087c-0.562-0.503-1.365-0.754-2.41-0.754c-0.976,0-1.731,0.207-2.271,0.622S84.1,72.946,84.1,73.69
		c0,0.626,0.29,1.147,0.872,1.566s1.541,0.826,2.877,1.221c1.337,0.396,2.408,0.848,3.219,1.354c0.81,0.507,1.403,1.089,1.781,1.745
		c0.377,0.656,0.564,1.425,0.564,2.305c0,1.431-0.548,2.568-1.645,3.414c-1.098,0.845-2.584,1.267-4.463,1.267
		c-1.242,0-2.385-0.229-3.427-0.688c-1.041-0.46-1.851-1.095-2.429-1.904c-0.578-0.809-0.867-1.753-0.867-2.83h2.983
		c0,0.977,0.322,1.729,0.967,2.266c0.646,0.534,1.568,0.802,2.771,0.802c1.036,0,1.816-0.211,2.341-0.631
		C90.171,83.155,90.433,82.598,90.433,81.906z"/>
	<path d="M98.27,86.328V69.16h5.069c1.84,0,3.234,0.38,4.187,1.139s1.427,1.878,1.427,3.356c0,0.889-0.242,1.662-0.726,2.317
		c-0.483,0.657-1.146,1.127-1.986,1.41c0.998,0.22,1.802,0.711,2.411,1.474c0.608,0.763,0.914,1.643,0.914,2.64
		c0,1.517-0.489,2.701-1.468,3.554c-0.979,0.854-2.342,1.278-4.086,1.278H98.27z M99.719,76.86h3.963
		c1.21-0.023,2.146-0.31,2.812-0.855c0.665-0.548,0.997-1.346,0.997-2.393c0-1.104-0.345-1.916-1.032-2.439
		c-0.687-0.522-1.728-0.785-3.118-0.785h-3.619v6.473H99.719z M99.719,78.086v7.016h4.352c1.242,0,2.227-0.314,2.954-0.946
		c0.727-0.632,1.091-1.51,1.091-2.631c0-1.061-0.349-1.897-1.044-2.515c-0.695-0.615-1.656-0.924-2.883-0.924H99.719z"/>
	<path d="M124.147,81.506h-7.794l-1.77,4.822h-1.521l6.497-17.168h1.38l6.497,17.168h-1.511L124.147,81.506z M116.8,80.28h6.887
		l-3.443-9.352L116.8,80.28z"/>
	<path d="M144.551,86.328h-1.449l-9.869-14.691v14.691h-1.462V69.16h1.462l9.881,14.703V69.16h1.438V86.328z"/>
	<path d="M154.593,77.802l-2.417,2.382v6.145h-1.449V69.16h1.449v9.256l8.797-9.256h1.827l-7.192,7.641l7.747,9.527h-1.77
		L154.593,77.802z"/>
</g>
<g>
	<g>
		<path d="M107.453,37.015l-3.574-0.919l0.879-0.517c0.27-0.157,0.417-0.462,0.373-0.772c-0.014-0.101-0.054-0.191-0.104-0.275
			c0.086-0.146,0.128-0.317,0.104-0.494c-0.043-0.31-0.269-0.563-0.57-0.638l-0.207-0.055l1.121-0.657
			c0.269-0.157,0.417-0.464,0.374-0.771c-0.016-0.104-0.056-0.193-0.104-0.278c0.085-0.146,0.127-0.316,0.104-0.493
			c-0.044-0.31-0.271-0.563-0.571-0.64l-0.538-0.137l1.489-0.874c0.269-0.158,0.417-0.463,0.373-0.772
			c-0.015-0.103-0.055-0.192-0.104-0.276c0.086-0.147,0.128-0.318,0.104-0.494c-0.043-0.31-0.27-0.563-0.571-0.641l-0.72-0.185
			l0.896-0.526c0.27-0.157,0.417-0.463,0.373-0.771c-0.014-0.103-0.053-0.192-0.103-0.277c0.086-0.146,0.128-0.316,0.103-0.493
			c-0.043-0.31-0.269-0.563-0.571-0.64l-1.599-0.411l1.703-0.998c0.269-0.157,0.417-0.462,0.373-0.771
			c-0.014-0.103-0.053-0.192-0.104-0.277c0.086-0.146,0.128-0.318,0.104-0.493c-0.043-0.31-0.27-0.563-0.571-0.64l-1.053-0.271
			l0.67-0.394c0.269-0.158,0.417-0.462,0.373-0.771c-0.014-0.103-0.054-0.192-0.104-0.276c0.086-0.146,0.129-0.318,0.104-0.494
			c-0.042-0.31-0.27-0.563-0.57-0.64l-2.569-0.66l2.713-1.593c0.269-0.157,0.417-0.463,0.374-0.771
			c-0.015-0.103-0.055-0.192-0.104-0.277c0.086-0.146,0.128-0.317,0.104-0.494c-0.044-0.309-0.271-0.562-0.571-0.639L76.547,6.163
			c-0.063-0.018-0.128-0.024-0.191-0.024c-0.115,0-0.229,0.025-0.333,0.076l-11.668,5.61c-0.287,0.138-0.46,0.438-0.436,0.755
			c0.01,0.116,0.053,0.222,0.107,0.317c-0.08,0.135-0.12,0.29-0.106,0.452c0.024,0.317,0.242,0.586,0.547,0.68l2.822,0.846
			l-2.88,1.385c-0.287,0.14-0.459,0.438-0.435,0.755c0.009,0.116,0.051,0.223,0.105,0.318c-0.08,0.135-0.12,0.291-0.105,0.453
			c0.021,0.275,0.194,0.51,0.439,0.627l-2.943,1.416c-0.287,0.139-0.46,0.438-0.436,0.756c0.01,0.116,0.051,0.221,0.107,0.318
			c-0.08,0.134-0.12,0.291-0.107,0.451c0.025,0.317,0.242,0.588,0.547,0.68l3.186,0.955c-0.085,0.137-0.13,0.298-0.117,0.465
			c0.009,0.116,0.051,0.221,0.105,0.317c-0.08,0.135-0.12,0.291-0.105,0.452c0.024,0.317,0.242,0.587,0.547,0.68l0.827,0.248
			l-0.917,0.44c-0.287,0.138-0.459,0.438-0.436,0.755c0.01,0.116,0.052,0.222,0.106,0.318c-0.079,0.134-0.119,0.291-0.106,0.452
			c0.024,0.317,0.242,0.588,0.547,0.679l0.734,0.221l-1.6,0.769c-0.287,0.138-0.46,0.438-0.436,0.755
			c0.009,0.116,0.051,0.221,0.106,0.318c-0.079,0.135-0.12,0.291-0.106,0.451c0.024,0.317,0.242,0.587,0.547,0.68l0.373,0.111
			l-1.201,0.576c-0.286,0.14-0.459,0.438-0.435,0.754c0.009,0.117,0.051,0.223,0.106,0.32c-0.08,0.134-0.12,0.29-0.106,0.451
			c0.024,0.316,0.242,0.587,0.547,0.679l0.857,0.256l-3.908,1.881c-0.287,0.139-0.459,0.438-0.436,0.755
			c0.01,0.117,0.051,0.223,0.106,0.319c-0.08,0.134-0.12,0.29-0.106,0.451c0.025,0.318,0.242,0.588,0.548,0.68l4.47,1.34
			l-0.197,0.096c-0.287,0.139-0.459,0.438-0.435,0.755c0.009,0.117,0.051,0.222,0.105,0.317c-0.08,0.135-0.12,0.291-0.105,0.453
			c0.024,0.317,0.242,0.586,0.547,0.679l0.827,0.249l-0.917,0.439c-0.287,0.139-0.459,0.438-0.436,0.756
			c0.009,0.116,0.051,0.223,0.106,0.318c-0.08,0.134-0.119,0.291-0.106,0.452c0.024,0.316,0.242,0.587,0.547,0.679l28.732,8.618
			c0.072,0.021,0.146,0.033,0.221,0.033c0.136,0,0.271-0.036,0.391-0.107l11.668-6.844c0.269-0.158,0.417-0.463,0.373-0.773
			c-0.015-0.101-0.055-0.191-0.104-0.275c0.086-0.146,0.128-0.317,0.104-0.494c-0.043-0.31-0.27-0.563-0.571-0.64l-0.72-0.187
			l0.896-0.526c0.27-0.157,0.417-0.463,0.373-0.771c-0.014-0.103-0.053-0.192-0.103-0.277c0.086-0.146,0.128-0.316,0.103-0.493
			c-0.043-0.31-0.269-0.563-0.571-0.64l-1.44-0.37l3.085-1.81c0.269-0.158,0.417-0.462,0.373-0.772
			c-0.015-0.102-0.055-0.192-0.104-0.276c0.085-0.146,0.128-0.317,0.104-0.494C107.982,37.345,107.756,37.092,107.453,37.015z
			 M105.397,45.278l-0.474,0.275l-10.754,6.311l-27.746-8.321l-0.548-0.165l-0.438-0.133l1.679-0.808l0.515-0.246l0.474-0.228
			l0.438,0.132l0.547,0.163l24.834,7.45c0.073,0.021,0.147,0.032,0.222,0.032l0,0c0.137,0,0.271-0.037,0.39-0.106l8.002-4.692
			l0.472-0.276l0.442-0.26l0.384,0.099l0.53,0.137l1.472,0.378L105.397,45.278z M105.373,42.383l-0.472,0.277l-1.566,0.919
			l-0.471,0.275l-0.442,0.261l-0.029,0.017l-0.443,0.26l-0.471,0.276l-7.333,4.302l-24.026-7.207l-0.548-0.165l-0.439-0.131
			l-0.107-0.032l-0.439-0.132l-0.547-0.165l-1.638-0.489l-0.547-0.165l-0.439-0.133l0.958-0.461l0.517-0.248l0.472-0.227
			l0.438,0.132l0.549,0.164l1.637,0.491l0.547,0.163l0.439,0.133l0.107,0.032l0.439,0.132l0.548,0.164l17.474,5.241
			c0.072,0.021,0.147,0.032,0.222,0.032l0,0c0.136,0,0.271-0.037,0.39-0.105l1.63-0.956l0.454-0.268l0.416-0.242l0.365,0.108
			l0.505,0.152l1.851,0.555c0.073,0.021,0.147,0.032,0.221,0.032l0,0c0.137,0,0.271-0.036,0.392-0.105l2.389-1.4l0.473-0.277
			l0.441-0.259l0.03-0.019l0.441-0.26l0.473-0.275l1.564-0.918l0.474-0.276l0.441-0.259l0.384,0.098l0.528,0.137l2.193,0.563
			L105.373,42.383z M61.029,36.712l4.669-2.245l0.515-0.248l0.473-0.227l0.438,0.133l0.548,0.163l0.582,0.176l-0.472,0.228
			l-0.515,0.246l-0.741,0.355c-0.287,0.139-0.459,0.438-0.436,0.756c0.01,0.116,0.052,0.222,0.106,0.318
			c0.071,0.126,0.176,0.228,0.306,0.296c0.044,0.022,0.085,0.05,0.135,0.063l2.792,0.837l0.547,0.164l0.439,0.133l0.107,0.031
			l0.439,0.134l0.549,0.163l1.637,0.49l0.547,0.164l0.438,0.133l0.108,0.032l0.439,0.132l0.548,0.164l16.409,4.921l-0.416,0.244
			l-0.454,0.268l-1.012,0.593l-16.661-4.997l-0.55-0.164l-0.438-0.131l-0.108-0.033l-0.438-0.132l-0.547-0.164l-1.637-0.491
			l-0.548-0.164L68.39,38.92l-0.108-0.032l-0.44-0.131l-0.547-0.165l-5.278-1.584l-0.549-0.164L61.029,36.712z M63.966,32.372
			l1.964-0.944l0.515-0.247l0.473-0.227l0.439,0.132l0.547,0.165l1.666,0.499l0.547,0.164l0.439,0.131l0.107,0.033l0.439,0.132
			l0.548,0.163l0.582,0.177l0.547,0.164l0.438,0.131l0.108,0.033l0.439,0.131l0.548,0.164l2.702,0.812l7.986,2.396l8.188,2.456
			c0.072,0.021,0.146,0.032,0.221,0.032l0,0c0.136,0,0.271-0.036,0.39-0.106l0.144-0.084l0.472-0.275l1.121-0.658l0.471-0.276
			l0.442-0.259l0.03-0.019l0.441-0.26l0.473-0.275l0.776-0.455l0.472-0.277l0.441-0.259l0.03-0.02l0.442-0.259l0.472-0.276
			l1.548-0.907l0.471-0.277l0.442-0.259l0.384,0.099l0.53,0.137l0.958,0.247l-0.441,0.259l-0.472,0.275l-1.548,0.908l-0.473,0.276
			l-0.442,0.261l-0.026,0.015l-0.44,0.26l-0.473,0.276l-0.776,0.455l-0.473,0.277l-0.441,0.258l-0.03,0.018l-0.441,0.261
			l-0.472,0.275l-1.121,0.657l-0.472,0.277l-0.441,0.259l-0.029,0.018l-0.442,0.261l-0.472,0.275l-1.565,0.918l-0.172,0.102
			l-3.362-1.01l-13.272-3.98l-0.548-0.164l-0.439-0.131l-0.108-0.033l-0.438-0.131l-0.548-0.165l-2.614-0.784l-0.548-0.164
			l-0.439-0.132l-0.107-0.032l-0.439-0.132l-0.548-0.165l-0.582-0.174l-0.548-0.164l-0.44-0.133l-0.106-0.032l-0.44-0.132
			l-0.547-0.164l-1.666-0.5l-0.547-0.164L63.966,32.372z M64.684,29.478l2.361-1.136l0.517-0.249l0.472-0.227l0.439,0.132
			l0.548,0.164l1.182,0.354l0.548,0.165l0.44,0.132l0.107,0.032l0.439,0.132l0.548,0.164l4.331,1.301l0.547,0.162l0.439,0.133
			l0.107,0.031l0.439,0.133l3.459,1.039l12.338,3.699c0.072,0.021,0.146,0.032,0.221,0.032c0.135,0,0.271-0.036,0.391-0.105
			l0.354-0.208l0.472-0.277l0.442-0.259l0.029-0.018l0.441-0.261l0.473-0.277l1.549-0.906l0.472-0.276l0.442-0.26l0.03-0.018
			l0.441-0.26l0.472-0.277l1.791-1.051l0.473-0.276l0.441-0.259l0.385,0.099l0.529,0.138l1.289,0.331l-0.442,0.259l-0.473,0.277
			l-1.79,1.05l-0.472,0.276l-0.442,0.261l-0.029,0.018l-0.441,0.26l-0.472,0.275l-1.548,0.909l-0.473,0.276l-0.442,0.26
			l-0.029,0.018l-0.441,0.26l-0.472,0.276l-0.777,0.454l-0.472,0.277l-0.442,0.26l-0.029,0.018l-0.44,0.261l-0.472,0.275
			l-1.067,0.626l-18.066-5.419l-0.548-0.165l-0.44-0.132l-0.107-0.032l-0.439-0.132l-0.547-0.163l-0.582-0.176l-0.548-0.164
			l-0.44-0.132l-0.107-0.032l-0.438-0.133l-0.547-0.164l-1.666-0.499l-0.547-0.164l-0.439-0.133l-0.107-0.031l-0.439-0.132
			l-0.548-0.164l-1.183-0.354l-0.548-0.163L64.684,29.478z M65.437,26.284l1.679-0.809l0.515-0.247l0.474-0.228l0.438,0.132
			l0.547,0.165l1.544,0.463l0.548,0.165l0.439,0.131l0.107,0.032l0.438,0.133l0.548,0.164l1.183,0.354l0.547,0.164l0.438,0.132
			l0.107,0.032l0.439,0.132l6.486,1.945l12.004,3.603c0.073,0.021,0.147,0.031,0.222,0.031l0,0c0.137,0,0.271-0.036,0.39-0.105
			l0.338-0.198L95.34,32.2l0.441-0.259l0.03-0.02l0.442-0.26l0.473-0.276l1.791-1.05l0.471-0.277l0.442-0.259l0.029-0.019
			l0.442-0.26l0.471-0.275l2.159-1.267l0.471-0.276l0.443-0.259l0.384,0.099l0.53,0.137l1.473,0.378l-0.441,0.26l-0.473,0.276
			l-2.158,1.267l-0.472,0.275l-0.441,0.259l-0.03,0.019l-0.441,0.26l-0.472,0.276L99.114,32l-0.473,0.277l-0.442,0.26l-0.03,0.018
			l-0.441,0.26l-0.473,0.275l-1.548,0.908l-0.472,0.277l-0.442,0.26l-0.029,0.018l-0.441,0.258l-0.157,0.095l-3.093-0.93
			l-8.676-2.603l-0.583-0.175l-3.623-1.087l-0.547-0.164l-4.332-1.301l-0.549-0.162l-0.438-0.133l-0.108-0.032l-0.438-0.133
			l-0.548-0.163l-1.183-0.354l-0.548-0.164l-0.439-0.132l-0.107-0.032l-0.44-0.132l-0.547-0.165l-1.543-0.464l-0.548-0.164
			L65.437,26.284z M65.414,23.389l0.268-0.128l0.516-0.247l0.472-0.227l0.439,0.132l0.548,0.164l1.637,0.491l0.547,0.164
			l0.439,0.131l0.108,0.033l0.438,0.132l0.548,0.164l1.543,0.463l0.548,0.165l0.439,0.132l0.108,0.032l0.438,0.131l0.548,0.165
			l11.979,3.594l3.329,0.997c0.072,0.021,0.146,0.033,0.222,0.033l0,0c0.089,0,0.176-0.021,0.26-0.052
			c0.043-0.018,0.089-0.03,0.129-0.055l0.848-0.498l0.453-0.266l0.386-0.226l0.029-0.019L93,28.906l0.227,0.067l0.277,0.083
			l0.322,0.098c0.073,0.021,0.147,0.031,0.221,0.031l0,0c0.001,0,0.002-0.001,0.004-0.001c0.136-0.001,0.27-0.035,0.387-0.104
			l0.229-0.134l0.441-0.261l0.03-0.018l0.441-0.259l0.472-0.276l2.158-1.266l0.473-0.277l0.441-0.259l0.029-0.019l0.441-0.259
			l0.473-0.276l1.564-0.918l0.473-0.276l0.441-0.26l0.385,0.099l0.528,0.137l2.352,0.604l-0.442,0.259l-0.472,0.276l-1.566,0.919
			l-0.472,0.276l-0.442,0.259l-0.03,0.019l-0.441,0.26l-0.471,0.276l-2.158,1.266l-0.473,0.277l-0.441,0.259l-0.03,0.019
			l-0.441,0.259l-0.472,0.275l-1.791,1.052l-0.472,0.275l-0.443,0.261l-0.029,0.018l-0.441,0.26l-0.141,0.082l-2.762-0.828
			l-8.676-2.602l-0.583-0.176l-6.646-1.993l-0.553-0.166l-1.182-0.354l-0.548-0.164l-0.44-0.132l-0.106-0.032l-0.44-0.132
			l-0.547-0.164l-1.544-0.464l-0.548-0.164l-0.439-0.131l-0.107-0.033l-0.439-0.132l-0.547-0.164L66.4,23.685l-0.547-0.165
			L65.414,23.389z M61.798,20.521l3.683-1.771l0.515-0.247l0.472-0.227l0.146,0.044l-0.472,0.227l-0.517,0.248l-0.642,0.309
			c-0.176,0.085-0.302,0.235-0.373,0.409c-0.043,0.108-0.071,0.225-0.063,0.347c0.003,0.034,0.018,0.066,0.023,0.101
			c0.017,0.078,0.044,0.15,0.083,0.218c0.071,0.126,0.175,0.229,0.306,0.296c0.044,0.023,0.085,0.051,0.134,0.063l2.754,0.826
			l0.547,0.165l0.438,0.131l0.108,0.033l0.438,0.132l0.549,0.164l1.636,0.49l0.548,0.164l0.438,0.133l0.108,0.031l0.439,0.132
			l0.548,0.164l1.544,0.465l0.548,0.164l0.52,0.154l0.027,0.009l7.676,2.304l7.662,2.298l-0.082,0.048l-0.334,0.196l-0.448,0.266
			l-0.229,0.134l-14.5-4.349l-0.548-0.164l-0.439-0.132l-0.107-0.032l-0.439-0.132l-0.548-0.164l-1.544-0.463l-0.548-0.165
			l-0.439-0.132l-0.107-0.032l-0.439-0.132l-0.547-0.164l-1.637-0.491l-0.548-0.164l-0.439-0.132l-0.108-0.032l-0.438-0.132
			l-0.547-0.165l-3.817-1.144l-0.548-0.165L61.798,20.521z M64.738,16.953l3.641-1.751l0.516-0.247l0.472-0.228l0.439,0.133
			l0.547,0.164l0.678,0.203l0.547,0.164l0.439,0.133l0.107,0.031L72.27,15.6l0.293,0.088l0.254,0.076l0.294,0.088l0.146,0.044
			l0.108,0.032l0.438,0.133l0.549,0.164l2.664,0.8l7.986,2.396l8.188,2.456c0.072,0.021,0.146,0.032,0.221,0.032l0,0
			c0.135,0,0.271-0.036,0.39-0.106l0.145-0.084l0.472-0.275l0.441-0.261l0.472-0.275l0.442-0.26l0.029-0.018l0.442-0.26l0.471-0.276
			l0.073-0.043l0.471-0.274l0.442-0.261l0.03-0.018l0.441-0.26l0.473-0.277l1.34-0.786l0.472-0.275l0.442-0.26l0.384,0.1
			l0.529,0.137l3.321,0.854l-0.441,0.26l-0.473,0.275l-1.339,0.786l-0.471,0.276l-0.443,0.26l-0.029,0.018l-0.442,0.26l-0.471,0.276
			l-0.073,0.042l-0.471,0.277l-0.442,0.259l-0.03,0.019l-0.441,0.259l-0.473,0.276l-0.44,0.26l-0.472,0.275l-0.442,0.261
			l-0.029,0.018l-0.44,0.259l-0.473,0.276l-1.565,0.918l-0.472,0.277l-0.441,0.26l-0.029,0.017l-0.442,0.259l-0.38,0.224
			l-7.429-2.229l-8.682-2.604l-0.192-0.059l-0.597-0.179l-0.547-0.164l-1.638-0.491l-0.548-0.164l-0.439-0.132l-0.107-0.033
			l-0.439-0.132l-0.548-0.164l-2.574-0.771l-0.548-0.165l-0.439-0.131l-0.108-0.033l-0.146-0.044l-0.294-0.088l-0.254-0.076
			l-0.293-0.087l-0.146-0.045l-0.107-0.032l-0.439-0.132l-0.547-0.164l-0.678-0.203l-0.547-0.165L64.738,16.953z M105.279,21.831
			l-0.473,0.276l-1.846,1.083l-0.525,0.308l-0.472,0.276l-0.442,0.26l-0.03,0.018l-0.442,0.259l-0.472,0.277l-1.564,0.918
			l-0.473,0.278l-0.441,0.259l-0.029,0.018l-0.442,0.261l-0.472,0.275l-2.158,1.267l-0.472,0.275L94.083,28.4l-0.029,0.018h-0.003
			l-0.031-0.009l-0.107-0.032l-0.365-0.109l-0.109-0.032l-0.029-0.01l-0.365-0.108l-0.504-0.151l-7.779-2.333l-8.43-2.528
			l-1.645-0.493l-0.549-0.164l-0.438-0.132l-0.108-0.032l-0.438-0.132l-0.548-0.164l-1.637-0.491l-0.548-0.164l-0.438-0.132
			l-0.108-0.032l-0.438-0.132l-0.548-0.164l-2.575-0.773l-0.549-0.164l-0.438-0.132l1.404-0.675l0.515-0.247l0.472-0.227
			l0.439,0.132l0.548,0.164l2.576,0.771l0.547,0.164l0.439,0.132l0.107,0.032l0.439,0.132l0.548,0.164l1.637,0.491L75.542,21
			l0.44,0.132l0.107,0.032l0.439,0.133l0.548,0.164l16.173,4.851c0.073,0.021,0.147,0.033,0.223,0.033l0,0
			c0.135,0,0.271-0.036,0.39-0.105l0.576-0.337l0.472-0.277l0.443-0.259l0.028-0.019l0.441-0.259l0.472-0.277l1.566-0.918
			l0.472-0.276l0.441-0.258l0.029-0.02l0.442-0.259l0.472-0.277l0.441-0.259l0.472-0.276l0.442-0.259l0.03-0.018l0.441-0.26
			l0.472-0.276l0.072-0.043l0.472-0.276l0.441-0.259l0.384,0.099l0.529,0.137l1.805,0.464L105.279,21.831z M106.82,38.019
			l-0.472,0.277l-3.756,2.203l-0.471,0.276l-0.442,0.259l-0.03,0.018l-0.442,0.259l-0.472,0.276l-1.565,0.919l-0.473,0.277
			l-0.441,0.259l-0.029,0.018l-0.442,0.26l-0.472,0.275l-1.721,1.011l-1.166-0.352l-0.504-0.15l-0.364-0.109l-0.139-0.041
			l-0.366-0.109l-0.503-0.15l-16.287-4.888l-0.55-0.164l-0.438-0.132l-0.108-0.032l-0.438-0.132l-0.547-0.164l-1.638-0.491
			l-0.548-0.163l-0.438-0.133l-0.108-0.031l-0.44-0.132l-0.549-0.165l-2.613-0.783l-0.549-0.164l-0.439-0.133l1.503-0.724
			l0.515-0.246l0.473-0.227l0.439,0.131l0.548,0.164l2.614,0.785l0.548,0.164l0.439,0.131l0.107,0.033l0.439,0.132l0.548,0.164
			l1.637,0.491l3.2,0.959l8.677,2.604l0.583,0.175l3.348,1.004c0.072,0.021,0.146,0.032,0.221,0.032l0,0
			c0.089,0,0.178-0.021,0.262-0.053c0.014-0.005,0.025-0.01,0.038-0.015c0.03-0.015,0.063-0.022,0.09-0.039l0.369-0.218l0.472-0.275
			l1.565-0.918l0.472-0.277l0.442-0.259l0.03-0.02l0.44-0.259l0.473-0.275l1.12-0.657l0.473-0.277l0.44-0.259l0.03-0.02l0.441-0.258
			l0.473-0.276l0.777-0.455l0.472-0.276l0.441-0.259l0.384,0.098l0.53,0.138l4.325,1.11L106.82,38.019z M105.084,14.292
			l-0.441,0.258l-0.474,0.277l-3.383,1.984l-0.472,0.276l-0.442,0.26l-0.03,0.019l-0.441,0.259l-0.472,0.277l-1.339,0.784
			l-0.472,0.277l-0.443,0.259l-0.028,0.02l-0.442,0.259l-0.472,0.276l-0.073,0.043l-0.471,0.275l-0.442,0.26l-0.03,0.019
			l-0.44,0.259l-0.472,0.276l-0.389,0.228l-7.619-2.284l-9.262-2.778l-1.146-0.344l-0.549-0.164l-0.438-0.133l-0.108-0.031
			l-0.438-0.133l-0.547-0.163l-0.146-0.045l-0.106-0.031l-0.44-0.132l-0.547-0.164l-0.678-0.204l-0.548-0.164l-0.438-0.132
			l-0.108-0.032l-0.439-0.132l-0.548-0.164l-3.632-1.089l-0.55-0.167l-0.438-0.134l11.668-5.608L105.084,14.292z"/>
	</g>
</g>
</svg>
