<?xml version="1.0" standalone="no"?>
<!DOCTYPE svg PUBLIC "-//W3C//DTD SVG 20010904//EN"
 "http://www.w3.org/TR/2001/REC-SVG-20010904/DTD/svg10.dtd">
<svg version="1.0" xmlns="http://www.w3.org/2000/svg"
 width="192.000000pt" height="192.000000pt" viewBox="0 0 192.000000 192.000000"
 preserveAspectRatio="xMidYMid meet">
<metadata>
Created by potrace 1.11, written by Peter Selinger 2001-2013
</metadata>
<g transform="translate(0.000000,192.000000) scale(0.100000,-0.100000)"
fill="#000000" stroke="none">
<path d="M790 1904 c-104 -21 -106 -21 -195 -58 -255 -104 -456 -319 -544
-582 -17 -50 -34 -115 -38 -145 -14 -93 -8 -288 10 -369 72 -316 306 -580 614
-694 165 -61 378 -69 578 -22 83 19 232 93 316 156 147 110 250 246 330 435
12 29 39 134 47 180 13 80 6 288 -11 365 -76 332 -324 601 -649 704 -139 45
-323 56 -458 30z"/>
</g>
</svg>
